Fira Sans-Regular Italic.ufo
<glyph name="exclam" format="1">
  <advance width="235"/>
  <unicode hex="0021"/>
  <outline>
    <contour>
      <point x="126" y="689" type="line"/>
      <point x="71" y="230" type="line"/>
      <point x="152" y="230" type="line"/>
      <point x="227" y="689" type="line"/>
    </contour>
    <component base="period"/>
  </outline>
</glyph>
<glyph name="dollar" format="1">
  <advance width="523"/>
  <unicode hex="0024"/>
  <outline>
    <contour>
      <point x="183" y="-7" type="line"/>
      <point x="162" y="-155" type="line"/>
      <point x="241" y="-155" type="line"/>
      <point x="263" y="2" type="line"/>
    </contour>
    <contour>
      <point x="300" y="824" type="line"/>
      <point x="277" y="662" type="line"/>
      <point x="356" y="664" type="line"/>
      <point x="379" y="824" type="line"/>
    </contour>
    <contour>
      <point x="184" y="680"/>
      <point x="84" y="611"/>
      <point x="84" y="494" type="curve" smooth="yes"/>
      <point x="84" y="408"/>
      <point x="145" y="349"/>
      <point x="258" y="314" type="curve" smooth="yes"/>
      <point x="351" y="282"/>
      <point x="382" y="246"/>
      <point x="382" y="201" type="curve" smooth="yes"/>
      <point x="382" y="101"/>
      <point x="303" y="64"/>
      <point x="216" y="64" type="curve" smooth="yes"/>
      <point x="147" y="64"/>
      <point x="96" y="88"/>
      <point x="58" y="132" type="curve"/>
      <point x="-1" y="77" type="line"/>
      <point x="47" y="22"/>
      <point x="117" y="-12"/>
      <point x="214" y="-12" type="curve" smooth="yes"/>
      <point x="416" y="-12"/>
      <point x="477" y="112"/>
      <point x="477" y="201" type="curve" smooth="yes"/>
      <point x="477" y="307"/>
      <point x="397" y="358"/>
      <point x="303" y="387" type="curve" smooth="yes"/>
      <point x="206" y="420"/>
      <point x="177" y="448"/>
      <point x="177" y="498" type="curve" smooth="yes"/>
      <point x="177" y="576"/>
      <point x="242" y="604"/>
      <point x="316" y="604" type="curve" smooth="yes"/>
      <point x="362" y="604"/>
      <point x="407" y="589"/>
      <point x="454" y="546" type="curve"/>
      <point x="511" y="600" type="line"/>
      <point x="456" y="651"/>
      <point x="402" y="680"/>
      <point x="315" y="680" type="curve" smooth="yes"/>
    </contour>
  </outline>
</glyph>
<glyph name="percent" format="1">
  <advance width="820"/>
  <unicode hex="0025"/>
  <outline>
    <contour>
      <point x="114" y="11" type="line"/>
      <point x="173" y="-31" type="line"/>
      <point x="729" y="669" type="line"/>
      <point x="670" y="711" type="line"/>
    </contour>
    <contour>
      <point x="309" y="617"/>
      <point x="323" y="582"/>
      <point x="323" y="539" type="curve" smooth="yes"/>
      <point x="323" y="498"/>
      <point x="308" y="403"/>
      <point x="222" y="403" type="curve" smooth="yes"/>
      <point x="172" y="403"/>
      <point x="158" y="440"/>
      <point x="158" y="484" type="curve" smooth="yes"/>
      <point x="158" y="527"/>
      <point x="175" y="617"/>
      <point x="260" y="617" type="curve" smooth="yes"/>
    </contour>
    <contour>
      <point x="130" y="679"/>
      <point x="79" y="567"/>
      <point x="79" y="484" type="curve" smooth="yes"/>
      <point x="79" y="399"/>
      <point x="137" y="341"/>
      <point x="221" y="341" type="curve" smooth="yes"/>
      <point x="356" y="341"/>
      <point x="403" y="458"/>
      <point x="403" y="539" type="curve" smooth="yes"/>
      <point x="403" y="622"/>
      <point x="345" y="679"/>
      <point x="260" y="679" type="curve" smooth="yes"/>
    </contour>
    <contour>
      <point x="667" y="264"/>
      <point x="681" y="229"/>
      <point x="681" y="186" type="curve" smooth="yes"/>
      <point x="681" y="145"/>
      <point x="666" y="50"/>
      <point x="580" y="50" type="curve" smooth="yes"/>
      <point x="530" y="50"/>
      <point x="516" y="87"/>
      <point x="516" y="131" type="curve" smooth="yes"/>
      <point x="516" y="174"/>
      <point x="533" y="264"/>
      <point x="618" y="264" type="curve" smooth="yes"/>
    </contour>
    <contour>
      <point x="488" y="326"/>
      <point x="437" y="214"/>
      <point x="437" y="131" type="curve" smooth="yes"/>
      <point x="437" y="46"/>
      <point x="495" y="-12"/>
      <point x="579" y="-12" type="curve" smooth="yes"/>
      <point x="714" y="-12"/>
      <point x="761" y="105"/>
      <point x="761" y="186" type="curve" smooth="yes"/>
      <point x="761" y="269"/>
      <point x="703" y="326"/>
      <point x="618" y="326" type="curve" smooth="yes"/>
    </contour>
  </outline>
</glyph>
<glyph name="ampersand" format="1">
  <advance width="757"/>
  <unicode hex="0026"/>
  <outline>
    <contour>
      <point x="224" y="701"/>
      <point x="157" y="631"/>
      <point x="157" y="534" type="curve" smooth="yes"/>
      <point x="157" y="476.531"/>
      <point x="186.956" y="430.712"/>
      <point x="231.687" y="379.843" type="curve"/>
      <point x="105.766" y="306.498"/>
      <point x="76" y="245.051"/>
      <point x="76" y="165" type="curve" smooth="yes"/>
      <point x="76" y="67"/>
      <point x="147" y="-11.9999"/>
      <point x="268" y="-11.9999" type="curve" smooth="yes"/>
      <point x="360.734" y="-11.9999"/>
      <point x="435.188" y="19.9895"/>
      <point x="499.227" y="82.2202" type="curve"/>
      <point x="582" y="-11.9998" type="line"/>
      <point x="652" y="40" type="line"/>
      <point x="556.863" y="144.028" type="line"/>
      <point x="595.845" y="194.741"/>
      <point x="634.22" y="257.809"/>
      <point x="666" y="325" type="curve"/>
      <point x="584" y="355" type="line"/>
      <point x="565" y="304.333"/>
      <point x="535.358" y="247.118"/>
      <point x="505.444" y="199.648" type="curve"/>
      <point x="352.691" y="366.828" type="line"/>
      <point x="440.932" y="414.403"/>
      <point x="522" y="461.697"/>
      <point x="522" y="560" type="curve" smooth="yes"/>
      <point x="522" y="638"/>
      <point x="448" y="701"/>
      <point x="347" y="701" type="curve" smooth="yes"/>
    </contour>
    <contour>
      <point x="449.615" y="135.968" type="line"/>
      <point x="399.173" y="88.824"/>
      <point x="346.369" y="61"/>
      <point x="281" y="61" type="curve" smooth="yes"/>
      <point x="210" y="61"/>
      <point x="169" y="110"/>
      <point x="169" y="169" type="curve"/>
      <point x="169" y="218.504"/>
      <point x="180.342" y="268.008"/>
      <point x="277.994" y="326.476" type="curve"/>
    </contour>
    <contour>
      <point x="397" y="633"/>
      <point x="433" y="603"/>
      <point x="433" y="560" type="curve" smooth="yes"/>
      <point x="433" y="495.644"/>
      <point x="379.064" y="459.125"/>
      <point x="302.836" y="417.177" type="curve"/>
      <point x="266.328" y="455.575"/>
      <point x="246" y="492.442"/>
      <point x="246" y="534" type="curve" smooth="yes"/>
      <point x="246" y="592"/>
      <point x="282" y="633"/>
      <point x="347" y="633" type="curve" smooth="yes"/>
    </contour>
  </outline>
</glyph>
<glyph name="parenleft" format="1">
  <advance width="318"/>
  <unicode hex="0028"/>
  <outline>
    <contour>
      <point x="186" y="708"/>
      <point x="84" y="590"/>
      <point x="51" y="355" type="curve" smooth="yes"/>
      <point x="17" y="116"/>
      <point x="89" y="-4"/>
      <point x="167" y="-143" type="curve"/>
      <point x="227" y="-109" type="line"/>
      <point x="157" y="24"/>
      <point x="115" y="133"/>
      <point x="144" y="345" type="curve" smooth="yes"/>
      <point x="175" y="562"/>
      <point x="249" y="670"/>
      <point x="357" y="803" type="curve"/>
      <point x="303" y="847" type="line"/>
    </contour>
  </outline>
</glyph>
<glyph name="parenright" format="1">
  <advance width="318"/>
  <unicode hex="0029"/>
  <outline>
    <contour>
      <point x="115" y="809" type="line"/>
      <point x="186" y="676"/>
      <point x="228" y="568"/>
      <point x="198" y="355" type="curve" smooth="yes"/>
      <point x="168" y="139"/>
      <point x="93" y="30"/>
      <point x="-15" y="-103" type="curve"/>
      <point x="39" y="-147" type="line"/>
      <point x="156" y="-8"/>
      <point x="258" y="110"/>
      <point x="291" y="345" type="curve" smooth="yes"/>
      <point x="325" y="584"/>
      <point x="253" y="704"/>
      <point x="175" y="843" type="curve"/>
    </contour>
  </outline>
</glyph>
<glyph name="plus" format="1">
  <advance width="493"/>
  <unicode hex="002B"/>
  <outline>
    <contour>
      <point x="240" y="519" type="line"/>
      <point x="219" y="369" type="line"/>
      <point x="76" y="369" type="line"/>
      <point x="65" y="293" type="line"/>
      <point x="208" y="293" type="line"/>
      <point x="187" y="144" type="line"/>
      <point x="271" y="144" type="line"/>
      <point x="292" y="293" type="line"/>
      <point x="436" y="293" type="line"/>
      <point x="447" y="369" type="line"/>
      <point x="303" y="369" type="line"/>
      <point x="324" y="519" type="line"/>
    </contour>
  </outline>
</glyph>
<glyph name="comma" format="1">
  <advance width="241"/>
  <unicode hex="002C"/>
  <outline>
    <contour>
      <point x="57" y="127"/>
      <point x="24" y="92"/>
      <point x="24" y="51" type="curve" smooth="yes"/>
      <point x="24" y="30"/>
      <point x="32" y="13"/>
      <point x="45" y="2" type="curve"/>
      <point x="-20" y="-166" type="line"/>
      <point x="47" y="-166" type="line"/>
      <point x="135" y="-15" type="line" smooth="yes"/>
      <point x="154" y="19"/>
      <point x="161" y="40"/>
      <point x="161" y="64" type="curve" smooth="yes"/>
      <point x="161" y="99"/>
      <point x="135" y="127"/>
      <point x="98" y="127" type="curve" smooth="yes"/>
    </contour>
  </outline>
</glyph>
<glyph name="hyphen" format="1">
  <advance width="397"/>
  <unicode hex="002D"/>
  <outline>
    <contour>
      <point x="340" y="274" type="line"/>
      <point x="351" y="352" type="line"/>
      <point x="70" y="352" type="line"/>
      <point x="59" y="274" type="line"/>
    </contour>
  </outline>
</glyph>
<glyph name="period" format="1">
  <advance width="240"/>
  <unicode hex="002E"/>
  <outline>
    <contour>
      <point x="56" y="127"/>
      <point x="23" y="93"/>
      <point x="23" y="51" type="curve" smooth="yes"/>
      <point x="23" y="16"/>
      <point x="48" y="-12"/>
      <point x="85" y="-12" type="curve" smooth="yes"/>
      <point x="127" y="-12"/>
      <point x="160" y="22"/>
      <point x="160" y="64" type="curve" smooth="yes"/>
      <point x="160" y="99"/>
      <point x="135" y="127"/>
      <point x="97" y="127" type="curve" smooth="yes"/>
    </contour>
  </outline>
</glyph>
<glyph name="three" format="1">
  <advance width="493"/>
  <unicode hex="0033"/>
  <outline>
    <contour>
      <point x="206" y="679"/>
      <point x="142" y="655"/>
      <point x="77" y="601" type="curve"/>
      <point x="122" y="543" type="line"/>
      <point x="172" y="585"/>
      <point x="215" y="605"/>
      <point x="269" y="605" type="curve" smooth="yes"/>
      <point x="327" y="605"/>
      <point x="362" y="574"/>
      <point x="362" y="520" type="curve" smooth="yes"/>
      <point x="362" y="465"/>
      <point x="319" y="385"/>
      <point x="222" y="385" type="curve" smooth="yes"/>
      <point x="190" y="385" type="line"/>
      <point x="169" y="314" type="line"/>
      <point x="221" y="314" type="line" smooth="yes"/>
      <point x="292" y="314"/>
      <point x="337" y="294"/>
      <point x="337" y="227" type="curve" smooth="yes"/>
      <point x="337" y="131"/>
      <point x="273" y="63"/>
      <point x="178" y="63" type="curve" smooth="yes"/>
      <point x="127" y="63"/>
      <point x="84" y="81"/>
      <point x="49" y="130" type="curve"/>
      <point x="-11" y="80" type="line"/>
      <point x="31" y="19"/>
      <point x="97" y="-12"/>
      <point x="178" y="-12" type="curve" smooth="yes"/>
      <point x="360" y="-12"/>
      <point x="430" y="124"/>
      <point x="430" y="216" type="curve" smooth="yes"/>
      <point x="430" y="300"/>
      <point x="374" y="348"/>
      <point x="302" y="354" type="curve"/>
      <point x="413" y="379"/>
      <point x="454" y="455"/>
      <point x="454" y="522" type="curve" smooth="yes"/>
      <point x="454" y="608"/>
      <point x="393" y="679"/>
      <point x="276" y="679" type="curve" smooth="yes"/>
    </contour>
  </outline>
</glyph>
<glyph name="five" format="1">
  <advance width="495"/>
  <unicode hex="0035"/>
  <outline>
    <contour>
      <point x="127" y="669" type="line"/>
      <point x="80" y="332" type="line"/>
      <point x="152" y="331" type="line"/>
      <point x="187" y="347"/>
      <point x="214" y="355"/>
      <point x="252" y="355" type="curve" smooth="yes"/>
      <point x="310" y="355"/>
      <point x="353" y="329"/>
      <point x="353" y="247" type="curve" smooth="yes"/>
      <point x="353" y="178"/>
      <point x="313" y="63"/>
      <point x="190" y="63" type="curve"/>
      <point x="134" y="63"/>
      <point x="94" y="82"/>
      <point x="60" y="126" type="curve"/>
      <point x="0" y="75" type="line"/>
      <point x="44" y="22"/>
      <point x="100" y="-12"/>
      <point x="188" y="-12" type="curve"/>
      <point x="375" y="-12"/>
      <point x="446" y="140"/>
      <point x="446" y="245" type="curve" smooth="yes"/>
      <point x="446" y="361"/>
      <point x="383" y="426"/>
      <point x="282" y="426" type="curve" smooth="yes"/>
      <point x="248" y="426"/>
      <point x="212" y="419"/>
      <point x="174" y="401" type="curve"/>
      <point x="204" y="597" type="line"/>
      <point x="463" y="597" type="line"/>
      <point x="485" y="669" type="line"/>
    </contour>
  </outline>
</glyph>
<glyph name="six" format="1">
  <advance width="525"/>
  <unicode hex="0036"/>
  <outline>
    <contour>
      <point x="202" y="679"/>
      <point x="90" y="536"/>
      <point x="60" y="319" type="curve" smooth="yes"/>
      <point x="55" y="284"/>
      <point x="53" y="251"/>
      <point x="53" y="221" type="curve" smooth="yes"/>
      <point x="53" y="80"/>
      <point x="106" y="-12"/>
      <point x="241" y="-12" type="curve" smooth="yes"/>
      <point x="411" y="-12"/>
      <point x="483" y="155"/>
      <point x="483" y="264" type="curve" smooth="yes"/>
      <point x="483" y="382"/>
      <point x="412" y="440"/>
      <point x="324" y="440" type="curve" smooth="yes"/>
      <point x="258" y="440"/>
      <point x="198" y="411"/>
      <point x="141" y="337" type="curve"/>
      <point x="135" y="256" type="line"/>
      <point x="177" y="320"/>
      <point x="239" y="367"/>
      <point x="306" y="367" type="curve" smooth="yes"/>
      <point x="357" y="367"/>
      <point x="392" y="342"/>
      <point x="392" y="267" type="curve" smooth="yes"/>
      <point x="392" y="194"/>
      <point x="359" y="61"/>
      <point x="244" y="61" type="curve" smooth="yes"/>
      <point x="173" y="61"/>
      <point x="141" y="105"/>
      <point x="141" y="200" type="curve" smooth="yes"/>
      <point x="141" y="228"/>
      <point x="144" y="260"/>
      <point x="149" y="297" type="curve"/>
      <point x="152" y="326" type="line"/>
      <point x="174" y="492"/>
      <point x="251" y="606"/>
      <point x="354" y="606" type="curve" smooth="yes"/>
      <point x="388" y="606"/>
      <point x="422" y="596"/>
      <point x="449" y="577" type="curve"/>
      <point x="490" y="637" type="line"/>
      <point x="455" y="663"/>
      <point x="412" y="679"/>
      <point x="357" y="679" type="curve" smooth="yes"/>
    </contour>
  </outline>
</glyph>
<glyph name="seven" format="1">
  <advance width="438"/>
  <unicode hex="0037"/>
  <outline>
    <contour>
      <point x="81" y="669" type="line"/>
      <point x="70" y="594" type="line"/>
      <point x="362" y="594" type="line"/>
      <point x="43" y="18" type="line"/>
      <point x="126" y="-10" type="line"/>
      <point x="457" y="600" type="line"/>
      <point x="466" y="669" type="line"/>
    </contour>
  </outline>
</glyph>
<glyph name="nine" format="1">
  <advance width="519"/>
  <unicode hex="0039"/>
  <outline>
    <contour>
      <point x="407" y="416" type="line"/>
      <point x="366" y="356"/>
      <point x="313" y="315"/>
      <point x="249" y="315" type="curve" smooth="yes"/>
      <point x="195" y="315"/>
      <point x="159" y="351"/>
      <point x="159" y="420" type="curve" smooth="yes"/>
      <point x="159" y="495"/>
      <point x="189" y="606"/>
      <point x="307" y="606" type="curve" smooth="yes"/>
      <point x="369" y="606"/>
      <point x="405" y="568"/>
      <point x="405" y="477" type="curve" smooth="yes"/>
      <point x="405" y="448"/>
      <point x="402" y="423"/>
      <point x="394" y="382" type="curve"/>
      <point x="386" y="336" type="line"/>
      <point x="362" y="179"/>
      <point x="242" y="97"/>
      <point x="65" y="48" type="curve"/>
      <point x="80" y="-23" type="line"/>
      <point x="438" y="64"/>
      <point x="496" y="277"/>
      <point x="496" y="466" type="curve" smooth="yes"/>
      <point x="496" y="595"/>
      <point x="431" y="679"/>
      <point x="305" y="679" type="curve" smooth="yes"/>
      <point x="138" y="679"/>
      <point x="69" y="543"/>
      <point x="69" y="424" type="curve" smooth="yes"/>
      <point x="69" y="314"/>
      <point x="138" y="243"/>
      <point x="231" y="243" type="curve" smooth="yes"/>
      <point x="302" y="243"/>
      <point x="359" y="282"/>
      <point x="392" y="331" type="curve"/>
    </contour>
  </outline>
</glyph>
<glyph name="less" format="1">
  <advance width="496"/>
  <unicode hex="003C"/>
  <outline>
    <contour>
      <point x="66" y="380" type="line"/>
      <point x="53" y="286" type="line"/>
      <point x="393" y="115" type="line"/>
      <point x="436" y="189" type="line"/>
      <point x="132" y="331" type="line"/>
      <point x="480" y="472" type="line"/>
      <point x="452" y="551" type="line"/>
    </contour>
  </outline>
</glyph>
<glyph name="at" format="1">
  <advance width="1014"/>
  <unicode hex="0040"/>
  <outline>
    <contour>
      <point x="197" y="701"/>
      <point x="62" y="398"/>
      <point x="62" y="185" type="curve" smooth="yes"/>
      <point x="62" y="-48"/>
      <point x="228" y="-213"/>
      <point x="469" y="-213" type="curve" smooth="yes"/>
      <point x="557" y="-213"/>
      <point x="619" y="-198"/>
      <point x="688" y="-175" type="curve"/>
      <point x="669" y="-102" type="line"/>
      <point x="614" y="-121"/>
      <point x="549" y="-137"/>
      <point x="473" y="-137" type="curve" smooth="yes"/>
      <point x="270" y="-137"/>
      <point x="154" y="3"/>
      <point x="154" y="183" type="curve" smooth="yes"/>
      <point x="154" y="365"/>
      <point x="255" y="625"/>
      <point x="568" y="625" type="curve" smooth="yes"/>
      <point x="758" y="625"/>
      <point x="862" y="527"/>
      <point x="862" y="357" type="curve" smooth="yes"/>
      <point x="862" y="251"/>
      <point x="827" y="80"/>
      <point x="715" y="80" type="curve" smooth="yes"/>
      <point x="663" y="80"/>
      <point x="660" y="120"/>
      <point x="665" y="168" type="curve" smooth="yes"/>
      <point x="702" y="451" type="line"/>
      <point x="652" y="481"/>
      <point x="605" y="492"/>
      <point x="551" y="492" type="curve" smooth="yes"/>
      <point x="365" y="492"/>
      <point x="299" y="320"/>
      <point x="299" y="186" type="curve" smooth="yes"/>
      <point x="299" y="80"/>
      <point x="353" y="11"/>
      <point x="447" y="11" type="curve" smooth="yes"/>
      <point x="524" y="11"/>
      <point x="572" y="60"/>
      <point x="600" y="110" type="curve"/>
      <point x="605" y="64"/>
      <point x="635" y="9"/>
      <point x="716" y="9" type="curve" smooth="yes"/>
      <point x="896" y="9"/>
      <point x="952" y="223"/>
      <point x="952" y="351" type="curve" smooth="yes"/>
      <point x="952" y="548"/>
      <point x="820" y="701"/>
      <point x="570" y="701" type="curve" smooth="yes"/>
    </contour>
    <contour>
      <point x="411" y="78"/>
      <point x="387" y="111"/>
      <point x="387" y="175" type="curve" smooth="yes"/>
      <point x="387" y="285"/>
      <point x="420" y="426"/>
      <point x="553" y="426" type="curve" smooth="yes"/>
      <point x="581" y="426"/>
      <point x="600" y="421"/>
      <point x="619" y="412" type="curve"/>
      <point x="584" y="173" type="line"/>
      <point x="573" y="147"/>
      <point x="535" y="78"/>
      <point x="459" y="78" type="curve" smooth="yes"/>
    </contour>
  </outline>
</glyph>
<glyph name="A" format="1">
  <advance width="567"/>
  <unicode hex="0041"/>
  <outline>
    <contour>
      <point x="284" y="689" type="line"/>
      <point x="-32" y="0" type="line"/>
      <point x="65" y="0" type="line"/>
      <point x="332" y="610" type="line"/>
      <point x="427" y="0" type="line"/>
      <point x="524" y="0" type="line"/>
      <point x="403" y="689" type="line"/>
    </contour>
    <contour>
      <point x="158" y="250" type="line"/>
      <point x="124" y="173" type="line"/>
      <point x="412" y="173" type="line"/>
      <point x="400" y="250" type="line"/>
    </contour>
    <contour>
      <point x="495" y="0" type="move" name="ogonek"/>
    </contour>
    <contour>
      <point x="344" y="689" type="move" name="top"/>
    </contour>
    <contour>
      <point x="144" y="527" type="move" name="topleft"/>
    </contour>
  </outline>
</glyph>
<glyph name="B" format="1">
  <advance width="602"/>
  <unicode hex="0042"/>
  <outline>
    <contour>
      <point x="159" y="689" type="line"/>
      <point x="62" y="0" type="line"/>
      <point x="252" y="0" type="line" smooth="yes"/>
      <point x="478" y="0"/>
      <point x="550" y="99"/>
      <point x="550" y="220" type="curve" smooth="yes"/>
      <point x="550" y="317"/>
      <point x="482" y="351"/>
      <point x="411" y="364" type="curve"/>
      <point x="493" y="379"/>
      <point x="565" y="438"/>
      <point x="565" y="537" type="curve" smooth="yes"/>
      <point x="565" y="641"/>
      <point x="474" y="689"/>
      <point x="349" y="689" type="curve" smooth="yes"/>
    </contour>
    <contour>
      <point x="414" y="614"/>
      <point x="469" y="599"/>
      <point x="469" y="534" type="curve" smooth="yes"/>
      <point x="469" y="445"/>
      <point x="396" y="397"/>
      <point x="313" y="397" type="curve" smooth="yes"/>
      <point x="197" y="397" type="line"/>
      <point x="187" y="324" type="line"/>
      <point x="316" y="324" type="line" smooth="yes"/>
      <point x="391" y="324"/>
      <point x="452" y="301"/>
      <point x="452" y="222" type="curve" smooth="yes"/>
      <point x="452" y="139"/>
      <point x="411" y="76"/>
      <point x="256" y="76" type="curve" smooth="yes"/>
      <point x="167" y="76" type="line"/>
      <point x="242" y="614" type="line"/>
      <point x="352" y="614" type="line" smooth="yes"/>
    </contour>
  </outline>
</glyph>
<glyph name="C" format="1">
  <advance width="555"/>
  <unicode hex="0043"/>
  <outline>
    <contour>
      <point x="155" y="701"/>
      <point x="61" y="452"/>
      <point x="61" y="268" type="curve" smooth="yes"/>
      <point x="61" y="86"/>
      <point x="159" y="-12"/>
      <point x="306" y="-12" type="curve" smooth="yes"/>
      <point x="396" y="-12"/>
      <point x="464" y="25"/>
      <point x="509" y="63" type="curve"/>
      <point x="467" y="128" type="line"/>
      <point x="425" y="99"/>
      <point x="379" y="68"/>
      <point x="312" y="68" type="curve" smooth="yes"/>
      <point x="224" y="68"/>
      <point x="160" y="122"/>
      <point x="160" y="260" type="curve" smooth="yes"/>
      <point x="160" y="415"/>
      <point x="219" y="623"/>
      <point x="400" y="623" type="curve" smooth="yes"/>
      <point x="445" y="623"/>
      <point x="484" y="609"/>
      <point x="522" y="574" type="curve"/>
      <point x="579" y="630" type="line"/>
      <point x="531" y="675"/>
      <point x="474" y="701"/>
      <point x="394" y="701" type="curve" smooth="yes"/>
    </contour>
    <contour>
      <point x="405" y="689" type="move" name="top"/>
    </contour>
    <contour>
      <point x="307" y="0" type="move" name="bottom"/>
    </contour>
  </outline>
</glyph>
<glyph name="D" format="1">
  <advance width="639"/>
  <unicode hex="0044"/>
  <outline>
    <contour>
      <point x="159" y="689" type="line"/>
      <point x="62" y="0" type="line"/>
      <point x="228" y="0" type="line" smooth="yes"/>
      <point x="500" y="0"/>
      <point x="601" y="207"/>
      <point x="601" y="428" type="curve" smooth="yes"/>
      <point x="601" y="643"/>
      <point x="456" y="689"/>
      <point x="300" y="689" type="curve" smooth="yes"/>
    </contour>
    <contour>
      <point x="410" y="613"/>
      <point x="505" y="591"/>
      <point x="505" y="430" type="curve" smooth="yes"/>
      <point x="505" y="265"/>
      <point x="442" y="75"/>
      <point x="242" y="75" type="curve" smooth="yes"/>
      <point x="167" y="75" type="line"/>
      <point x="242" y="613" type="line"/>
      <point x="314" y="613" type="line" smooth="yes"/>
    </contour>
    <contour>
      <point x="331" y="345" type="move" name="center"/>
    </contour>
    <contour>
      <point x="360" y="689" type="move" name="top"/>
    </contour>
  </outline>
</glyph>
<glyph name="E" format="1">
  <advance width="529"/>
  <unicode hex="0045"/>
  <outline>
    <contour>
      <point x="159" y="689" type="line"/>
      <point x="62" y="0" type="line"/>
      <point x="439" y="0" type="line"/>
      <point x="450" y="76" type="line"/>
      <point x="167" y="76" type="line"/>
      <point x="200" y="312" type="line"/>
      <point x="430" y="312" type="line"/>
      <point x="440" y="388" type="line"/>
      <point x="210" y="388" type="line"/>
      <point x="242" y="613" type="line"/>
      <point x="507" y="613" type="line"/>
      <point x="528" y="689" type="line"/>
    </contour>
    <contour>
      <point x="409" y="0" type="move" name="ogonek"/>
    </contour>
    <contour>
      <point x="347" y="689" type="move" name="top"/>
    </contour>
    <contour>
      <point x="48" y="534" type="move" name="topleft"/>
    </contour>
    <contour>
      <point x="251" y="0" type="move" name="bottom"/>
    </contour>
  </outline>
</glyph>
<glyph name="F" format="1">
  <advance width="485"/>
  <unicode hex="0046"/>
  <outline>
    <contour>
      <point x="159" y="689" type="line"/>
      <point x="62" y="0" type="line"/>
      <point x="156" y="0" type="line"/>
      <point x="199" y="303" type="line"/>
      <point x="422" y="303" type="line"/>
      <point x="432" y="378" type="line"/>
      <point x="209" y="378" type="line"/>
      <point x="242" y="613" type="line"/>
      <point x="500" y="613" type="line"/>
      <point x="521" y="689" type="line"/>
    </contour>
  </outline>
</glyph>
<glyph name="G" format="1">
  <advance width="625"/>
  <unicode hex="0047"/>
  <outline>
    <contour>
      <point x="163" y="701"/>
      <point x="60" y="457"/>
      <point x="60" y="259" type="curve" smooth="yes"/>
      <point x="60" y="79"/>
      <point x="154" y="-12"/>
      <point x="302" y="-12" type="curve" smooth="yes"/>
      <point x="396" y="-12"/>
      <point x="468" y="11"/>
      <point x="535" y="54" type="curve"/>
      <point x="580" y="382" type="line"/>
      <point x="356" y="382" type="line"/>
      <point x="356" y="305" type="line"/>
      <point x="476" y="305" type="line"/>
      <point x="446" y="101" type="line"/>
      <point x="404" y="76"/>
      <point x="359" y="66"/>
      <point x="315" y="66" type="curve" smooth="yes"/>
      <point x="213" y="66"/>
      <point x="159" y="119"/>
      <point x="159" y="247" type="curve" smooth="yes"/>
      <point x="159" y="413"/>
      <point x="227" y="623"/>
      <point x="406" y="623" type="curve" smooth="yes"/>
      <point x="465" y="623"/>
      <point x="502" y="608"/>
      <point x="545" y="569" type="curve"/>
      <point x="607" y="622" type="line"/>
      <point x="555" y="672"/>
      <point x="494" y="701"/>
      <point x="405" y="701" type="curve" smooth="yes"/>
    </contour>
    <contour>
      <point x="412" y="689" type="move" name="top"/>
    </contour>
    <contour>
      <point x="303" y="0" type="move" name="bottom"/>
    </contour>
  </outline>
</glyph>
<glyph name="H" format="1">
  <advance width="674"/>
  <unicode hex="0048"/>
  <outline>
    <contour>
      <point x="538" y="0" type="line"/>
      <point x="635" y="689" type="line"/>
      <point x="541" y="689" type="line"/>
      <point x="500" y="401" type="line"/>
      <point x="212" y="401" type="line"/>
      <point x="253" y="689" type="line"/>
      <point x="159" y="689" type="line"/>
      <point x="62" y="0" type="line"/>
      <point x="156" y="0" type="line"/>
      <point x="201" y="323" type="line"/>
      <point x="489" y="323" type="line"/>
      <point x="444" y="0" type="line"/>
    </contour>
    <contour>
      <point x="397" y="689" type="move" name="top"/>
    </contour>
    <contour>
      <point x="48" y="534" type="move" name="topleft"/>
    </contour>
    <contour>
      <point x="548" y="0" type="move" name="bottomright"/>
    </contour>
    <contour>
      <point x="348" y="345" type="move" name="center"/>
    </contour>
  </outline>
</glyph>
<glyph name="I" format="1">
  <advance width="294"/>
  <unicode hex="0049"/>
  <outline>
    <contour>
      <point x="159" y="689" type="line"/>
      <point x="62" y="0" type="line"/>
      <point x="158" y="0" type="line"/>
      <point x="255" y="689" type="line"/>
    </contour>
    <contour>
      <point x="167" y="0" type="move" name="ogonek"/>
    </contour>
    <contour>
      <point x="207" y="689" type="move" name="top"/>
    </contour>
    <contour>
      <point x="50" y="534" type="move" name="topleft"/>
    </contour>
  </outline>
</glyph>
<glyph name="J" format="1">
  <advance width="300"/>
  <unicode hex="004A"/>
  <outline>
    <contour>
      <point x="172" y="689" type="line"/>
      <point x="89" y="103" type="line" smooth="yes"/>
      <point x="77" y="11"/>
      <point x="50" y="-31"/>
      <point x="-45" y="-67" type="curve"/>
      <point x="-26" y="-138" type="line"/>
      <point x="88" y="-103"/>
      <point x="162" y="-51"/>
      <point x="182" y="93" type="curve" smooth="yes"/>
      <point x="266" y="689" type="line"/>
    </contour>
    <contour>
      <point x="219" y="689" type="move" name="top"/>
    </contour>
  </outline>
</glyph>
<glyph name="K" format="1">
  <advance width="583"/>
  <unicode hex="004B"/>
  <outline>
    <contour>
      <point x="515" y="689" type="line"/>
      <point x="213" y="368" type="line"/>
      <point x="434" y="0" type="line"/>
      <point x="546" y="0" type="line"/>
      <point x="319" y="365" type="line"/>
      <point x="626" y="689" type="line"/>
    </contour>
    <contour>
      <point x="159" y="689" type="line"/>
      <point x="62" y="0" type="line"/>
      <point x="156" y="0" type="line"/>
      <point x="253" y="689" type="line"/>
    </contour>
    <contour>
      <point x="385" y="689" type="move" name="top"/>
    </contour>
    <contour>
      <point x="275" y="0" type="move" name="bottom"/>
    </contour>
  </outline>
</glyph>
<glyph name="L" format="1">
  <advance width="492"/>
  <unicode hex="004C"/>
  <outline>
    <contour>
      <point x="159" y="689" type="line"/>
      <point x="62" y="0" type="line"/>
      <point x="426" y="0" type="line"/>
      <point x="448" y="83" type="line"/>
      <point x="168" y="83" type="line"/>
      <point x="253" y="689" type="line"/>
    </contour>
    <contour>
      <point x="244" y="0" type="move" name="bottom"/>
    </contour>
    <contour>
      <point x="206" y="689" type="move" name="top"/>
    </contour>
    <contour>
      <point x="278" y="689" type="move" name="topright"/>
    </contour>
    <contour>
      <point x="404" y="390" type="move" name="center"/>
    </contour>
  </outline>
</glyph>
<glyph name="M" format="1">
  <advance width="790"/>
  <unicode hex="004D"/>
  <outline>
    <contour>
      <point x="580" y="689" type="line"/>
      <point x="376" y="190" type="line"/>
      <point x="298" y="689" type="line"/>
      <point x="179" y="689" type="line"/>
      <point x="25" y="0" type="line"/>
      <point x="115" y="0" type="line"/>
      <point x="179" y="301" type="line" smooth="yes"/>
      <point x="201" y="402"/>
      <point x="223" y="514"/>
      <point x="232" y="590" type="curve"/>
      <point x="315" y="78" type="line"/>
      <point x="405" y="78" type="line"/>
      <point x="623" y="591" type="line"/>
      <point x="616" y="528"/>
      <point x="608" y="422"/>
      <point x="602" y="314" type="curve" smooth="yes"/>
      <point x="582" y="0" type="line"/>
      <point x="673" y="0" type="line"/>
      <point x="713" y="689" type="line"/>
    </contour>
  </outline>
</glyph>
<glyph name="O" format="1">
  <advance width="686"/>
  <unicode hex="004F"/>
  <outline>
    <contour>
      <point x="147" y="701"/>
      <point x="61" y="441"/>
      <point x="61" y="265" type="curve" smooth="yes"/>
      <point x="61" y="85"/>
      <point x="158" y="-12"/>
      <point x="308" y="-12" type="curve" smooth="yes"/>
      <point x="562" y="-12"/>
      <point x="648" y="239"/>
      <point x="648" y="421" type="curve" smooth="yes"/>
      <point x="648" y="603"/>
      <point x="552" y="701"/>
      <point x="402" y="701" type="curve" smooth="yes"/>
    </contour>
    <contour>
      <point x="494" y="623"/>
      <point x="550" y="566"/>
      <point x="550" y="438" type="curve" smooth="yes"/>
      <point x="550" y="288"/>
      <point x="500" y="66"/>
      <point x="311" y="66" type="curve" smooth="yes"/>
      <point x="219" y="66"/>
      <point x="159" y="120"/>
      <point x="159" y="255" type="curve" smooth="yes"/>
      <point x="159" y="403"/>
      <point x="211" y="623"/>
      <point x="398" y="623" type="curve" smooth="yes"/>
    </contour>
    <contour>
      <point x="407" y="689" type="move" name="top"/>
    </contour>
    <contour>
      <point x="68" y="534" type="move" name="topleft"/>
    </contour>
  </outline>
</glyph>
<glyph name="P" format="1">
  <advance width="575"/>
  <unicode hex="0050"/>
  <outline>
    <contour>
      <point x="242" y="615" type="line"/>
      <point x="329" y="615" type="line" smooth="yes"/>
      <point x="419" y="615"/>
      <point x="476" y="588"/>
      <point x="476" y="507" type="curve" smooth="yes"/>
      <point x="476" y="418"/>
      <point x="438" y="328"/>
      <point x="282" y="328" type="curve" smooth="yes"/>
      <point x="186" y="328" type="line"/>
      <point x="176" y="253" type="line"/>
      <point x="280" y="253" type="line" smooth="yes"/>
      <point x="500" y="253"/>
      <point x="576" y="379"/>
      <point x="576" y="507" type="curve" smooth="yes"/>
      <point x="576" y="631"/>
      <point x="486" y="689"/>
      <point x="336" y="689" type="curve" smooth="yes"/>
      <point x="159" y="689" type="line"/>
      <point x="62" y="0" type="line"/>
      <point x="156" y="0" type="line"/>
    </contour>
  </outline>
</glyph>
<glyph name="Q" format="1">
  <advance width="683"/>
  <unicode hex="0051"/>
  <outline>
    <contour>
      <point x="308" y="-12" type="line"/>
      <point x="432" y="-12"/>
      <point x="485" y="-33"/>
      <point x="552" y="-103" type="curve"/>
      <point x="622" y="-26" type="line"/>
      <point x="577" y="8"/>
      <point x="522" y="37"/>
      <point x="444" y="37" type="curve"/>
    </contour>
    <contour>
      <point x="147" y="701"/>
      <point x="61" y="441"/>
      <point x="61" y="265" type="curve" smooth="yes"/>
      <point x="61" y="85"/>
      <point x="158" y="-12"/>
      <point x="308" y="-12" type="curve" smooth="yes"/>
      <point x="347" y="-12"/>
      <point x="381" y="-6"/>
      <point x="412" y="4" type="curve"/>
      <point x="434" y="30" type="line"/>
      <point x="593" y="86"/>
      <point x="648" y="275"/>
      <point x="648" y="421" type="curve" smooth="yes"/>
      <point x="648" y="603"/>
      <point x="552" y="701"/>
      <point x="402" y="701" type="curve" smooth="yes"/>
    </contour>
    <contour>
      <point x="494" y="623"/>
      <point x="550" y="566"/>
      <point x="550" y="438" type="curve" smooth="yes"/>
      <point x="550" y="288"/>
      <point x="500" y="66"/>
      <point x="311" y="66" type="curve" smooth="yes"/>
      <point x="219" y="66"/>
      <point x="159" y="120"/>
      <point x="159" y="255" type="curve" smooth="yes"/>
      <point x="159" y="403"/>
      <point x="211" y="623"/>
      <point x="398" y="623" type="curve" smooth="yes"/>
    </contour>
  </outline>
</glyph>
<glyph name="R" format="1">
  <advance width="599"/>
  <unicode hex="0052"/>
  <outline>
    <contour>
      <point x="159" y="689" type="line"/>
      <point x="62" y="0" type="line"/>
      <point x="156" y="0" type="line"/>
      <point x="242" y="615" type="line"/>
      <point x="331" y="615" type="line" smooth="yes"/>
      <point x="429" y="615"/>
      <point x="473" y="590"/>
      <point x="473" y="525" type="curve" smooth="yes"/>
      <point x="473" y="449"/>
      <point x="438" y="365"/>
      <point x="308" y="365" type="curve" smooth="yes"/>
      <point x="192" y="365" type="line"/>
      <point x="182" y="292" type="line"/>
      <point x="312" y="292" type="line"/>
      <point x="509" y="307"/>
      <point x="572" y="418"/>
      <point x="572" y="523" type="curve" smooth="yes"/>
      <point x="572" y="632"/>
      <point x="494" y="689"/>
      <point x="336" y="689" type="curve" smooth="yes"/>
    </contour>
    <contour>
      <point x="300" y="306" type="line"/>
      <point x="433" y="0" type="line"/>
      <point x="537" y="0" type="line"/>
      <point x="393" y="317" type="line"/>
    </contour>
    <contour>
      <point x="356" y="689" type="move" name="top"/>
    </contour>
    <contour>
      <point x="269" y="0" type="move" name="bottom"/>
    </contour>
  </outline>
</glyph>
<glyph name="S" format="1">
  <advance width="539"/>
  <unicode hex="0053"/>
  <outline>
    <contour>
      <point x="156" y="701"/>
      <point x="87" y="586"/>
      <point x="87" y="507" type="curve" smooth="yes"/>
      <point x="87" y="408"/>
      <point x="150" y="360"/>
      <point x="267" y="324" type="curve" smooth="yes"/>
      <point x="362" y="291"/>
      <point x="394" y="264"/>
      <point x="394" y="204" type="curve" smooth="yes"/>
      <point x="394" y="114"/>
      <point x="312" y="66"/>
      <point x="224" y="66" type="curve" smooth="yes"/>
      <point x="151" y="66"/>
      <point x="100" y="91"/>
      <point x="59" y="136" type="curve"/>
      <point x="-1" y="80" type="line"/>
      <point x="48" y="24"/>
      <point x="121" y="-12"/>
      <point x="222" y="-12" type="curve" smooth="yes"/>
      <point x="430" y="-12"/>
      <point x="492" y="123"/>
      <point x="492" y="209" type="curve" smooth="yes"/>
      <point x="492" y="327"/>
      <point x="408" y="368"/>
      <point x="312" y="398" type="curve" smooth="yes"/>
      <point x="211" y="432"/>
      <point x="183" y="459"/>
      <point x="183" y="511" type="curve" smooth="yes"/>
      <point x="183" y="583"/>
      <point x="250" y="623"/>
      <point x="325" y="623" type="curve" smooth="yes"/>
      <point x="379" y="623"/>
      <point x="424" y="607"/>
      <point x="468" y="563" type="curve"/>
      <point x="527" y="618" type="line"/>
      <point x="476" y="671"/>
      <point x="414" y="701"/>
      <point x="323" y="701" type="curve" smooth="yes"/>
    </contour>
    <contour>
      <point x="333" y="689" type="move" name="top"/>
    </contour>
    <contour>
      <point x="227" y="0" type="move" name="bottom"/>
    </contour>
  </outline>
</glyph>
<glyph name="T" format="1">
  <advance width="511"/>
  <unicode hex="0054"/>
  <outline>
    <contour>
      <point x="74" y="689" type="line"/>
      <point x="62" y="608" type="line"/>
      <point x="256" y="608" type="line"/>
      <point x="171" y="0" type="line"/>
      <point x="266" y="0" type="line"/>
      <point x="351" y="608" type="line"/>
      <point x="540" y="608" type="line"/>
      <point x="562" y="689" type="line"/>
    </contour>
    <contour>
      <point x="219" y="0" type="move" name="bottom"/>
    </contour>
    <contour>
      <point x="316" y="689" type="move" name="top"/>
    </contour>
    <contour>
      <point x="275" y="0" type="move" name="bottomright"/>
    </contour>
    <contour>
      <point x="267" y="345" type="move" name="center"/>
    </contour>
  </outline>
</glyph>
<glyph name="U" format="1">
  <advance width="656"/>
  <unicode hex="0055"/>
  <outline>
    <contour>
      <point x="532" y="689" type="line"/>
      <point x="467" y="231" type="line" smooth="yes"/>
      <point x="452" y="124"/>
      <point x="396" y="68"/>
      <point x="296" y="68" type="curve" smooth="yes"/>
      <point x="201" y="68"/>
      <point x="163" y="118"/>
      <point x="178" y="225" type="curve" smooth="yes"/>
      <point x="243" y="689" type="line"/>
      <point x="149" y="689" type="line"/>
      <point x="83" y="224" type="line" smooth="yes"/>
      <point x="64" y="87"/>
      <point x="135" y="-12"/>
      <point x="292" y="-12" type="curve" smooth="yes"/>
      <point x="444" y="-12"/>
      <point x="541" y="81"/>
      <point x="561" y="218" type="curve" smooth="yes"/>
      <point x="627" y="689" type="line"/>
    </contour>
    <contour>
      <point x="387" y="0" type="move" name="ogonek"/>
    </contour>
    <contour>
      <point x="388" y="689" type="move" name="top"/>
    </contour>
  </outline>
</glyph>
<glyph name="V" format="1">
  <advance width="550"/>
  <unicode hex="0056"/>
  <outline>
    <contour>
      <point x="506" y="689" type="line"/>
      <point x="251" y="103" type="line"/>
      <point x="163" y="689" type="line"/>
      <point x="65" y="689" type="line"/>
      <point x="188" y="0" type="line"/>
      <point x="289" y="0" type="line"/>
      <point x="604" y="689" type="line"/>
    </contour>
  </outline>
</glyph>
<glyph name="X" format="1">
  <advance width="534"/>
  <unicode hex="0058"/>
  <outline>
    <contour>
      <point x="83" y="689" type="line"/>
      <point x="226" y="367" type="line"/>
      <point x="276" y="305" type="line"/>
      <point x="389" y="0" type="line"/>
      <point x="492" y="0" type="line"/>
      <point x="335" y="372" type="line"/>
      <point x="285" y="430" type="line"/>
      <point x="186" y="689" type="line"/>
    </contour>
    <contour>
      <point x="463" y="689" type="line"/>
      <point x="285" y="430" type="line"/>
      <point x="223" y="367" type="line"/>
      <point x="-33" y="0" type="line"/>
      <point x="72" y="0" type="line"/>
      <point x="276" y="305" type="line"/>
      <point x="338" y="372" type="line"/>
      <point x="567" y="689" type="line"/>
    </contour>
    <contour>
      <point x="444" y="0" type="move" name="bottomright"/>
    </contour>
  </outline>
</glyph>
<glyph name="Y" format="1">
  <advance width="544"/>
  <unicode hex="0059"/>
  <outline>
    <contour>
      <point x="497" y="689" type="line"/>
      <point x="282" y="348" type="line"/>
      <point x="164" y="689" type="line"/>
      <point x="65" y="689" type="line"/>
      <point x="225" y="264" type="line"/>
      <point x="187" y="0" type="line"/>
      <point x="283" y="0" type="line"/>
      <point x="320" y="265" type="line"/>
      <point x="600" y="689" type="line"/>
    </contour>
    <contour>
      <point x="335" y="689" type="move" name="top"/>
    </contour>
    <contour>
      <point x="-32" y="534" type="move" name="topleft"/>
    </contour>
  </outline>
</glyph>
<glyph name="Z" format="1">
  <advance width="516"/>
  <unicode hex="005A"/>
  <outline>
    <contour>
      <point x="125" y="689" type="line"/>
      <point x="114" y="609" type="line"/>
      <point x="416" y="609" type="line"/>
      <point x="2" y="76" type="line"/>
      <point x="-8" y="0" type="line"/>
      <point x="424" y="0" type="line"/>
      <point x="446" y="81" type="line"/>
      <point x="111" y="80" type="line"/>
      <point x="522" y="612" type="line"/>
      <point x="532" y="689" type="line"/>
    </contour>
    <contour>
      <point x="329" y="689" type="move" name="top"/>
    </contour>
  </outline>
</glyph>
<glyph name="backslash" format="1">
  <advance width="514"/>
  <unicode hex="005C"/>
  <outline>
    <contour>
      <point x="179" y="789" type="line"/>
      <point x="282" y="-104" type="line"/>
      <point x="360" y="-87" type="line"/>
      <point x="255" y="805" type="line"/>
    </contour>
  </outline>
</glyph>
<glyph name="bracketright" format="1">
  <advance width="317"/>
  <unicode hex="005D"/>
  <outline>
    <contour>
      <point x="126" y="816" type="line"/>
      <point x="115" y="739" type="line"/>
      <point x="234" y="739" type="line"/>
      <point x="124" y="-40" type="line"/>
      <point x="5" y="-40" type="line"/>
      <point x="-5" y="-116" type="line"/>
      <point x="200" y="-116" type="line"/>
      <point x="331" y="816" type="line"/>
    </contour>
  </outline>
</glyph>
<glyph name="underscore" format="1">
  <advance width="514"/>
  <unicode hex="005F"/>
  <outline>
    <contour>
      <point x="441" y="-142" type="line"/>
      <point x="452" y="-63" type="line"/>
      <point x="-30" y="-63" type="line"/>
      <point x="-41" y="-142" type="line"/>
    </contour>
  </outline>
</glyph>
<glyph name="grave" format="1">
  <advance width="294"/>
  <unicode hex="0060"/>
  <outline>
    <contour>
      <point x="93" y="724" type="line"/>
      <point x="292" y="638" type="line"/>
      <point x="325" y="687" type="line"/>
      <point x="144" y="801" type="line"/>
    </contour>
    <contour>
      <point x="174" y="527" type="move" name="_top"/>
    </contour>
  </outline>
</glyph>
<glyph name="a" format="1">
  <advance width="569"/>
  <unicode hex="0061"/>
  <outline>
    <contour>
      <point x="126" y="539"/>
      <point x="50" y="334"/>
      <point x="50" y="190" type="curve" smooth="yes"/>
      <point x="50" y="69"/>
      <point x="108" y="-12"/>
      <point x="218" y="-12" type="curve" smooth="yes"/>
      <point x="280" y="-12"/>
      <point x="334" y="23"/>
      <point x="375" y="76" type="curve"/>
      <point x="382" y="19"/>
      <point x="415" y="-5"/>
      <point x="468" y="-12" type="curve"/>
      <point x="494" y="51" type="line"/>
      <point x="473" y="59"/>
      <point x="460" y="70"/>
      <point x="460" y="99" type="curve" smooth="yes"/>
      <point x="460" y="105"/>
      <point x="461" y="112"/>
      <point x="462" y="120" type="curve" smooth="yes"/>
      <point x="519" y="494" type="line"/>
      <point x="449" y="528"/>
      <point x="394" y="539"/>
      <point x="331" y="539" type="curve" smooth="yes"/>
    </contour>
    <contour>
      <point x="370" y="466"/>
      <point x="392" y="462"/>
      <point x="422" y="449" type="curve"/>
      <point x="378" y="158" type="line"/>
      <point x="337" y="103"/>
      <point x="296" y="61"/>
      <point x="240" y="61" type="curve" smooth="yes"/>
      <point x="181" y="61"/>
      <point x="148" y="101"/>
      <point x="148" y="189" type="curve" smooth="yes"/>
      <point x="148" y="307"/>
      <point x="199" y="466"/>
      <point x="333" y="466" type="curve" smooth="yes"/>
    </contour>
    <contour>
      <point x="476" y="-12" type="move" name="ogonek"/>
    </contour>
    <contour>
      <point x="333" y="527" type="move" name="top"/>
    </contour>
  </outline>
</glyph>
<glyph name="b" format="1">
  <advance width="578.968"/>
  <unicode hex="0062"/>
  <outline>
    <contour>
      <point x="161" y="739" type="line"/>
      <point x="59.9999" y="23" type="line"/>
      <point x="136" y="-2"/>
      <point x="186" y="-12"/>
      <point x="246" y="-12" type="curve" smooth="yes"/>
      <point x="454" y="-12"/>
      <point x="528" y="184"/>
      <point x="528" y="332" type="curve" smooth="yes"/>
      <point x="528" y="465"/>
      <point x="468" y="539"/>
      <point x="368" y="539" type="curve" smooth="yes"/>
      <point x="310.267" y="539"/>
      <point x="261.904" y="515.933"/>
      <point x="214.956" y="474.696" type="curve"/>
      <point x="253" y="750" type="line"/>
    </contour>
    <contour>
      <point x="394" y="466"/>
      <point x="433" y="433"/>
      <point x="433" y="339" type="curve" smooth="yes"/>
      <point x="433" y="221"/>
      <point x="384" y="61"/>
      <point x="253" y="61" type="curve" smooth="yes"/>
      <point x="216" y="61"/>
      <point x="193" y="65"/>
      <point x="160" y="77" type="curve"/>
      <point x="203.315" y="390.455" type="line"/>
      <point x="241.225" y="429.53"/>
      <point x="284.034" y="466"/>
      <point x="339" y="466" type="curve" smooth="yes"/>
    </contour>
  </outline>
</glyph>
<glyph name="c" format="1">
  <advance width="472"/>
  <unicode hex="0063"/>
  <outline>
    <contour>
      <point x="124" y="539"/>
      <point x="52" y="341"/>
      <point x="52" y="203" type="curve" smooth="yes"/>
      <point x="52" y="68"/>
      <point x="124" y="-12"/>
      <point x="249" y="-12" type="curve" smooth="yes"/>
      <point x="307" y="-12"/>
      <point x="362" y="6"/>
      <point x="414" y="43" type="curve"/>
      <point x="377" y="107" type="line"/>
      <point x="335" y="81"/>
      <point x="301" y="66"/>
      <point x="255" y="66" type="curve" smooth="yes"/>
      <point x="188" y="66"/>
      <point x="148" y="104"/>
      <point x="148" y="196" type="curve" smooth="yes"/>
      <point x="148" y="305"/>
      <point x="187" y="463"/>
      <point x="320" y="463" type="curve" smooth="yes"/>
      <point x="361" y="463"/>
      <point x="391" y="452"/>
      <point x="423" y="424" type="curve"/>
      <point x="472" y="481" type="line"/>
      <point x="429" y="522"/>
      <point x="378" y="539"/>
      <point x="319" y="539" type="curve" smooth="yes"/>
    </contour>
    <contour>
      <point x="323" y="527" type="move" name="top"/>
    </contour>
    <contour>
      <point x="244" y="0" type="move" name="bottom"/>
    </contour>
  </outline>
</glyph>
<glyph name="d" format="1">
  <advance width="593"/>
  <unicode hex="0064"/>
  <outline>
    <contour>
      <point x="437" y="473" type="line"/>
      <point x="408" y="510"/>
      <point x="364" y="539"/>
      <point x="302" y="539" type="curve" smooth="yes"/>
      <point x="122" y="539"/>
      <point x="57" y="333"/>
      <point x="57" y="197" type="curve" smooth="yes"/>
      <point x="57" y="70"/>
      <point x="115" y="-12"/>
      <point x="224" y="-12" type="curve" smooth="yes"/>
      <point x="292" y="-12"/>
      <point x="346" y="26"/>
      <point x="383" y="87" type="curve"/>
      <point x="382" y="0" type="line"/>
      <point x="462" y="0" type="line"/>
      <point x="566" y="739" type="line"/>
      <point x="476" y="750" type="line"/>
    </contour>
    <contour>
      <point x="368" y="466"/>
      <point x="401" y="443"/>
      <point x="427" y="402" type="curve"/>
      <point x="396" y="183" type="line"/>
      <point x="350" y="109"/>
      <point x="307" y="61"/>
      <point x="242" y="61" type="curve" smooth="yes"/>
      <point x="187" y="61"/>
      <point x="154" y="101"/>
      <point x="154" y="190" type="curve" smooth="yes"/>
      <point x="154" y="295"/>
      <point x="191" y="466"/>
      <point x="319" y="466" type="curve" smooth="yes"/>
    </contour>
    <contour>
      <point x="301" y="264" type="move" name="center"/>
    </contour>
    <contour>
      <point x="586" y="739" type="move" name="topright"/>
    </contour>
  </outline>
</glyph>
<glyph name="e" format="1">
  <advance width="523"/>
  <unicode hex="0065"/>
  <outline>
    <contour>
      <point x="123" y="539"/>
      <point x="52" y="346"/>
      <point x="52" y="202" type="curve" smooth="yes"/>
      <point x="52" y="69"/>
      <point x="124" y="-12"/>
      <point x="253" y="-12" type="curve" smooth="yes"/>
      <point x="323" y="-12"/>
      <point x="385" y="11"/>
      <point x="442" y="52" type="curve"/>
      <point x="403" y="114" type="line"/>
      <point x="355" y="80"/>
      <point x="311" y="65"/>
      <point x="262" y="65" type="curve" smooth="yes"/>
      <point x="194" y="65"/>
      <point x="148" y="101"/>
      <point x="148" y="202" type="curve" smooth="yes"/>
      <point x="148" y="307"/>
      <point x="186" y="466"/>
      <point x="322" y="466" type="curve" smooth="yes"/>
      <point x="379" y="466"/>
      <point x="394" y="427"/>
      <point x="394" y="402" type="curve" smooth="yes"/>
      <point x="394" y="310"/>
      <point x="300" y="282"/>
      <point x="143" y="265" type="curve"/>
      <point x="134" y="195" type="line"/>
      <point x="324" y="214"/>
      <point x="490" y="253"/>
      <point x="490" y="405" type="curve" smooth="yes"/>
      <point x="490" y="475"/>
      <point x="435" y="539"/>
      <point x="323" y="539" type="curve" smooth="yes"/>
    </contour>
    <contour>
      <point x="360" y="6" type="move" name="ogonek"/>
    </contour>
    <contour>
      <point x="254" y="0" type="move" name="bottom"/>
    </contour>
    <contour>
      <point x="314" y="527" type="move" name="top"/>
    </contour>
  </outline>
</glyph>
<glyph name="f" format="1">
  <advance width="329"/>
  <unicode hex="0066"/>
  <outline>
    <contour>
      <point x="225" y="750"/>
      <point x="162" y="690"/>
      <point x="150" y="602" type="curve" smooth="yes"/>
      <point x="69" y="29" type="line" smooth="yes"/>
      <point x="53" y="-84"/>
      <point x="9" y="-112"/>
      <point x="-63" y="-144" type="curve"/>
      <point x="-37" y="-213" type="line"/>
      <point x="80" y="-163"/>
      <point x="139" y="-120"/>
      <point x="160" y="29" type="curve" smooth="yes"/>
      <point x="240" y="597" type="line" smooth="yes"/>
      <point x="247" y="648"/>
      <point x="273" y="676"/>
      <point x="332" y="676" type="curve" smooth="yes"/>
      <point x="357" y="676"/>
      <point x="387" y="672"/>
      <point x="418" y="651" type="curve"/>
      <point x="453" y="712" type="line"/>
      <point x="414" y="736"/>
      <point x="380" y="750"/>
      <point x="329" y="750" type="curve" smooth="yes"/>
    </contour>
    <contour>
      <point x="46" y="527" type="line"/>
      <point x="36" y="456" type="line"/>
      <point x="337" y="456" type="line"/>
      <point x="357" y="527" type="line"/>
    </contour>
  </outline>
</glyph>
<glyph name="g" format="1">
  <advance width="576"/>
  <unicode hex="0067"/>
  <outline>
    <contour>
      <point x="127" y="539"/>
      <point x="48" y="355"/>
      <point x="48" y="198" type="curve" smooth="yes"/>
      <point x="48" y="78"/>
      <point x="109" y="0"/>
      <point x="219" y="0" type="curve" smooth="yes"/>
      <point x="275" y="0"/>
      <point x="328" y="33"/>
      <point x="367" y="80" type="curve"/>
      <point x="358" y="13" type="line" smooth="yes"/>
      <point x="340" y="-116"/>
      <point x="271" y="-137"/>
      <point x="201" y="-137" type="curve" smooth="yes"/>
      <point x="146" y="-137"/>
      <point x="91" y="-114"/>
      <point x="59" y="-95" type="curve"/>
      <point x="24" y="-165" type="line"/>
      <point x="74" y="-196"/>
      <point x="143" y="-216"/>
      <point x="206" y="-216" type="curve" smooth="yes"/>
      <point x="330" y="-216"/>
      <point x="422" y="-158"/>
      <point x="447" y="12" type="curve" smooth="yes"/>
      <point x="520" y="494" type="line"/>
      <point x="450" y="528"/>
      <point x="395" y="539"/>
      <point x="332" y="539" type="curve" smooth="yes"/>
    </contour>
    <contour>
      <point x="371" y="466"/>
      <point x="393" y="462"/>
      <point x="423" y="449" type="curve"/>
      <point x="380" y="172" type="line"/>
      <point x="339" y="117"/>
      <point x="294" y="73"/>
      <point x="236" y="73" type="curve" smooth="yes"/>
      <point x="182" y="73"/>
      <point x="146" y="110"/>
      <point x="146" y="197" type="curve" smooth="yes"/>
      <point x="146" y="325"/>
      <point x="200" y="466"/>
      <point x="334" y="466" type="curve" smooth="yes"/>
    </contour>
    <contour>
      <point x="327" y="527" type="move" name="top"/>
    </contour>
  </outline>
</glyph>
<glyph name="h" format="1">
  <advance width="580"/>
  <unicode hex="0068"/>
  <outline>
    <contour>
      <point x="314" y="539"/>
      <point x="251" y="494"/>
      <point x="207" y="428" type="curve"/>
      <point x="253" y="748" type="line"/>
      <point x="161" y="738" type="line"/>
      <point x="57" y="0" type="line"/>
      <point x="148" y="0" type="line"/>
      <point x="191" y="316" type="line"/>
      <point x="233" y="391"/>
      <point x="292" y="462"/>
      <point x="350" y="462" type="curve" smooth="yes"/>
      <point x="397" y="462"/>
      <point x="426" y="447"/>
      <point x="415" y="368" type="curve" smooth="yes"/>
      <point x="363" y="0" type="line"/>
      <point x="454" y="0" type="line"/>
      <point x="507" y="375" type="line" smooth="yes"/>
      <point x="521" y="475"/>
      <point x="473" y="539"/>
      <point x="384" y="539" type="curve" smooth="yes"/>
    </contour>
    <contour>
      <point x="289" y="264" type="move" name="center"/>
    </contour>
    <contour>
      <point x="253" y="0" type="move" name="bottom"/>
    </contour>
    <contour>
      <point x="356" y="739" type="move" name="top"/>
    </contour>
  </outline>
</glyph>
<glyph name="k" format="1">
  <advance width="545"/>
  <unicode hex="006B"/>
  <outline>
    <contour>
      <point x="161" y="739" type="line"/>
      <point x="57" y="0" type="line"/>
      <point x="148" y="0" type="line"/>
      <point x="192" y="316" type="line"/>
      <point x="237" y="419"/>
      <point x="307" y="466"/>
      <point x="362" y="466" type="curve" smooth="yes"/>
      <point x="398" y="466"/>
      <point x="420" y="446"/>
      <point x="420" y="409" type="curve" smooth="yes"/>
      <point x="420" y="336"/>
      <point x="369" y="292"/>
      <point x="245" y="257" type="curve"/>
      <point x="371" y="0" type="line"/>
      <point x="473" y="0" type="line"/>
      <point x="354" y="233" type="line"/>
      <point x="464" y="268"/>
      <point x="517" y="336"/>
      <point x="517" y="423" type="curve" smooth="yes"/>
      <point x="517" y="489"/>
      <point x="462" y="539"/>
      <point x="389" y="539" type="curve" smooth="yes"/>
      <point x="324" y="539"/>
      <point x="259" y="506"/>
      <point x="209" y="435" type="curve"/>
      <point x="253" y="750" type="line"/>
    </contour>
    <contour>
      <point x="252" y="0" type="move" name="bottom"/>
    </contour>
  </outline>
</glyph>
<glyph name="l" format="1">
  <advance width="288"/>
  <unicode hex="006C"/>
  <outline>
    <contour>
      <point x="156" y="739" type="line"/>
      <point x="68" y="118" type="line" smooth="yes"/>
      <point x="56" y="31"/>
      <point x="93" y="-12"/>
      <point x="163" y="-12" type="curve" smooth="yes"/>
      <point x="186" y="-12"/>
      <point x="209" y="-7"/>
      <point x="236" y="5" type="curve"/>
      <point x="217" y="72" type="line"/>
      <point x="205" y="67"/>
      <point x="193" y="64"/>
      <point x="181" y="64" type="curve" smooth="yes"/>
      <point x="159" y="64"/>
      <point x="154" y="75"/>
      <point x="157" y="103" type="curve" smooth="yes"/>
      <point x="248" y="750" type="line"/>
    </contour>
    <contour>
      <point x="118" y="0" type="move" name="bottom"/>
    </contour>
    <contour>
      <point x="201" y="739" type="move" name="top"/>
    </contour>
    <contour>
      <point x="272" y="739" type="move" name="topright"/>
    </contour>
    <contour>
      <point x="310" y="380" type="move" name="center"/>
    </contour>
  </outline>
</glyph>
<glyph name="m" format="1">
  <advance width="848"/>
  <unicode hex="006D"/>
  <outline>
    <contour>
      <point x="303" y="539"/>
      <point x="249" y="494"/>
      <point x="201" y="426" type="curve"/>
      <point x="209" y="527" type="line"/>
      <point x="131" y="527" type="line"/>
      <point x="57" y="0" type="line"/>
      <point x="148" y="0" type="line"/>
      <point x="191" y="316" type="line"/>
      <point x="233" y="391"/>
      <point x="284" y="462"/>
      <point x="340" y="462" type="curve" smooth="yes"/>
      <point x="377" y="462"/>
      <point x="406" y="447"/>
      <point x="395" y="368" type="curve" smooth="yes"/>
      <point x="343" y="0" type="line"/>
      <point x="434" y="0" type="line"/>
      <point x="487" y="372" type="line" smooth="yes"/>
      <point x="503" y="481"/>
      <point x="444" y="539"/>
      <point x="373" y="539" type="curve" smooth="yes"/>
    </contour>
    <contour>
      <point x="590" y="539"/>
      <point x="531" y="495"/>
      <point x="476" y="415" type="curve"/>
      <point x="470" y="301" type="line"/>
      <point x="514" y="381"/>
      <point x="568" y="462"/>
      <point x="628" y="462" type="curve" smooth="yes"/>
      <point x="665" y="462"/>
      <point x="694" y="447"/>
      <point x="683" y="368" type="curve" smooth="yes"/>
      <point x="631" y="0" type="line"/>
      <point x="722" y="0" type="line"/>
      <point x="775" y="375" type="line" smooth="yes"/>
      <point x="789" y="475"/>
      <point x="740" y="539"/>
      <point x="661" y="539" type="curve" smooth="yes"/>
    </contour>
  </outline>
</glyph>
<glyph name="n" format="1">
  <advance width="580"/>
  <unicode hex="006E"/>
  <outline>
    <contour>
      <point x="314" y="539"/>
      <point x="250" y="493"/>
      <point x="201" y="424" type="curve"/>
      <point x="209" y="527" type="line"/>
      <point x="131" y="527" type="line"/>
      <point x="57" y="0" type="line"/>
      <point x="148" y="0" type="line"/>
      <point x="191" y="316" type="line"/>
      <point x="233" y="391"/>
      <point x="292" y="462"/>
      <point x="350" y="462" type="curve" smooth="yes"/>
      <point x="397" y="462"/>
      <point x="426" y="447"/>
      <point x="415" y="368" type="curve" smooth="yes"/>
      <point x="363" y="0" type="line"/>
      <point x="454" y="0" type="line"/>
      <point x="507" y="375" type="line" smooth="yes"/>
      <point x="521" y="475"/>
      <point x="473" y="539"/>
      <point x="384" y="539" type="curve" smooth="yes"/>
    </contour>
    <contour>
      <point x="332" y="527" type="move" name="top"/>
    </contour>
    <contour>
      <point x="253" y="0" type="move" name="bottom"/>
    </contour>
    <contour>
      <point x="121" y="527" type="move" name="topleft"/>
    </contour>
  </outline>
</glyph>
<glyph name="o" format="1">
  <advance width="578"/>
  <unicode hex="006F"/>
  <outline>
    <contour>
      <point x="119" y="539"/>
      <point x="52" y="336"/>
      <point x="52" y="206" type="curve" smooth="yes"/>
      <point x="52" y="72"/>
      <point x="123" y="-12"/>
      <point x="254" y="-12" type="curve" smooth="yes"/>
      <point x="461" y="-12"/>
      <point x="526" y="194"/>
      <point x="526" y="321" type="curve" smooth="yes"/>
      <point x="526" y="455"/>
      <point x="456" y="539"/>
      <point x="325" y="539" type="curve" smooth="yes"/>
    </contour>
    <contour>
      <point x="392" y="465"/>
      <point x="430" y="423"/>
      <point x="430" y="331" type="curve" smooth="yes"/>
      <point x="430" y="230"/>
      <point x="394" y="62"/>
      <point x="257" y="62" type="curve" smooth="yes"/>
      <point x="186" y="62"/>
      <point x="148" y="104"/>
      <point x="148" y="196" type="curve" smooth="yes"/>
      <point x="148" y="297"/>
      <point x="185" y="465"/>
      <point x="322" y="465" type="curve" smooth="yes"/>
    </contour>
    <contour>
      <point x="326" y="527" type="move" name="top"/>
    </contour>
  </outline>
</glyph>
<glyph name="p" format="1">
  <advance width="588"/>
  <unicode hex="0070"/>
  <outline>
    <contour>
      <point x="313" y="539"/>
      <point x="263" y="522"/>
      <point x="207" y="460" type="curve"/>
      <point x="209" y="527" type="line"/>
      <point x="131" y="527" type="line"/>
      <point x="27" y="-216" type="line"/>
      <point x="120" y="-204" type="line"/>
      <point x="148" y="5" type="line"/>
      <point x="181" y="-6"/>
      <point x="212" y="-12"/>
      <point x="248" y="-12" type="curve" smooth="yes"/>
      <point x="454" y="-12"/>
      <point x="528" y="184"/>
      <point x="528" y="332" type="curve" smooth="yes"/>
      <point x="528" y="465"/>
      <point x="468" y="539"/>
      <point x="368" y="539" type="curve" smooth="yes"/>
    </contour>
    <contour>
      <point x="394" y="466"/>
      <point x="433" y="433"/>
      <point x="433" y="339" type="curve" smooth="yes"/>
      <point x="433" y="221"/>
      <point x="384" y="61"/>
      <point x="253" y="61" type="curve" smooth="yes"/>
      <point x="216" y="61"/>
      <point x="193" y="65"/>
      <point x="160" y="77" type="curve"/>
      <point x="203" y="390" type="line"/>
      <point x="241" y="430"/>
      <point x="284" y="466"/>
      <point x="339" y="466" type="curve" smooth="yes"/>
    </contour>
  </outline>
</glyph>
<glyph name="r" format="1">
  <advance width="381"/>
  <unicode hex="0072"/>
  <outline>
    <contour>
      <point x="298" y="539"/>
      <point x="243" y="501"/>
      <point x="203" y="419" type="curve"/>
      <point x="209" y="527" type="line"/>
      <point x="131" y="527" type="line"/>
      <point x="57" y="0" type="line"/>
      <point x="148" y="0" type="line"/>
      <point x="188" y="279" type="line"/>
      <point x="225" y="386"/>
      <point x="271" y="448"/>
      <point x="339" y="448" type="curve" smooth="yes"/>
      <point x="356" y="448"/>
      <point x="367" y="447"/>
      <point x="382" y="443" type="curve"/>
      <point x="409" y="532" type="line"/>
      <point x="393" y="536"/>
      <point x="375" y="539"/>
      <point x="356" y="539" type="curve" smooth="yes"/>
    </contour>
    <contour>
      <point x="273" y="527" type="move" name="top"/>
    </contour>
    <contour>
      <point x="103" y="0" type="move" name="bottom"/>
    </contour>
  </outline>
</glyph>
<glyph name="s" format="1">
  <advance width="461"/>
  <unicode hex="0073"/>
  <outline>
    <contour>
      <point x="126" y="539"/>
      <point x="64" y="459"/>
      <point x="64" y="390" type="curve" smooth="yes"/>
      <point x="64" y="318"/>
      <point x="107" y="278"/>
      <point x="205" y="245" type="curve" smooth="yes"/>
      <point x="288" y="217"/>
      <point x="316" y="201"/>
      <point x="316" y="148" type="curve" smooth="yes"/>
      <point x="316" y="116"/>
      <point x="291" y="62"/>
      <point x="197" y="62" type="curve" smooth="yes"/>
      <point x="141" y="62"/>
      <point x="89" y="84"/>
      <point x="54" y="121" type="curve"/>
      <point x="-2" y="64" type="line"/>
      <point x="39" y="24"/>
      <point x="101" y="-12"/>
      <point x="193" y="-12" type="curve" smooth="yes"/>
      <point x="303" y="-12"/>
      <point x="412" y="40"/>
      <point x="412" y="155" type="curve" smooth="yes"/>
      <point x="412" y="242"/>
      <point x="362" y="285"/>
      <point x="263" y="315" type="curve" smooth="yes"/>
      <point x="192" y="336"/>
      <point x="157" y="353"/>
      <point x="157" y="395" type="curve" smooth="yes"/>
      <point x="157" y="439"/>
      <point x="198" y="466"/>
      <point x="266" y="466" type="curve" smooth="yes"/>
      <point x="308" y="466"/>
      <point x="355" y="450"/>
      <point x="391" y="416" type="curve"/>
      <point x="436" y="474" type="line"/>
      <point x="391" y="514"/>
      <point x="336" y="539"/>
      <point x="266" y="539" type="curve" smooth="yes"/>
    </contour>
    <contour>
      <point x="275" y="527" type="move" name="top"/>
    </contour>
    <contour>
      <point x="195" y="0" type="move" name="bottom"/>
    </contour>
  </outline>
</glyph>
<glyph name="u" format="1">
  <advance width="576"/>
  <unicode hex="0075"/>
  <outline>
    <contour>
      <point x="428" y="527" type="line"/>
      <point x="380" y="184" type="line"/>
      <point x="339" y="123"/>
      <point x="286" y="60"/>
      <point x="220" y="60" type="curve" smooth="yes"/>
      <point x="173" y="60"/>
      <point x="155" y="84"/>
      <point x="165" y="156" type="curve" smooth="yes"/>
      <point x="217" y="527" type="line"/>
      <point x="126" y="527" type="line"/>
      <point x="73" y="152" type="line" smooth="yes"/>
      <point x="59" y="49"/>
      <point x="106" y="-12"/>
      <point x="200" y="-12" type="curve" smooth="yes"/>
      <point x="273" y="-12"/>
      <point x="325" y="30"/>
      <point x="374" y="97" type="curve"/>
      <point x="367" y="0" type="line"/>
      <point x="445" y="0" type="line"/>
      <point x="519" y="527" type="line"/>
    </contour>
    <contour>
      <point x="454" y="0" type="move" name="ogonek"/>
    </contour>
    <contour>
      <point x="325" y="527" type="move" name="top"/>
    </contour>
  </outline>
</glyph>
<glyph name="y" format="1">
  <advance width="486"/>
  <unicode hex="0079"/>
  <outline>
    <contour>
      <point x="419" y="527" type="line"/>
      <point x="217" y="70" type="line"/>
      <point x="143" y="527" type="line"/>
      <point x="47" y="527" type="line"/>
      <point x="148" y="0" type="line"/>
      <point x="178" y="2" type="line"/>
      <point x="137" y="-80"/>
      <point x="100" y="-123"/>
      <point x="-9" y="-141" type="curve"/>
      <point x="-5" y="-213" type="line"/>
      <point x="141" y="-197"/>
      <point x="219" y="-117"/>
      <point x="270" y="-5" type="curve" smooth="yes"/>
      <point x="514" y="527" type="line"/>
    </contour>
    <contour>
      <point x="280" y="527" type="move" name="top"/>
    </contour>
  </outline>
</glyph>
<glyph name="z" format="1">
  <advance width="431"/>
  <unicode hex="007A"/>
  <outline>
    <contour>
      <point x="84" y="527" type="line"/>
      <point x="73" y="449" type="line"/>
      <point x="313" y="449" type="line"/>
      <point x="-4" y="69" type="line"/>
      <point x="-13" y="0" type="line"/>
      <point x="355" y="0" type="line"/>
      <point x="376" y="77" type="line"/>
      <point x="109" y="77" type="line"/>
      <point x="427" y="457" type="line"/>
      <point x="436" y="527" type="line"/>
    </contour>
    <contour>
      <point x="253" y="527" type="move" name="top"/>
    </contour>
  </outline>
</glyph>
<glyph name="bar" format="1">
  <advance width="397"/>
  <unicode hex="007C"/>
  <outline>
    <contour>
      <point x="233" y="807" type="line"/>
      <point x="106" y="-102" type="line"/>
      <point x="189" y="-102" type="line"/>
      <point x="316" y="807" type="line"/>
    </contour>
  </outline>
</glyph>
<glyph name="braceright" format="1">
  <advance width="316"/>
  <unicode hex="007D"/>
  <outline>
    <contour>
      <point x="123" y="-136"/>
      <point x="172" y="-95"/>
      <point x="187" y="10" type="curve" smooth="yes"/>
      <point x="218" y="232" type="line" smooth="yes"/>
      <point x="226" y="287"/>
      <point x="249" y="313"/>
      <point x="302" y="313" type="curve"/>
      <point x="313" y="389" type="line"/>
      <point x="255" y="389"/>
      <point x="243" y="407"/>
      <point x="251" y="462" type="curve" smooth="yes"/>
      <point x="282" y="684" type="line" smooth="yes"/>
      <point x="297" y="789"/>
      <point x="240" y="836"/>
      <point x="121" y="836" type="curve"/>
      <point x="115" y="765" type="line"/>
      <point x="182" y="765"/>
      <point x="205" y="750"/>
      <point x="198" y="700" type="curve" smooth="yes"/>
      <point x="164" y="461" type="line" smooth="yes"/>
      <point x="154" y="388"/>
      <point x="181" y="368"/>
      <point x="224" y="353" type="curve"/>
      <point x="173" y="336"/>
      <point x="144" y="318"/>
      <point x="134" y="245" type="curve" smooth="yes"/>
      <point x="100" y="6" type="line" smooth="yes"/>
      <point x="93" y="-44"/>
      <point x="62" y="-65"/>
      <point x="-5" y="-65" type="curve"/>
      <point x="-11" y="-136" type="line"/>
    </contour>
  </outline>
</glyph>
<glyph name="asciitilde" format="1">
  <advance width="482"/>
  <unicode hex="007E"/>
  <outline>
    <contour>
      <point x="110" y="384"/>
      <point x="63" y="330"/>
      <point x="37" y="289" type="curve"/>
      <point x="95" y="254" type="line"/>
      <point x="114" y="282"/>
      <point x="137" y="312"/>
      <point x="175" y="312" type="curve" smooth="yes"/>
      <point x="211" y="312"/>
      <point x="236" y="250"/>
      <point x="317" y="250" type="curve" smooth="yes"/>
      <point x="388" y="250"/>
      <point x="433" y="298"/>
      <point x="460" y="339" type="curve"/>
      <point x="402" y="375" type="line"/>
      <point x="383" y="347"/>
      <point x="360" y="323"/>
      <point x="325" y="323" type="curve" smooth="yes"/>
      <point x="286" y="323"/>
      <point x="261" y="384"/>
      <point x="183" y="384" type="curve" smooth="yes"/>
    </contour>
  </outline>
</glyph>
<glyph name="exclamdown" format="1">
  <advance width="235"/>
  <unicode hex="00A1"/>
  <outline>
    <contour>
      <point x="79" y="247" type="line"/>
      <point x="6" y="-202" type="line"/>
      <point x="107" y="-202" type="line"/>
      <point x="160" y="247" type="line"/>
    </contour>
    <component base="period" xOffset="52" yOffset="368"/>
  </outline>
</glyph>
<glyph name="cent" format="1">
  <advance width="472"/>
  <unicode hex="00A2"/>
  <outline>
    <contour>
      <point x="292" y="684" type="line"/>
      <point x="271" y="533" type="line"/>
      <point x="349" y="534" type="line"/>
      <point x="370" y="684" type="line"/>
    </contour>
    <contour>
      <point x="173" y="-154" type="line"/>
      <point x="252" y="-154" type="line"/>
      <point x="273" y="-7" type="line"/>
      <point x="194" y="-6" type="line"/>
    </contour>
    <component base="c"/>
  </outline>
</glyph>
<glyph name="yen" format="1">
  <advance width="530"/>
  <unicode hex="00A5"/>
  <outline>
    <contour>
      <point x="486" y="669" type="line"/>
      <point x="282" y="374" type="line"/>
      <point x="162" y="669" type="line"/>
      <point x="62" y="669" type="line"/>
      <point x="225" y="303" type="line"/>
      <point x="181" y="0" type="line"/>
      <point x="275" y="0" type="line"/>
      <point x="318" y="304" type="line"/>
      <point x="583" y="669" type="line"/>
    </contour>
    <contour>
      <point x="71" y="194" type="line"/>
      <point x="63" y="133" type="line"/>
      <point x="430" y="133" type="line"/>
      <point x="438" y="194" type="line"/>
    </contour>
    <contour>
      <point x="93" y="346" type="line"/>
      <point x="84" y="284" type="line"/>
      <point x="451" y="284" type="line"/>
      <point x="460" y="346" type="line"/>
    </contour>
  </outline>
</glyph>
<glyph name="brokenbar" format="1">
  <advance width="397"/>
  <unicode hex="00A6"/>
  <outline>
    <contour>
      <point x="233" y="807" type="line"/>
      <point x="182" y="443" type="line"/>
      <point x="265" y="443" type="line"/>
      <point x="316" y="807" type="line"/>
    </contour>
    <contour>
      <point x="157" y="262" type="line"/>
      <point x="106" y="-102" type="line"/>
      <point x="189" y="-102" type="line"/>
      <point x="240" y="262" type="line"/>
    </contour>
  </outline>
</glyph>
<glyph name="dieresis" format="1">
  <advance width="379"/>
  <unicode hex="00A8"/>
  <outline>
    <contour>
      <point x="330" y="768"/>
      <point x="305" y="746"/>
      <point x="301" y="716" type="curve" smooth="yes"/>
      <point x="296" y="682"/>
      <point x="318" y="654"/>
      <point x="352" y="654" type="curve" smooth="yes"/>
      <point x="383" y="654"/>
      <point x="408" y="676"/>
      <point x="412" y="706" type="curve" smooth="yes"/>
      <point x="417" y="740"/>
      <point x="395" y="768"/>
      <point x="360" y="768" type="curve" smooth="yes"/>
    </contour>
    <contour>
      <point x="122" y="768"/>
      <point x="97" y="746"/>
      <point x="93" y="716" type="curve" smooth="yes"/>
      <point x="88" y="682"/>
      <point x="110" y="654"/>
      <point x="145" y="654" type="curve" smooth="yes"/>
      <point x="175" y="654"/>
      <point x="200" y="676"/>
      <point x="204" y="706" type="curve" smooth="yes"/>
      <point x="209" y="740"/>
      <point x="187" y="768"/>
      <point x="153" y="768" type="curve" smooth="yes"/>
    </contour>
    <contour>
      <point x="250" y="687" type="move" name="top"/>
    </contour>
    <contour>
      <point x="232" y="527" type="move" name="_top"/>
    </contour>
  </outline>
</glyph>
<glyph name="logicalnot" format="1">
  <advance width="494"/>
  <unicode hex="00AC"/>
  <outline>
    <contour>
      <point x="75" y="361" type="line"/>
      <point x="64" y="284" type="line"/>
      <point x="354" y="284" type="line"/>
      <point x="334" y="141" type="line"/>
      <point x="416" y="141" type="line"/>
      <point x="447" y="361" type="line"/>
    </contour>
  </outline>
</glyph>
<glyph name="macron" format="1">
  <advance width="327"/>
  <unicode hex="00AF"/>
  <outline>
    <contour>
      <point x="365" y="736" type="line"/>
      <point x="94" y="736" type="line"/>
      <point x="85" y="667" type="line"/>
      <point x="356" y="667" type="line"/>
    </contour>
    <contour>
      <point x="201" y="527" type="move" name="_top"/>
    </contour>
  </outline>
</glyph>
<glyph name="degree" format="1">
  <advance width="517"/>
  <unicode hex="00B0"/>
  <outline>
    <contour>
      <point x="194" y="443"/>
      <point x="159" y="471"/>
      <point x="168" y="536" type="curve" smooth="yes"/>
      <point x="178" y="605"/>
      <point x="227" y="638"/>
      <point x="273" y="638" type="curve" smooth="yes"/>
      <point x="317" y="638"/>
      <point x="351" y="609"/>
      <point x="342" y="545" type="curve" smooth="yes"/>
      <point x="332" y="477"/>
      <point x="284" y="443"/>
      <point x="237" y="443" type="curve" smooth="yes"/>
    </contour>
    <contour>
      <point x="318" y="381"/>
      <point x="402" y="434"/>
      <point x="416" y="535" type="curve" smooth="yes"/>
      <point x="431" y="640"/>
      <point x="358" y="701"/>
      <point x="273" y="701" type="curve" smooth="yes"/>
      <point x="193" y="701"/>
      <point x="108" y="647"/>
      <point x="94" y="546" type="curve" smooth="yes"/>
      <point x="79" y="441"/>
      <point x="153" y="381"/>
      <point x="237" y="381" type="curve" smooth="yes"/>
    </contour>
  </outline>
</glyph>
<glyph name="acute" format="1">
  <advance width="294"/>
  <unicode hex="00B4"/>
  <outline>
    <contour>
      <point x="89" y="687" type="line"/>
      <point x="110" y="638" type="line"/>
      <point x="330" y="724" type="line"/>
      <point x="300" y="801" type="line"/>
    </contour>
    <contour>
      <point x="194" y="527" type="move" name="_top"/>
    </contour>
  </outline>
</glyph>
<glyph name="cedilla" format="1">
  <advance width="269"/>
  <unicode hex="00B8"/>
  <outline>
    <contour>
      <point x="55" y="16" type="line"/>
      <point x="27" y="-99" type="line"/>
      <point x="91" y="-99"/>
      <point x="110" y="-109"/>
      <point x="109" y="-138" type="curve" smooth="yes"/>
      <point x="108" y="-166"/>
      <point x="79" y="-181"/>
      <point x="49" y="-181" type="curve" smooth="yes"/>
      <point x="25" y="-181"/>
      <point x="8" y="-175"/>
      <point x="-7" y="-165" type="curve"/>
      <point x="-38" y="-214" type="line"/>
      <point x="-19" y="-229"/>
      <point x="12" y="-241"/>
      <point x="51" y="-241" type="curve" smooth="yes"/>
      <point x="144" y="-241"/>
      <point x="184" y="-185"/>
      <point x="184" y="-132" type="curve" smooth="yes"/>
      <point x="184" y="-95"/>
      <point x="161" y="-61"/>
      <point x="102" y="-56" type="curve"/>
      <point x="114" y="16" type="line"/>
    </contour>
    <contour>
      <point x="88" y="0" type="move" name="_bottom"/>
    </contour>
  </outline>
</glyph>
<glyph name="questiondown" format="1">
  <advance width="453"/>
  <unicode hex="00BF"/>
  <outline>
    <contour>
      <point x="235" y="-216"/>
      <point x="306" y="-186"/>
      <point x="371" y="-119" type="curve"/>
      <point x="314" y="-66" type="line"/>
      <point x="267" y="-116"/>
      <point x="214" y="-140"/>
      <point x="163" y="-140" type="curve" smooth="yes"/>
      <point x="110" y="-140"/>
      <point x="78" y="-117"/>
      <point x="78" y="-73" type="curve" smooth="yes"/>
      <point x="78" y="69"/>
      <point x="317" y="36"/>
      <point x="317" y="216" type="curve" smooth="yes"/>
      <point x="317" y="228"/>
      <point x="313" y="251"/>
      <point x="307" y="266" type="curve"/>
      <point x="225" y="252" type="line"/>
      <point x="228" y="240"/>
      <point x="228" y="231"/>
      <point x="228" y="223" type="curve" smooth="yes"/>
      <point x="228" y="81"/>
      <point x="-17" y="122"/>
      <point x="-17" y="-75" type="curve" smooth="yes"/>
      <point x="-17" y="-150"/>
      <point x="39" y="-216"/>
      <point x="155" y="-216" type="curve" smooth="yes"/>
    </contour>
    <component base="period" xOffset="357" yOffset="495" xScale="-1" yScale="-1"/>
  </outline>
</glyph>
<glyph name="AE" format="1">
  <advance width="808"/>
  <unicode hex="00C6"/>
  <outline>
    <contour>
      <point x="317" y="689" type="line"/>
      <point x="-49" y="0" type="line"/>
      <point x="51" y="0" type="line"/>
      <point x="364" y="613" type="line"/>
      <point x="421" y="0" type="line"/>
      <point x="718" y="0" type="line"/>
      <point x="729" y="76" type="line"/>
      <point x="504" y="76" type="line"/>
      <point x="446" y="613" type="line"/>
      <point x="753" y="613" type="line"/>
      <point x="775" y="689" type="line"/>
    </contour>
    <contour>
      <point x="158" y="250" type="line"/>
      <point x="120" y="173" type="line"/>
      <point x="416" y="173" type="line"/>
      <point x="410" y="250" type="line"/>
    </contour>
    <contour>
      <point x="455" y="387" type="line"/>
      <point x="465" y="311" type="line"/>
      <point x="713" y="311" type="line"/>
      <point x="723" y="387" type="line"/>
    </contour>
    <contour>
      <point x="530" y="689" type="move" name="top"/>
    </contour>
  </outline>
</glyph>
<glyph name="Eth" format="1">
  <advance width="648"/>
  <unicode hex="00D0"/>
  <outline>
    <contour>
      <point x="129" y="388" type="line"/>
      <point x="38" y="388" type="line"/>
      <point x="29" y="318" type="line"/>
      <point x="369" y="318" type="line"/>
      <point x="378" y="388" type="line"/>
    </contour>
    <component base="D" xOffset="10"/>
  </outline>
</glyph>
<glyph name="multiply" format="1">
  <advance width="494"/>
  <unicode hex="00D7"/>
  <outline>
    <contour>
      <point x="260" y="363" type="line"/>
      <point x="156" y="486" type="line"/>
      <point x="94" y="429" type="line"/>
      <point x="198" y="307" type="line"/>
      <point x="60" y="185" type="line"/>
      <point x="109" y="129" type="line"/>
      <point x="246" y="251" type="line"/>
      <point x="350" y="129" type="line"/>
      <point x="412" y="185" type="line"/>
      <point x="308" y="307" type="line"/>
      <point x="446" y="429" type="line"/>
      <point x="397" y="486" type="line"/>
    </contour>
  </outline>
</glyph>
<glyph name="Oslash" format="1">
  <advance width="686"/>
  <unicode hex="00D8"/>
  <outline>
    <contour>
      <point x="465" y="689" type="line"/>
      <point x="445" y="626" type="line"/>
      <point x="207" y="86" type="line"/>
      <point x="172" y="32" type="line"/>
      <point x="111" y="-106" type="line"/>
      <point x="188" y="-127" type="line"/>
      <point x="243" y="0" type="line"/>
      <point x="263" y="63" type="line"/>
      <point x="501" y="606" type="line"/>
      <point x="535" y="657" type="line"/>
      <point x="599" y="798" type="line"/>
      <point x="522" y="819" type="line"/>
    </contour>
    <contour>
      <point x="147" y="701"/>
      <point x="61" y="441"/>
      <point x="61" y="265" type="curve" smooth="yes"/>
      <point x="61" y="85"/>
      <point x="158" y="-12"/>
      <point x="308" y="-12" type="curve" smooth="yes"/>
      <point x="562" y="-12"/>
      <point x="648" y="239"/>
      <point x="648" y="421" type="curve" smooth="yes"/>
      <point x="648" y="603"/>
      <point x="552" y="701"/>
      <point x="402" y="701" type="curve" smooth="yes"/>
    </contour>
    <contour>
      <point x="494" y="623"/>
      <point x="550" y="576"/>
      <point x="550" y="438" type="curve" smooth="yes"/>
      <point x="550" y="288"/>
      <point x="500" y="66"/>
      <point x="311" y="66" type="curve" smooth="yes"/>
      <point x="219" y="66"/>
      <point x="159" y="110"/>
      <point x="159" y="255" type="curve" smooth="yes"/>
      <point x="159" y="403"/>
      <point x="211" y="623"/>
      <point x="398" y="623" type="curve" smooth="yes"/>
    </contour>
    <contour>
      <point x="400" y="704" type="move" name="top"/>
    </contour>
    <contour>
      <point x="172" y="689" type="move" name="topleft"/>
    </contour>
  </outline>
</glyph>
<glyph name="Thorn" format="1">
  <advance width="575"/>
  <unicode hex="00DE"/>
  <outline>
    <contour>
      <point x="202" y="571" type="line"/>
      <point x="217" y="497" type="line"/>
      <point x="313" y="497" type="line" smooth="yes"/>
      <point x="403" y="497"/>
      <point x="459" y="470"/>
      <point x="459" y="385" type="curve" smooth="yes"/>
      <point x="459" y="294"/>
      <point x="417" y="202"/>
      <point x="264" y="202" type="curve" smooth="yes"/>
      <point x="168" y="202" type="line"/>
      <point x="158" y="127" type="line"/>
      <point x="262" y="127" type="line" smooth="yes"/>
      <point x="490" y="127"/>
      <point x="559" y="265"/>
      <point x="559" y="385" type="curve" smooth="yes"/>
      <point x="559" y="513"/>
      <point x="469" y="571"/>
      <point x="319" y="571" type="curve" smooth="yes"/>
    </contour>
    <contour>
      <point x="159" y="689" type="line"/>
      <point x="62" y="0" type="line"/>
      <point x="156" y="0" type="line"/>
      <point x="253" y="689" type="line"/>
    </contour>
  </outline>
</glyph>
<glyph name="germandbls" format="1">
  <advance width="587"/>
  <unicode hex="00DF"/>
  <outline>
    <contour>
      <point x="384" y="492"/>
      <point x="520" y="499"/>
      <point x="520" y="621" type="curve" smooth="yes"/>
      <point x="520" y="694"/>
      <point x="461" y="750"/>
      <point x="357" y="750" type="curve" smooth="yes"/>
      <point x="232" y="750"/>
      <point x="151" y="675"/>
      <point x="133" y="542" type="curve"/>
      <point x="61" y="29" type="line" smooth="yes"/>
      <point x="45" y="-84"/>
      <point x="1" y="-112"/>
      <point x="-71" y="-144" type="curve"/>
      <point x="-45" y="-213" type="line"/>
      <point x="72" y="-163"/>
      <point x="131" y="-120"/>
      <point x="152" y="29" type="curve" smooth="yes"/>
      <point x="223" y="536" type="line"/>
      <point x="236" y="631"/>
      <point x="284" y="678"/>
      <point x="354" y="678" type="curve" smooth="yes"/>
      <point x="399" y="678"/>
      <point x="433" y="660"/>
      <point x="433" y="619" type="curve" smooth="yes"/>
      <point x="433" y="521"/>
      <point x="297" y="524"/>
      <point x="297" y="409" type="curve" smooth="yes"/>
      <point x="297" y="305"/>
      <point x="443" y="290"/>
      <point x="443" y="172" type="curve" smooth="yes"/>
      <point x="443" y="126"/>
      <point x="414" y="62"/>
      <point x="328" y="62" type="curve" smooth="yes"/>
      <point x="299" y="62"/>
      <point x="268" y="70"/>
      <point x="247" y="81" type="curve"/>
      <point x="214" y="19" type="line"/>
      <point x="241" y="3"/>
      <point x="284" y="-12"/>
      <point x="335" y="-12" type="curve" smooth="yes"/>
      <point x="470" y="-12"/>
      <point x="535" y="90"/>
      <point x="535" y="175" type="curve" smooth="yes"/>
      <point x="535" y="331"/>
      <point x="384" y="344"/>
      <point x="384" y="422" type="curve" smooth="yes"/>
    </contour>
  </outline>
</glyph>
<glyph name="ae" format="1">
  <advance width="856"/>
  <unicode hex="00E6"/>
  <outline>
    <contour>
      <point x="251" y="539"/>
      <point x="192" y="533"/>
      <point x="124" y="509" type="curve"/>
      <point x="142" y="437" type="line"/>
      <point x="198" y="455"/>
      <point x="240" y="464"/>
      <point x="281" y="464" type="curve" smooth="yes"/>
      <point x="342" y="464"/>
      <point x="392" y="431"/>
      <point x="395" y="384" type="curve"/>
      <point x="391" y="372"/>
      <point x="384" y="352"/>
      <point x="375" y="308" type="curve"/>
      <point x="294" y="308" type="line" smooth="yes"/>
      <point x="101" y="308"/>
      <point x="37.9999" y="220"/>
      <point x="37.9999" y="127" type="curve" smooth="yes"/>
      <point x="37.9999" y="44"/>
      <point x="92.9999" y="-12"/>
      <point x="190" y="-12" type="curve" smooth="yes"/>
      <point x="267.381" y="-12"/>
      <point x="330.513" y="12.0444"/>
      <point x="388.642" y="81.1408" type="curve"/>
      <point x="420.418" y="21.6334"/>
      <point x="479.875" y="-12"/>
      <point x="563" y="-12" type="curve" smooth="yes"/>
      <point x="633" y="-12"/>
      <point x="695" y="10.9999"/>
      <point x="752" y="51.9999" type="curve"/>
      <point x="713" y="114" type="line"/>
      <point x="665" y="79.9999"/>
      <point x="621" y="64.9999"/>
      <point x="572" y="64.9999" type="curve" smooth="yes"/>
      <point x="504.47" y="64.9999"/>
      <point x="453.706" y="100.504"/>
      <point x="453.008" y="199.915" type="curve"/>
      <point x="639.216" y="219.138"/>
      <point x="800" y="255.407"/>
      <point x="800" y="405" type="curve" smooth="yes"/>
      <point x="800" y="475"/>
      <point x="745" y="539"/>
      <point x="633" y="539" type="curve" smooth="yes"/>
      <point x="550.678" y="539"/>
      <point x="489.835" y="501.806"/>
      <point x="453" y="456" type="curve"/>
      <point x="432" y="506"/>
      <point x="387.005" y="539"/>
      <point x="304" y="539" type="curve" smooth="yes"/>
    </contour>
    <contour>
      <point x="364" y="230"/>
      <point x="364" y="167"/>
      <point x="367" y="151" type="curve"/>
      <point x="318.589" y="87.4414"/>
      <point x="270.719" y="57"/>
      <point x="213" y="57" type="curve" smooth="yes"/>
      <point x="163" y="57"/>
      <point x="138" y="79"/>
      <point x="138" y="126" type="curve" smooth="yes"/>
      <point x="138" y="213"/>
      <point x="197" y="245"/>
      <point x="302" y="245" type="curve" smooth="yes"/>
      <point x="366" y="245" type="line"/>
    </contour>
    <contour>
      <point x="689" y="466"/>
      <point x="704" y="427"/>
      <point x="704" y="402" type="curve" smooth="yes"/>
      <point x="704" y="311.086"/>
      <point x="612.205" y="286.576"/>
      <point x="458.532" y="269.605" type="curve"/>
      <point x="473.86" y="364.117"/>
      <point x="523.134" y="466"/>
      <point x="632" y="466" type="curve" smooth="yes"/>
    </contour>
    <contour>
      <point x="465" y="527" type="move" name="top"/>
    </contour>
  </outline>
</glyph>
<glyph name="eth" format="1">
  <advance width="564.856"/>
  <unicode hex="00F0"/>
  <outline>
    <contour>
      <point x="466" y="729" type="line"/>
      <point x="418" y="776" type="line"/>
      <point x="336.13" y="699.469" type="line"/>
      <point x="294.85" y="723.879"/>
      <point x="249.801" y="737.898"/>
      <point x="196" y="749" type="curve"/>
      <point x="171" y="680" type="line"/>
      <point x="209.673" y="672.265"/>
      <point x="241.167" y="663.334"/>
      <point x="277.051" y="647.191" type="curve"/>
      <point x="192" y="571" type="line"/>
      <point x="252" y="539" type="line"/>
      <point x="334.906" y="609.689" type="line"/>
      <point x="391.696" y="556.261"/>
      <point x="416.767" y="494.305"/>
      <point x="421.428" y="413.107" type="curve"/>
      <point x="390.965" y="452.017"/>
      <point x="345.096" y="475"/>
      <point x="281" y="475" type="curve" smooth="yes"/>
      <point x="109" y="475"/>
      <point x="49" y="311"/>
      <point x="49" y="190" type="curve" smooth="yes"/>
      <point x="49" y="61"/>
      <point x="130" y="-12"/>
      <point x="240" y="-12" type="curve" smooth="yes"/>
      <point x="379" y="-12"/>
      <point x="479" y="94"/>
      <point x="503" y="260" type="curve" smooth="yes"/>
      <point x="509" y="302"/>
      <point x="512" y="341"/>
      <point x="512" y="377" type="curve" smooth="yes"/>
      <point x="512" y="497.82"/>
      <point x="477.274" y="589.438"/>
      <point x="391.696" y="660.269" type="curve"/>
    </contour>
    <contour>
      <point x="180" y="61"/>
      <point x="142" y="103"/>
      <point x="142" y="188" type="curve" smooth="yes"/>
      <point x="142" y="279"/>
      <point x="167" y="403"/>
      <point x="293" y="403" type="curve" smooth="yes"/>
      <point x="352.355" y="403"/>
      <point x="391.697" y="377.985"/>
      <point x="417.88" y="327.954" type="curve"/>
      <point x="416.7" y="309.528"/>
      <point x="414.862" y="291.032"/>
      <point x="412" y="271" type="curve" smooth="yes"/>
      <point x="393" y="134"/>
      <point x="324" y="60.9999"/>
      <point x="242" y="60.9999" type="curve" smooth="yes"/>
    </contour>
  </outline>
</glyph>
<glyph name="oslash" format="1">
  <advance width="578"/>
  <unicode hex="00F8"/>
  <outline>
    <contour>
      <point x="378" y="534" type="line"/>
      <point x="361.589" y="537.246"/>
      <point x="343.932" y="539"/>
      <point x="325" y="539" type="curve" smooth="yes"/>
      <point x="119" y="539"/>
      <point x="52" y="336"/>
      <point x="52" y="206" type="curve" smooth="yes"/>
      <point x="52" y="121.857"/>
      <point x="79.9958" y="57.4296"/>
      <point x="133.263" y="21.1348" type="curve"/>
      <point x="72.9999" y="-108" type="line"/>
      <point x="146" y="-130" type="line"/>
      <point x="201" y="-6.9999" type="line"/>
      <point x="217.427" y="-10.2491"/>
      <point x="235.088" y="-11.9999"/>
      <point x="254" y="-11.9999" type="curve" smooth="yes"/>
      <point x="461" y="-11.9999"/>
      <point x="526" y="194"/>
      <point x="526" y="321" type="curve" smooth="yes"/>
      <point x="526" y="405.084"/>
      <point x="498.437" y="469.479"/>
      <point x="445.537" y="505.788" type="curve"/>
      <point x="506" y="634" type="line"/>
      <point x="433" y="656" type="line"/>
    </contour>
    <contour>
      <point x="332.977" y="465"/>
      <point x="343.167" y="464.213"/>
      <point x="352.547" y="462.492" type="curve"/>
      <point x="177.572" y="88.8969" type="line"/>
      <point x="158.085" y="109.484"/>
      <point x="148" y="143.453"/>
      <point x="148" y="196" type="curve" smooth="yes"/>
      <point x="148" y="297"/>
      <point x="185" y="465"/>
      <point x="322" y="465" type="curve" smooth="yes"/>
    </contour>
    <contour>
      <point x="420.309" y="416.166"/>
      <point x="430" y="382.509"/>
      <point x="430" y="331" type="curve" smooth="yes"/>
      <point x="430" y="230"/>
      <point x="394" y="61.9998"/>
      <point x="257" y="61.9998" type="curve" smooth="yes"/>
      <point x="245.997" y="62"/>
      <point x="235.788" y="62.7688"/>
      <point x="226.389" y="64.4471" type="curve"/>
      <point x="401.701" y="436.867" type="line"/>
    </contour>
    <contour>
      <point x="326" y="527" type="move" name="top"/>
    </contour>
  </outline>
</glyph>
<glyph name="thorn" format="1">
  <advance width="588"/>
  <unicode hex="00FE"/>
  <outline>
    <contour>
      <point x="310" y="539"/>
      <point x="262" y="516"/>
      <point x="214" y="474" type="curve"/>
      <point x="253" y="750" type="line"/>
      <point x="161" y="739" type="line"/>
      <point x="26" y="-217" type="line"/>
      <point x="119" y="-204" type="line"/>
      <point x="148" y="8" type="line"/>
      <point x="179" y="-5"/>
      <point x="212" y="-12"/>
      <point x="246" y="-12" type="curve" smooth="yes"/>
      <point x="454" y="-12"/>
      <point x="528" y="184"/>
      <point x="528" y="332" type="curve" smooth="yes"/>
      <point x="528" y="465"/>
      <point x="468" y="539"/>
      <point x="368" y="539" type="curve" smooth="yes"/>
    </contour>
    <contour>
      <point x="216" y="61"/>
      <point x="193" y="66"/>
      <point x="160" y="78" type="curve"/>
      <point x="203" y="390" type="line"/>
      <point x="241" y="430"/>
      <point x="284" y="466"/>
      <point x="339" y="466" type="curve" smooth="yes"/>
      <point x="394" y="466"/>
      <point x="433" y="433"/>
      <point x="433" y="339" type="curve" smooth="yes"/>
      <point x="433" y="221"/>
      <point x="384" y="61"/>
      <point x="253" y="61" type="curve" smooth="yes"/>
    </contour>
  </outline>
</glyph>
<glyph name="dcroat" format="1">
  <advance width="602"/>
  <unicode hex="0111"/>
  <outline>
    <contour>
      <point x="306" y="676" type="line"/>
      <point x="306" y="606" type="line"/>
      <point x="548" y="606" type="line"/>
      <point x="626" y="606" type="line"/>
      <point x="636" y="676" type="line"/>
    </contour>
    <component base="d"/>
  </outline>
</glyph>
<glyph name="Hbar" format="1">
  <advance width="682"/>
  <unicode hex="0126"/>
  <outline>
    <contour>
      <point x="617" y="577" type="line"/>
      <point x="79" y="577" type="line"/>
      <point x="69" y="508" type="line"/>
      <point x="137" y="508" type="line"/>
      <point x="681" y="508" type="line"/>
      <point x="691" y="577" type="line"/>
    </contour>
    <component base="H" xOffset="3"/>
  </outline>
</glyph>
<glyph name="hbar" format="1">
  <advance width="588"/>
  <unicode hex="0127"/>
  <outline>
    <contour>
      <point x="82" y="676" type="line"/>
      <point x="72" y="606" type="line"/>
      <point x="151" y="606" type="line"/>
      <point x="384" y="606" type="line"/>
      <point x="403" y="676" type="line"/>
    </contour>
    <component base="h" xOffset="8"/>
  </outline>
</glyph>
<glyph name="kgreenlandic" format="1">
  <advance width="503"/>
  <unicode hex="0138"/>
  <outline>
    <contour>
      <point x="411" y="527" type="line"/>
      <point x="190" y="278" type="line"/>
      <point x="362" y="0" type="line"/>
      <point x="466" y="0" type="line"/>
      <point x="293" y="278" type="line"/>
      <point x="520" y="527" type="line"/>
    </contour>
    <contour>
      <point x="131" y="527" type="line"/>
      <point x="57" y="0" type="line"/>
      <point x="148" y="0" type="line"/>
      <point x="222" y="527" type="line"/>
    </contour>
  </outline>
</glyph>
<glyph name="Lslash" format="1">
  <advance width="502"/>
  <unicode hex="0141"/>
  <outline>
    <contour>
      <point x="178" y="83" type="line"/>
      <point x="210" y="313" type="line"/>
      <point x="427" y="438" type="line"/>
      <point x="397" y="498" type="line"/>
      <point x="222" y="398" type="line"/>
      <point x="263" y="689" type="line"/>
      <point x="169" y="689" type="line"/>
      <point x="120" y="339" type="line"/>
      <point x="23" y="282" type="line"/>
      <point x="52" y="222" type="line"/>
      <point x="108" y="254" type="line"/>
      <point x="72" y="0" type="line"/>
      <point x="436" y="0" type="line"/>
      <point x="458" y="83" type="line"/>
    </contour>
  </outline>
</glyph>
<glyph name="lslash" format="1">
  <advance width="296"/>
  <unicode hex="0142"/>
  <outline>
    <contour>
      <point x="24" y="341" type="line"/>
      <point x="46" y="275" type="line"/>
      <point x="308" y="425" type="line"/>
      <point x="286" y="491" type="line"/>
    </contour>
    <component base="l"/>
  </outline>
</glyph>
<glyph name="Eng" format="1">
  <advance width="677"/>
  <unicode hex="014A"/>
  <outline>
    <contour>
      <point x="465" y="29" type="line"/>
      <point x="449" y="-87"/>
      <point x="406" y="-114"/>
      <point x="326" y="-146" type="curve"/>
      <point x="348" y="-213" type="line"/>
      <point x="470" y="-170"/>
      <point x="520" y="-123"/>
      <point x="541" y="0" type="curve"/>
    </contour>
    <contour>
      <point x="549" y="689" type="line"/>
      <point x="496" y="316" type="line" smooth="yes"/>
      <point x="485" y="232"/>
      <point x="481" y="172"/>
      <point x="481" y="81" type="curve"/>
      <point x="283" y="689" type="line"/>
      <point x="159" y="689" type="line"/>
      <point x="62" y="0" type="line"/>
      <point x="151" y="0" type="line"/>
      <point x="195" y="313" type="line" smooth="yes"/>
      <point x="213" y="441"/>
      <point x="220" y="523"/>
      <point x="221" y="607" type="curve"/>
      <point x="418" y="0" type="line"/>
      <point x="541" y="0" type="line"/>
      <point x="638" y="689" type="line"/>
    </contour>
    <contour>
      <point x="410" y="689" type="move" name="top"/>
    </contour>
    <contour>
      <point x="303" y="0" type="move" name="bottom"/>
    </contour>
  </outline>
</glyph>
<glyph name="eng" format="1">
  <advance width="580"/>
  <unicode hex="014B"/>
  <outline>
    <contour>
      <point x="314" y="539"/>
      <point x="246" y="486"/>
      <point x="200" y="418" type="curve"/>
      <point x="209" y="527" type="line"/>
      <point x="131" y="527" type="line"/>
      <point x="57" y="0" type="line"/>
      <point x="148" y="0" type="line"/>
      <point x="191" y="316" type="line"/>
      <point x="233" y="391"/>
      <point x="292" y="462"/>
      <point x="350" y="462" type="curve" smooth="yes"/>
      <point x="397" y="462"/>
      <point x="426" y="447"/>
      <point x="415" y="368" type="curve" smooth="yes"/>
      <point x="367" y="29" type="line" smooth="yes"/>
      <point x="351" y="-84"/>
      <point x="312" y="-112"/>
      <point x="235" y="-145" type="curve"/>
      <point x="261" y="-213" type="line"/>
      <point x="378" y="-163"/>
      <point x="437" y="-120"/>
      <point x="458" y="29" type="curve" smooth="yes"/>
      <point x="507" y="375" type="line" smooth="yes"/>
      <point x="521" y="475"/>
      <point x="473" y="539"/>
      <point x="384" y="539" type="curve" smooth="yes"/>
    </contour>
  </outline>
</glyph>
<glyph name="OE" format="1">
  <advance width="901"/>
  <unicode hex="0152"/>
  <outline>
    <contour>
      <point x="151" y="701"/>
      <point x="61" y="439"/>
      <point x="61" y="264" type="curve" smooth="yes"/>
      <point x="61" y="85"/>
      <point x="156" y="-12"/>
      <point x="295" y="-12" type="curve" smooth="yes"/>
      <point x="343" y="-12"/>
      <point x="395" y="2"/>
      <point x="434" y="34" type="curve"/>
      <point x="581" y="115"/>
      <point x="627" y="287"/>
      <point x="627" y="416" type="curve" smooth="yes"/>
      <point x="627" y="520"/>
      <point x="595" y="601"/>
      <point x="531" y="641" type="curve"/>
      <point x="498" y="681"/>
      <point x="446" y="701"/>
      <point x="387" y="701" type="curve" smooth="yes"/>
    </contour>
    <contour>
      <point x="470" y="76" type="line"/>
      <point x="364" y="0" type="line"/>
      <point x="798" y="0" type="line"/>
      <point x="809" y="76" type="line"/>
    </contour>
    <contour>
      <point x="563" y="388" type="line"/>
      <point x="553" y="312" type="line"/>
      <point x="789" y="312" type="line"/>
      <point x="799" y="388" type="line"/>
    </contour>
    <contour>
      <point x="463" y="689" type="line"/>
      <point x="556" y="613" type="line"/>
      <point x="866" y="613" type="line"/>
      <point x="887" y="689" type="line"/>
    </contour>
    <contour>
      <point x="475" y="623"/>
      <point x="530" y="569"/>
      <point x="530" y="439" type="curve" smooth="yes"/>
      <point x="530" y="291"/>
      <point x="479" y="66"/>
      <point x="301" y="66" type="curve" smooth="yes"/>
      <point x="217" y="66"/>
      <point x="159" y="119"/>
      <point x="159" y="255" type="curve" smooth="yes"/>
      <point x="159" y="394"/>
      <point x="212" y="623"/>
      <point x="388" y="623" type="curve" smooth="yes"/>
    </contour>
    <contour>
      <point x="504" y="689" type="move" name="top"/>
    </contour>
  </outline>
</glyph>
<glyph name="oe" format="1">
  <advance width="891"/>
  <unicode hex="0153"/>
  <outline>
    <contour>
      <point x="119" y="539"/>
      <point x="52" y="336"/>
      <point x="52" y="206" type="curve" smooth="yes"/>
      <point x="52" y="72"/>
      <point x="123" y="-12"/>
      <point x="254" y="-12" type="curve" smooth="yes"/>
      <point x="461" y="-12"/>
      <point x="506" y="184"/>
      <point x="526" y="321" type="curve"/>
      <point x="526" y="425"/>
      <point x="456" y="539"/>
      <point x="325" y="539" type="curve" smooth="yes"/>
    </contour>
    <contour>
      <point x="392" y="465"/>
      <point x="430" y="423"/>
      <point x="430" y="331" type="curve" smooth="yes"/>
      <point x="430" y="230"/>
      <point x="394" y="62"/>
      <point x="257" y="62" type="curve" smooth="yes"/>
      <point x="186" y="62"/>
      <point x="148" y="104"/>
      <point x="148" y="196" type="curve" smooth="yes"/>
      <point x="148" y="297"/>
      <point x="185" y="465"/>
      <point x="322" y="465" type="curve" smooth="yes"/>
    </contour>
    <contour>
      <point x="491" y="539"/>
      <point x="434" y="344"/>
      <point x="420" y="202" type="curve"/>
      <point x="430" y="83"/>
      <point x="492" y="-12"/>
      <point x="621" y="-12" type="curve" smooth="yes"/>
      <point x="691" y="-12"/>
      <point x="753" y="11"/>
      <point x="810" y="52" type="curve"/>
      <point x="771" y="114" type="line"/>
      <point x="723" y="80"/>
      <point x="679" y="65"/>
      <point x="630" y="65" type="curve" smooth="yes"/>
      <point x="562" y="65"/>
      <point x="516" y="101"/>
      <point x="516" y="202" type="curve" smooth="yes"/>
      <point x="516" y="307"/>
      <point x="554" y="466"/>
      <point x="690" y="466" type="curve" smooth="yes"/>
      <point x="747" y="466"/>
      <point x="762" y="427"/>
      <point x="762" y="402" type="curve" smooth="yes"/>
      <point x="762" y="310"/>
      <point x="668" y="282"/>
      <point x="511" y="265" type="curve"/>
      <point x="502" y="195" type="line"/>
      <point x="692" y="214"/>
      <point x="858" y="253"/>
      <point x="858" y="405" type="curve" smooth="yes"/>
      <point x="858" y="475"/>
      <point x="803" y="539"/>
      <point x="691" y="539" type="curve" smooth="yes"/>
    </contour>
    <contour>
      <point x="505" y="527" type="move" name="top"/>
    </contour>
  </outline>
</glyph>
<glyph name="Tbar" format="1">
  <advance width="513"/>
  <unicode hex="0166"/>
  <outline>
    <contour>
      <point x="540" y="608" type="line"/>
      <point x="562" y="689" type="line"/>
      <point x="74" y="689" type="line"/>
      <point x="62" y="608" type="line"/>
      <point x="256" y="608" type="line"/>
      <point x="225" y="389" type="line"/>
      <point x="104" y="389" type="line"/>
      <point x="95" y="319" type="line"/>
      <point x="216" y="319" type="line"/>
      <point x="171" y="0" type="line"/>
      <point x="266" y="0" type="line"/>
      <point x="311" y="319" type="line"/>
      <point x="434" y="319" type="line"/>
      <point x="443" y="389" type="line"/>
      <point x="320" y="389" type="line"/>
      <point x="351" y="608" type="line"/>
    </contour>
  </outline>
</glyph>
<glyph name="tbar" format="1">
  <advance width="355"/>
  <unicode hex="0167"/>
  <outline>
    <contour>
      <point x="115" y="357" type="line"/>
      <point x="35" y="357" type="line"/>
      <point x="25" y="286" type="line"/>
      <point x="300" y="286" type="line"/>
      <point x="320" y="357" type="line"/>
    </contour>
    <component base="t"/>
  </outline>
</glyph>
<glyph name="uni0196" format="1">
  <advance width="355"/>
  <unicode hex="0196"/>
  <outline>
    <contour>
      <point x="150" y="689" type="line"/>
      <point x="80" y="201" type="line"/>
      <point x="174" y="201" type="line"/>
      <point x="244" y="689" type="line"/>
    </contour>
    <component base="hookHELPERright.case" xOffset="86" yOffset="201"/>
  </outline>
</glyph>
<glyph name="uni01C3" format="1">
  <advance width="335"/>
  <unicode hex="01C3"/>
  <outline>
    <contour>
      <point x="192" y="739" type="line"/>
      <point x="118" y="210" type="line"/>
      <point x="202" y="210" type="line"/>
      <point x="278" y="749" type="line"/>
    </contour>
    <component base="period" xOffset="47"/>
  </outline>
</glyph>
<glyph name="dotlessj" format="1">
  <advance width="275"/>
  <unicode hex="0237"/>
  <outline>
    <contour>
      <point x="127" y="527" type="line"/>
      <point x="57" y="29" type="line" smooth="yes"/>
      <point x="41" y="-84"/>
      <point x="-3" y="-112"/>
      <point x="-75" y="-144" type="curve"/>
      <point x="-49" y="-213" type="line"/>
      <point x="68" y="-163"/>
      <point x="127" y="-120"/>
      <point x="148" y="29" type="curve" smooth="yes"/>
      <point x="218" y="527" type="line"/>
    </contour>
    <contour>
      <point x="173" y="527" type="move" name="top"/>
    </contour>
  </outline>
</glyph>
<glyph name="uni0243" format="1">
  <advance width="613"/>
  <unicode hex="0243"/>
  <outline>
    <contour>
      <point x="109" y="238" type="line"/>
      <point x="18" y="238" type="line"/>
      <point x="7" y="168" type="line"/>
      <point x="347" y="168" type="line"/>
      <point x="358" y="238" type="line"/>
    </contour>
    <component base="B" xOffset="11"/>
  </outline>
</glyph>
<glyph name="uni024A" format="1">
  <advance width="669"/>
  <unicode hex="024A"/>
  <outline>
    <contour>
      <point x="372" y="-12"/>
      <point x="446" y="35"/>
      <point x="496" y="124" type="curve"/>
      <point x="472" y="149" type="line"/>
      <point x="417" y="93"/>
      <point x="365" y="66"/>
      <point x="297" y="66" type="curve" smooth="yes"/>
      <point x="216" y="66"/>
      <point x="158" y="113"/>
      <point x="158" y="249" type="curve" smooth="yes"/>
      <point x="158" y="411"/>
      <point x="228" y="623"/>
      <point x="382" y="623" type="curve" smooth="yes"/>
      <point x="450" y="623"/>
      <point x="491" y="595"/>
      <point x="529" y="546" type="curve"/>
      <point x="558" y="589" type="line"/>
      <point x="523" y="653"/>
      <point x="468" y="701"/>
      <point x="379" y="701" type="curve" smooth="yes"/>
      <point x="180" y="701"/>
      <point x="59" y="466"/>
      <point x="60" y="251" type="curve" smooth="yes"/>
      <point x="60" y="78"/>
      <point x="154" y="-12"/>
      <point x="284" y="-12" type="curve" smooth="yes"/>
    </contour>
    <contour>
      <point x="527" y="0" type="line"/>
      <point x="624" y="689" type="line"/>
      <point x="541" y="689" type="line"/>
      <point x="520" y="620" type="line"/>
      <point x="444" y="69" type="line"/>
      <point x="433" y="0" type="line"/>
    </contour>
    <component base="hookHELPERright.case" xOffset="439"/>
  </outline>
</glyph>
<glyph name="uni0258" format="1">
  <advance width="519"/>
  <unicode hex="0258"/>
  <outline>
    <contour>
      <point x="157" y="539"/>
      <point x="68" y="472"/>
      <point x="68" y="369" type="curve" smooth="yes"/>
      <point x="68" y="251"/>
      <point x="187" y="203"/>
      <point x="372" y="195" type="curve"/>
      <point x="379" y="265" type="line"/>
      <point x="242" y="271"/>
      <point x="163" y="298"/>
      <point x="163" y="372" type="curve" smooth="yes"/>
      <point x="163" y="429"/>
      <point x="201" y="466"/>
      <point x="261" y="466" type="curve" smooth="yes"/>
      <point x="343" y="466"/>
      <point x="375" y="403"/>
      <point x="375" y="317" type="curve" smooth="yes"/>
      <point x="375" y="185"/>
      <point x="324" y="65"/>
      <point x="206" y="65" type="curve" smooth="yes"/>
      <point x="148" y="65"/>
      <point x="113" y="79"/>
      <point x="74" y="109" type="curve"/>
      <point x="23" y="54" type="line"/>
      <point x="67" y="13"/>
      <point x="122" y="-12"/>
      <point x="204" y="-12" type="curve" smooth="yes"/>
      <point x="371" y="-12"/>
      <point x="470" y="130"/>
      <point x="469" y="308" type="curve" smooth="yes"/>
      <point x="470" y="439"/>
      <point x="410" y="539"/>
      <point x="261" y="539" type="curve" smooth="yes"/>
    </contour>
  </outline>
</glyph>
<glyph name="uni0267" format="1">
  <advance width="580"/>
  <unicode hex="0267"/>
  <outline>
    <contour>
      <point x="308" y="539"/>
      <point x="251" y="494"/>
      <point x="209" y="428" type="curve"/>
      <point x="223" y="526" type="line"/>
      <point x="131" y="526" type="line"/>
      <point x="57" y="0" type="line"/>
      <point x="148" y="0" type="line"/>
      <point x="191" y="316" type="line"/>
      <point x="233" y="391"/>
      <point x="292" y="462"/>
      <point x="362" y="462" type="curve" smooth="yes"/>
      <point x="400" y="462"/>
      <point x="425" y="442"/>
      <point x="415" y="368" type="curve" smooth="yes"/>
      <point x="363" y="0" type="line"/>
      <point x="454" y="0" type="line"/>
      <point x="507" y="373" type="line" smooth="yes"/>
      <point x="521" y="475"/>
      <point x="473" y="539"/>
      <point x="381" y="539" type="curve" smooth="yes"/>
    </contour>
    <component base="hookaboveHELPER" xOffset="63"/>
    <component base="hookHELPER" xOffset="196"/>
  </outline>
</glyph>
<glyph name="uni0282" format="1">
  <advance width="460"/>
  <unicode hex="0282"/>
  <outline>
    <contour>
      <point x="163" y="-216"/>
      <point x="201" y="-199"/>
      <point x="229" y="-180" type="curve"/>
      <point x="197" y="-118" type="line"/>
      <point x="173" y="-132"/>
      <point x="154" y="-142"/>
      <point x="119" y="-142" type="curve" smooth="yes"/>
      <point x="83" y="-142"/>
      <point x="63" y="-124"/>
      <point x="70" y="-71" type="curve" smooth="yes"/>
      <point x="85" y="37" type="line"/>
      <point x="-3" y="64" type="line"/>
      <point x="-19" y="-57" type="line" smooth="yes"/>
      <point x="-33" y="-161"/>
      <point x="19" y="-216"/>
      <point x="113" y="-216" type="curve" smooth="yes"/>
    </contour>
    <contour>
      <point x="125" y="539"/>
      <point x="63" y="459"/>
      <point x="63" y="390" type="curve" smooth="yes"/>
      <point x="63" y="318"/>
      <point x="106" y="278"/>
      <point x="204" y="245" type="curve" smooth="yes"/>
      <point x="287" y="217"/>
      <point x="315" y="201"/>
      <point x="315" y="148" type="curve" smooth="yes"/>
      <point x="315" y="116"/>
      <point x="290" y="62"/>
      <point x="196" y="62" type="curve" smooth="yes"/>
      <point x="131" y="62"/>
      <point x="81" y="89"/>
      <point x="41" y="115" type="curve"/>
      <point x="-3" y="64" type="line"/>
      <point x="48" y="31"/>
      <point x="100" y="-12"/>
      <point x="192" y="-12" type="curve" smooth="yes"/>
      <point x="302" y="-12"/>
      <point x="411" y="40"/>
      <point x="411" y="155" type="curve" smooth="yes"/>
      <point x="411" y="242"/>
      <point x="361" y="285"/>
      <point x="262" y="315" type="curve" smooth="yes"/>
      <point x="191" y="336"/>
      <point x="156" y="353"/>
      <point x="156" y="395" type="curve" smooth="yes"/>
      <point x="156" y="439"/>
      <point x="197" y="466"/>
      <point x="265" y="466" type="curve" smooth="yes"/>
      <point x="307" y="466"/>
      <point x="354" y="450"/>
      <point x="390" y="416" type="curve"/>
      <point x="435" y="474" type="line"/>
      <point x="390" y="514"/>
      <point x="335" y="539"/>
      <point x="265" y="539" type="curve" smooth="yes"/>
    </contour>
  </outline>
</glyph>
<glyph name="uni028E" format="1">
  <advance width="486"/>
  <unicode hex="028E"/>
  <outline>
    <contour>
      <point x="67" y="0" type="line"/>
      <point x="269" y="457" type="line"/>
      <point x="343" y="0" type="line"/>
      <point x="439" y="0" type="line"/>
      <point x="338" y="527" type="line"/>
      <point x="304" y="525" type="line"/>
      <point x="351" y="619"/>
      <point x="391" y="662"/>
      <point x="500" y="680" type="curve"/>
      <point x="496" y="752" type="line"/>
      <point x="350" y="736"/>
      <point x="273" y="656"/>
      <point x="216" y="532" type="curve" smooth="yes"/>
      <point x="-28" y="0" type="line"/>
    </contour>
  </outline>
</glyph>
<glyph name="uni0290" format="1">
  <advance width="431"/>
  <unicode hex="0290"/>
  <outline>
    <contour>
      <point x="84" y="527" type="line"/>
      <point x="73" y="449" type="line"/>
      <point x="313" y="449" type="line"/>
      <point x="-4" y="69" type="line"/>
      <point x="-13" y="0" type="line"/>
      <point x="360" y="0" type="line"/>
      <point x="370" y="77" type="line"/>
      <point x="109" y="77" type="line"/>
      <point x="427" y="457" type="line"/>
      <point x="436" y="527" type="line"/>
    </contour>
    <component base="hookHELPERright" xOffset="275"/>
  </outline>
</glyph>
<glyph name="uni029F" format="1">
  <advance width="433"/>
  <unicode hex="029F"/>
  <outline>
    <contour>
      <point x="131" y="527" type="line"/>
      <point x="57" y="0" type="line"/>
      <point x="369" y="0" type="line"/>
      <point x="391" y="78" type="line"/>
      <point x="159" y="78" type="line"/>
      <point x="222" y="527" type="line"/>
    </contour>
  </outline>
</glyph>
<glyph name="uni02BC" format="1">
  <advance width="174"/>
  <unicode hex="02BC"/>
  <outline>
    <contour>
      <point x="124" y="751"/>
      <point x="98" y="730"/>
      <point x="94" y="700" type="curve" smooth="yes"/>
      <point x="91" y="679"/>
      <point x="100" y="662"/>
      <point x="112" y="650" type="curve"/>
      <point x="65" y="532" type="line"/>
      <point x="119" y="532" type="line"/>
      <point x="171" y="616" type="line" smooth="yes"/>
      <point x="198" y="660"/>
      <point x="204" y="675"/>
      <point x="206" y="690" type="curve" smooth="yes"/>
      <point x="211" y="724"/>
      <point x="188" y="751"/>
      <point x="154" y="751" type="curve" smooth="yes"/>
    </contour>
    <contour>
      <point x="113" y="527" type="move" name="_topleft"/>
    </contour>
  </outline>
</glyph>
<glyph name="circumflex" format="1">
  <advance width="386"/>
  <unicode hex="02C6"/>
  <outline>
    <contour>
      <point x="258" y="718" type="line"/>
      <point x="371" y="634" type="line"/>
      <point x="415" y="679" type="line"/>
      <point x="296" y="792" type="line"/>
      <point x="236" y="792" type="line"/>
      <point x="87" y="679" type="line"/>
      <point x="124" y="634" type="line"/>
    </contour>
    <contour>
      <point x="230" y="527" type="move" name="_top"/>
    </contour>
  </outline>
</glyph>
<glyph name="breve" format="1">
  <advance width="357"/>
  <unicode hex="02D8"/>
  <outline>
    <contour>
      <point x="312" y="643"/>
      <point x="381" y="689"/>
      <point x="401" y="773" type="curve"/>
      <point x="341" y="791" type="line"/>
      <point x="321" y="741"/>
      <point x="284" y="713"/>
      <point x="236" y="713" type="curve" smooth="yes"/>
      <point x="191" y="713"/>
      <point x="170" y="737"/>
      <point x="163" y="787" type="curve"/>
      <point x="101" y="779" type="line"/>
      <point x="98" y="695"/>
      <point x="153" y="643"/>
      <point x="234" y="643" type="curve" smooth="yes"/>
    </contour>
    <contour>
      <point x="216" y="527" type="move" name="_top"/>
    </contour>
  </outline>
</glyph>
<glyph name="dotaccent" format="1">
  <advance width="183"/>
  <unicode hex="02D9"/>
  <outline>
    <contour>
      <point x="124" y="780"/>
      <point x="97" y="756"/>
      <point x="92" y="722" type="curve" smooth="yes"/>
      <point x="87" y="685"/>
      <point x="110" y="655"/>
      <point x="150" y="655" type="curve" smooth="yes"/>
      <point x="187" y="655"/>
      <point x="213" y="679"/>
      <point x="218" y="712" type="curve" smooth="yes"/>
      <point x="223" y="750"/>
      <point x="201" y="780"/>
      <point x="160" y="780" type="curve" smooth="yes"/>
    </contour>
    <contour>
      <point x="155" y="720" type="move" name="_center"/>
    </contour>
    <contour>
      <point x="129" y="527" type="move" name="_top"/>
    </contour>
  </outline>
</glyph>
<glyph name="ring" format="1">
  <advance width="282"/>
  <unicode hex="02DA"/>
  <outline>
    <contour>
      <point x="153" y="836"/>
      <point x="102" y="792"/>
      <point x="94" y="735" type="curve" smooth="yes"/>
      <point x="86" y="674"/>
      <point x="128" y="624"/>
      <point x="196" y="624" type="curve" smooth="yes"/>
      <point x="260" y="624"/>
      <point x="311" y="668"/>
      <point x="319" y="725" type="curve" smooth="yes"/>
      <point x="327" y="786"/>
      <point x="285" y="836"/>
      <point x="217" y="836" type="curve" smooth="yes"/>
    </contour>
    <contour>
      <point x="246" y="786"/>
      <point x="264" y="766"/>
      <point x="259" y="735" type="curve" smooth="yes"/>
      <point x="253" y="697"/>
      <point x="232" y="674"/>
      <point x="198" y="674" type="curve" smooth="yes"/>
      <point x="167" y="674"/>
      <point x="150" y="694"/>
      <point x="154" y="725" type="curve" smooth="yes"/>
      <point x="159" y="765"/>
      <point x="180" y="786"/>
      <point x="215" y="786" type="curve" smooth="yes"/>
    </contour>
    <contour>
      <point x="178" y="527" type="move" name="_top"/>
    </contour>
  </outline>
</glyph>
<glyph name="tilde" format="1">
  <advance width="388"/>
  <unicode hex="02DC"/>
  <outline>
    <contour>
      <point x="353" y="656"/>
      <point x="393" y="683"/>
      <point x="427" y="740" type="curve"/>
      <point x="373" y="772" type="line"/>
      <point x="352" y="742"/>
      <point x="334" y="726"/>
      <point x="312" y="726" type="curve" smooth="yes"/>
      <point x="280" y="726"/>
      <point x="262" y="774"/>
      <point x="205" y="774" type="curve" smooth="yes"/>
      <point x="157" y="774"/>
      <point x="118" y="737"/>
      <point x="88" y="688" type="curve"/>
      <point x="140" y="656" type="line"/>
      <point x="160" y="686"/>
      <point x="178" y="704"/>
      <point x="203" y="704" type="curve" smooth="yes"/>
      <point x="234" y="704"/>
      <point x="255" y="656"/>
      <point x="314" y="656" type="curve" smooth="yes"/>
    </contour>
    <contour>
      <point x="231" y="527" type="move" name="_top"/>
    </contour>
  </outline>
</glyph>
<glyph name="hungarumlaut" format="1">
  <advance width="360"/>
  <unicode hex="02DD"/>
  <outline>
    <contour>
      <point x="225" y="659" type="line"/>
      <point x="280" y="634" type="line"/>
      <point x="406" y="791" type="line"/>
      <point x="333" y="832" type="line"/>
    </contour>
    <contour>
      <point x="84" y="664" type="line"/>
      <point x="140" y="639" type="line"/>
      <point x="255" y="791" type="line"/>
      <point x="183" y="832" type="line"/>
    </contour>
    <contour>
      <point x="169" y="527" type="move" name="_top"/>
    </contour>
  </outline>
</glyph>
<glyph name="gravecomb" format="1">
  <advance width="290"/>
  <unicode hex="0300"/>
  <outline>
    <contour>
      <point x="117" y="708" type="line"/>
      <point x="321" y="629" type="line"/>
      <point x="351" y="678" type="line"/>
      <point x="166" y="785" type="line"/>
    </contour>
    <contour>
      <point x="209" y="527" type="move" name="_top"/>
    </contour>
  </outline>
</glyph>
<glyph name="acutecomb" format="1">
  <advance width="290"/>
  <unicode hex="0301"/>
  <outline>
    <contour>
      <point x="114" y="678" type="line"/>
      <point x="131" y="629" type="line"/>
      <point x="354" y="708" type="line"/>
      <point x="325" y="785" type="line"/>
    </contour>
    <contour>
      <point x="209" y="527" type="move" name="_top"/>
    </contour>
  </outline>
</glyph>
<glyph name="uni0306" format="1">
  <advance width="356"/>
  <unicode hex="0306"/>
  <outline>
    <contour>
      <point x="337" y="632"/>
      <point x="406" y="678"/>
      <point x="424" y="752" type="curve"/>
      <point x="364" y="770" type="line"/>
      <point x="345" y="730"/>
      <point x="309" y="702"/>
      <point x="261" y="702" type="curve" smooth="yes"/>
      <point x="216" y="702"/>
      <point x="193" y="726"/>
      <point x="184" y="766" type="curve"/>
      <point x="125" y="758" type="line"/>
      <point x="123" y="684"/>
      <point x="178" y="632"/>
      <point x="259" y="632" type="curve" smooth="yes"/>
    </contour>
    <contour>
      <point x="250" y="527" type="move" name="_top"/>
    </contour>
  </outline>
</glyph>
<glyph name="uni0307" format="1">
  <advance width="182"/>
  <unicode hex="0307"/>
  <outline>
    <component base="dotaccent" xOffset="-13"/>
    <contour>
      <point x="115" y="527" type="move" name="_top"/>
    </contour>
  </outline>
</glyph>
<glyph name="uni0313" format="1">
  <advance width="174"/>
  <unicode hex="0313"/>
  <outline>
    <component base="uni0326" xOffset="124" yOffset="879"/>
    <contour>
      <point x="120" y="527" type="move" name="_top"/>
    </contour>
  </outline>
</glyph>
<glyph name="uni0326" format="1">
  <advance width="174"/>
  <unicode hex="0326"/>
  <outline>
    <contour>
      <point x="5" y="-77"/>
      <point x="-23" y="-102"/>
      <point x="-23" y="-136" type="curve" smooth="yes"/>
      <point x="-23" y="-153"/>
      <point x="-14" y="-168"/>
      <point x="-4" y="-178" type="curve"/>
      <point x="-52" y="-296" type="line"/>
      <point x="2" y="-296" type="line"/>
      <point x="54" y="-214" type="line" smooth="yes"/>
      <point x="81" y="-171"/>
      <point x="90" y="-153"/>
      <point x="90" y="-129" type="curve" smooth="yes"/>
      <point x="90" y="-104"/>
      <point x="72" y="-77"/>
      <point x="38" y="-77" type="curve" smooth="yes"/>
    </contour>
    <contour>
      <point x="50" y="0" type="move" name="_bottom"/>
    </contour>
  </outline>
</glyph>
<glyph name="uni0331" format="1">
  <advance width="331"/>
  <unicode hex="0331"/>
  <outline>
    <component base="macron" xOffset="-116" yOffset="-840"/>
    <contour>
      <point x="121" y="0" type="move" name="_bottom"/>
    </contour>
    <contour>
      <point x="113" y="-173" type="move" name="bottom"/>
    </contour>
  </outline>
</glyph>
<glyph name="dieresistonos" format="1">
  <advance width="399"/>
  <unicode hex="0385"/>
  <outline>
    <contour>
      <point x="232" y="739" type="line"/>
      <point x="298" y="729" type="line"/>
      <point x="384" y="900" type="line"/>
      <point x="286" y="918" type="line"/>
    </contour>
    <contour>
      <point x="118" y="737"/>
      <point x="93" y="716"/>
      <point x="88" y="685" type="curve" smooth="yes"/>
      <point x="83" y="651"/>
      <point x="107" y="624"/>
      <point x="141" y="624" type="curve" smooth="yes"/>
      <point x="171" y="624"/>
      <point x="197" y="645"/>
      <point x="201" y="675" type="curve" smooth="yes"/>
      <point x="206" y="710"/>
      <point x="183" y="737"/>
      <point x="149" y="737" type="curve" smooth="yes"/>
    </contour>
    <contour>
      <point x="346" y="737"/>
      <point x="320" y="716"/>
      <point x="315" y="685" type="curve" smooth="yes"/>
      <point x="310" y="651"/>
      <point x="334" y="624"/>
      <point x="368" y="624" type="curve" smooth="yes"/>
      <point x="399" y="624"/>
      <point x="424" y="645"/>
      <point x="428" y="675" type="curve" smooth="yes"/>
      <point x="433" y="710"/>
      <point x="410" y="737"/>
      <point x="376" y="737" type="curve" smooth="yes"/>
    </contour>
    <contour>
      <point x="237" y="527" type="move" name="_top"/>
    </contour>
  </outline>
</glyph>
<glyph name="Delta" format="1">
  <advance width="577"/>
  <unicode hex="0394"/>
  <outline>
    <contour>
      <point x="424" y="78" type="line"/>
      <point x="98" y="78" type="line"/>
      <point x="337" y="609" type="line"/>
    </contour>
    <contour>
      <point x="289" y="689" type="line"/>
      <point x="-32" y="0" type="line"/>
      <point x="534" y="0" type="line"/>
      <point x="408" y="689" type="line"/>
    </contour>
  </outline>
</glyph>
<glyph name="Epsilon" format="1">
  <advance width="529"/>
  <unicode hex="0395"/>
  <outline>
    <component base="E"/>
    <contour>
      <point x="350" y="689" type="move" name="top"/>
    </contour>
    <contour>
      <point x="152" y="689" type="move" name="topleft"/>
    </contour>
  </outline>
</glyph>
<glyph name="Lambda" format="1">
  <advance width="567"/>
  <unicode hex="039B"/>
  <outline>
    <contour>
      <point x="284" y="689" type="line"/>
      <point x="-32" y="0" type="line"/>
      <point x="65" y="0" type="line"/>
      <point x="332" y="610" type="line"/>
      <point x="427" y="0" type="line"/>
      <point x="524" y="0" type="line"/>
      <point x="403" y="689" type="line"/>
    </contour>
  </outline>
</glyph>
<glyph name="Xi" format="1">
  <advance width="505"/>
  <unicode hex="039E"/>
  <outline>
    <contour>
      <point x="19" y="88" type="line"/>
      <point x="7" y="0" type="line"/>
      <point x="424" y="0" type="line"/>
      <point x="436" y="88" type="line"/>
    </contour>
    <contour>
      <point x="122" y="392" type="line"/>
      <point x="110" y="307" type="line"/>
      <point x="399" y="307" type="line"/>
      <point x="411" y="392" type="line"/>
    </contour>
    <contour>
      <point x="104" y="689" type="line"/>
      <point x="92" y="603" type="line"/>
      <point x="488" y="603" type="line"/>
      <point x="513" y="689" type="line"/>
    </contour>
  </outline>
</glyph>
<glyph name="Sigma" format="1">
  <advance width="497"/>
  <unicode hex="03A3"/>
  <outline>
    <contour>
      <point x="99" y="689" type="line"/>
      <point x="89" y="611" type="line"/>
      <point x="270" y="339" type="line"/>
      <point x="12" y="78" type="line"/>
      <point x="2" y="0" type="line"/>
      <point x="421" y="0" type="line"/>
      <point x="432" y="78" type="line"/>
      <point x="120" y="78" type="line"/>
      <point x="351" y="310" type="line"/>
      <point x="357" y="372" type="line"/>
      <point x="193" y="611" type="line"/>
      <point x="507" y="611" type="line"/>
      <point x="518" y="689" type="line"/>
    </contour>
  </outline>
</glyph>
<glyph name="Upsilon" format="1">
  <advance width="544"/>
  <unicode hex="03A5"/>
  <outline>
    <component base="Y"/>
    <contour>
      <point x="63" y="689" type="move" name="topleft"/>
    </contour>
  </outline>
</glyph>
<glyph name="Psi" format="1">
  <advance width="688"/>
  <unicode hex="03A8"/>
  <outline>
    <contour>
      <point x="323" y="268" type="line"/>
      <point x="185" y="270"/>
      <point x="136" y="317"/>
      <point x="151" y="430" type="curve" smooth="yes"/>
      <point x="188" y="689" type="line"/>
      <point x="95" y="689" type="line"/>
      <point x="58" y="429" type="line" smooth="yes"/>
      <point x="38" y="282"/>
      <point x="122" y="200"/>
      <point x="312" y="191" type="curve"/>
    </contour>
    <contour>
      <point x="359" y="191" type="line"/>
      <point x="540" y="199"/>
      <point x="654" y="270"/>
      <point x="676" y="426" type="curve" smooth="yes"/>
      <point x="713" y="689" type="line"/>
      <point x="620" y="689" type="line"/>
      <point x="584" y="436" type="line" smooth="yes"/>
      <point x="568" y="322"/>
      <point x="495" y="271"/>
      <point x="362" y="268" type="curve"/>
    </contour>
    <contour>
      <point x="387" y="253" type="line"/>
      <point x="449" y="689" type="line"/>
      <point x="358" y="689" type="line"/>
      <point x="297" y="253" type="line"/>
      <point x="288" y="208" type="line"/>
      <point x="259" y="0" type="line"/>
      <point x="354" y="0" type="line"/>
      <point x="382" y="208" type="line"/>
    </contour>
  </outline>
</glyph>
<glyph name="Omega" format="1">
  <advance width="686"/>
  <unicode hex="03A9"/>
  <outline>
    <contour>
      <point x="149" y="701"/>
      <point x="61" y="445"/>
      <point x="61" y="272" type="curve" smooth="yes"/>
      <point x="61" y="176"/>
      <point x="88" y="119"/>
      <point x="154" y="80" type="curve"/>
      <point x="50" y="80" type="line"/>
      <point x="39" y="0" type="line"/>
      <point x="252" y="0" type="line"/>
      <point x="261" y="79" type="line"/>
      <point x="196" y="104"/>
      <point x="160" y="152"/>
      <point x="160" y="256" type="curve" smooth="yes"/>
      <point x="160" y="410"/>
      <point x="212" y="623"/>
      <point x="398" y="623" type="curve" smooth="yes"/>
      <point x="494" y="623"/>
      <point x="551" y="568"/>
      <point x="551" y="442" type="curve" smooth="yes"/>
      <point x="551" y="314"/>
      <point x="518" y="129"/>
      <point x="369" y="81" type="curve"/>
      <point x="359" y="0" type="line"/>
      <point x="572" y="0" type="line"/>
      <point x="583" y="80" type="line"/>
      <point x="480" y="80" type="line"/>
      <point x="623" y="151"/>
      <point x="649" y="307"/>
      <point x="649" y="428" type="curve" smooth="yes"/>
      <point x="649" y="603"/>
      <point x="555" y="701"/>
      <point x="400" y="701" type="curve" smooth="yes"/>
    </contour>
    <contour>
      <point x="401" y="689" type="move" name="top"/>
    </contour>
    <contour>
      <point x="67" y="534" type="move" name="topleft"/>
    </contour>
  </outline>
</glyph>
<glyph name="alpha" format="1">
  <advance width="591"/>
  <unicode hex="03B1"/>
  <outline>
    <contour>
      <point x="110" y="539"/>
      <point x="49" y="332"/>
      <point x="49" y="188" type="curve" smooth="yes"/>
      <point x="49" y="55"/>
      <point x="109" y="-12"/>
      <point x="212" y="-12" type="curve" smooth="yes"/>
      <point x="298" y="-12"/>
      <point x="354" y="53"/>
      <point x="392" y="136" type="curve"/>
      <point x="393" y="85" type="line" smooth="yes"/>
      <point x="394" y="28"/>
      <point x="431" y="-6"/>
      <point x="474" y="-13" type="curve"/>
      <point x="513" y="62" type="line"/>
      <point x="484" y="73"/>
      <point x="477" y="86"/>
      <point x="476" y="113" type="curve" smooth="yes"/>
      <point x="469" y="250" type="line"/>
      <point x="563" y="527" type="line"/>
      <point x="479" y="527" type="line"/>
      <point x="435" y="381" type="line"/>
      <point x="428" y="494"/>
      <point x="379" y="539"/>
      <point x="287" y="539" type="curve" smooth="yes"/>
    </contour>
    <contour>
      <point x="355" y="466"/>
      <point x="389" y="427"/>
      <point x="394" y="269" type="curve"/>
      <point x="336" y="97"/>
      <point x="274" y="61"/>
      <point x="224" y="61" type="curve" smooth="yes"/>
      <point x="173" y="61"/>
      <point x="145" y="97"/>
      <point x="145" y="179" type="curve" smooth="yes"/>
      <point x="145" y="276"/>
      <point x="180" y="466"/>
      <point x="294" y="466" type="curve" smooth="yes"/>
    </contour>
    <contour>
      <point x="303" y="527" type="move" name="top"/>
    </contour>
  </outline>
</glyph>
<glyph name="beta" format="1">
  <advance width="599"/>
  <unicode hex="03B2"/>
  <outline>
    <contour>
      <point x="237" y="750"/>
      <point x="151" y="675"/>
      <point x="133" y="544" type="curve" smooth="yes"/>
      <point x="27" y="-216" type="line"/>
      <point x="120" y="-204" type="line"/>
      <point x="154" y="41" type="line"/>
      <point x="195" y="6"/>
      <point x="248" y="-12"/>
      <point x="300" y="-12" type="curve" smooth="yes"/>
      <point x="471" y="-12"/>
      <point x="546" y="119"/>
      <point x="546" y="223" type="curve" smooth="yes"/>
      <point x="546" y="349"/>
      <point x="452" y="391"/>
      <point x="371" y="399" type="curve"/>
      <point x="496" y="418"/>
      <point x="543" y="509"/>
      <point x="543" y="583" type="curve" smooth="yes"/>
      <point x="543" y="688"/>
      <point x="464" y="750"/>
      <point x="360" y="750" type="curve" smooth="yes"/>
    </contour>
    <contour>
      <point x="417" y="678"/>
      <point x="457" y="650"/>
      <point x="457" y="582" type="curve" smooth="yes"/>
      <point x="457" y="519"/>
      <point x="418" y="433"/>
      <point x="316" y="433" type="curve" smooth="yes"/>
      <point x="269" y="433" type="line"/>
      <point x="250" y="363" type="line"/>
      <point x="303" y="363" type="line" smooth="yes"/>
      <point x="401" y="363"/>
      <point x="453" y="314"/>
      <point x="453" y="225" type="curve" smooth="yes"/>
      <point x="453" y="157"/>
      <point x="417" y="62"/>
      <point x="293" y="62" type="curve" smooth="yes"/>
      <point x="241" y="62"/>
      <point x="196" y="80"/>
      <point x="165" y="113" type="curve"/>
      <point x="224" y="538" type="line" smooth="yes"/>
      <point x="237" y="631"/>
      <point x="284" y="678"/>
      <point x="359" y="678" type="curve" smooth="yes"/>
    </contour>
  </outline>
</glyph>
<glyph name="gamma" format="1">
  <advance width="476"/>
  <unicode hex="03B3"/>
  <outline>
    <contour>
      <point x="29" y="507" type="line"/>
      <point x="87" y="430"/>
      <point x="119" y="279"/>
      <point x="153" y="18" type="curve"/>
      <point x="111" y="-71"/>
      <point x="106" y="-132"/>
      <point x="147" y="-216" type="curve"/>
      <point x="221" y="-202" type="line"/>
      <point x="194" y="-118"/>
      <point x="210" y="-55"/>
      <point x="248" y="20" type="curve" smooth="yes"/>
      <point x="503" y="519" type="line"/>
      <point x="408" y="538" type="line"/>
      <point x="213" y="102" type="line"/>
      <point x="204" y="325"/>
      <point x="160" y="474"/>
      <point x="121" y="536" type="curve"/>
    </contour>
  </outline>
</glyph>
<glyph name="delta" format="1">
  <advance width="575"/>
  <unicode hex="03B4"/>
  <outline>
    <contour>
      <point x="208" y="750"/>
      <point x="162" y="658"/>
      <point x="162" y="601" type="curve" smooth="yes"/>
      <point x="162" y="549"/>
      <point x="183" y="512"/>
      <point x="240" y="475" type="curve"/>
      <point x="98" y="413"/>
      <point x="52" y="320"/>
      <point x="52" y="202" type="curve" smooth="yes"/>
      <point x="52" y="75"/>
      <point x="129" y="-12"/>
      <point x="254" y="-12" type="curve" smooth="yes"/>
      <point x="451" y="-12"/>
      <point x="520" y="186"/>
      <point x="520" y="289" type="curve" smooth="yes"/>
      <point x="520" y="394"/>
      <point x="462" y="453"/>
      <point x="357" y="501" type="curve" smooth="yes"/>
      <point x="277" y="537"/>
      <point x="255" y="557"/>
      <point x="255" y="601" type="curve" smooth="yes"/>
      <point x="255" y="636"/>
      <point x="285" y="678"/>
      <point x="361" y="678" type="curve" smooth="yes"/>
      <point x="404" y="678"/>
      <point x="436" y="668"/>
      <point x="472" y="634" type="curve"/>
      <point x="524" y="689" type="line"/>
      <point x="480" y="728"/>
      <point x="431" y="750"/>
      <point x="352" y="750" type="curve" smooth="yes"/>
    </contour>
    <contour>
      <point x="387" y="406"/>
      <point x="423" y="366"/>
      <point x="423" y="292" type="curve" smooth="yes"/>
      <point x="423" y="218"/>
      <point x="388" y="62"/>
      <point x="257" y="62" type="curve" smooth="yes"/>
      <point x="184" y="62"/>
      <point x="149" y="115"/>
      <point x="149" y="193" type="curve" smooth="yes"/>
      <point x="149" y="303"/>
      <point x="180" y="381"/>
      <point x="298" y="447" type="curve"/>
    </contour>
  </outline>
</glyph>
<glyph name="epsilon" format="1">
  <advance width="472"/>
  <unicode hex="03B5"/>
  <outline>
    <contour>
      <point x="151" y="539"/>
      <point x="98" y="458"/>
      <point x="98" y="385" type="curve" smooth="yes"/>
      <point x="98" y="340"/>
      <point x="131" y="292"/>
      <point x="192" y="282" type="curve"/>
      <point x="68" y="267"/>
      <point x="40" y="193"/>
      <point x="40" y="131" type="curve" smooth="yes"/>
      <point x="40" y="50"/>
      <point x="114" y="-12"/>
      <point x="232" y="-12" type="curve" smooth="yes"/>
      <point x="305" y="-12"/>
      <point x="372" y="12"/>
      <point x="427" y="51" type="curve"/>
      <point x="387" y="111" type="line"/>
      <point x="334" y="79"/>
      <point x="293" y="62"/>
      <point x="240" y="62" type="curve" smooth="yes"/>
      <point x="173" y="62"/>
      <point x="140" y="91"/>
      <point x="140" y="138" type="curve" smooth="yes"/>
      <point x="140" y="180"/>
      <point x="158" y="239"/>
      <point x="269" y="239" type="curve" smooth="yes"/>
      <point x="322" y="239" type="line"/>
      <point x="343" y="311" type="line"/>
      <point x="281" y="311" type="line" smooth="yes"/>
      <point x="223" y="311"/>
      <point x="189" y="336"/>
      <point x="189" y="385" type="curve" smooth="yes"/>
      <point x="189" y="420"/>
      <point x="213" y="467"/>
      <point x="304" y="467" type="curve" smooth="yes"/>
      <point x="350" y="467"/>
      <point x="381" y="453"/>
      <point x="411" y="430" type="curve"/>
      <point x="461" y="484" type="line"/>
      <point x="422" y="516"/>
      <point x="368" y="539"/>
      <point x="297" y="539" type="curve" smooth="yes"/>
    </contour>
    <contour>
      <point x="284" y="527" type="move" name="top"/>
    </contour>
  </outline>
</glyph>
<glyph name="zeta" format="1">
  <advance width="382"/>
  <unicode hex="03B6"/>
  <outline>
    <contour>
      <point x="114" y="739" type="line"/>
      <point x="93" y="665" type="line"/>
      <point x="239" y="665" type="line" smooth="yes"/>
      <point x="283" y="665"/>
      <point x="361" y="666"/>
      <point x="387" y="678" type="curve"/>
      <point x="137" y="535"/>
      <point x="35" y="323"/>
      <point x="35" y="222" type="curve" smooth="yes"/>
      <point x="35" y="114"/>
      <point x="86" y="67"/>
      <point x="172" y="32" type="curve" smooth="yes"/>
      <point x="239" y="2"/>
      <point x="261" y="-10"/>
      <point x="261" y="-45" type="curve" smooth="yes"/>
      <point x="261" y="-96"/>
      <point x="211" y="-125"/>
      <point x="151" y="-155" type="curve"/>
      <point x="181" y="-216" type="line"/>
      <point x="326" y="-156"/>
      <point x="359" y="-100"/>
      <point x="359" y="-36" type="curve" smooth="yes"/>
      <point x="359" y="36"/>
      <point x="307" y="69"/>
      <point x="235" y="97" type="curve" smooth="yes"/>
      <point x="167" y="126"/>
      <point x="131" y="147"/>
      <point x="131" y="222" type="curve" smooth="yes"/>
      <point x="131" y="324"/>
      <point x="194" y="463"/>
      <point x="477" y="676" type="curve"/>
      <point x="472" y="739" type="line"/>
    </contour>
  </outline>
</glyph>
<glyph name="eta" format="1">
  <advance width="586"/>
  <unicode hex="03B7"/>
  <outline>
    <contour>
      <point x="314" y="539"/>
      <point x="255" y="505"/>
      <point x="202" y="422" type="curve"/>
      <point x="208" y="488"/>
      <point x="201" y="517"/>
      <point x="194" y="537" type="curve"/>
      <point x="112" y="529" type="line"/>
      <point x="120" y="485"/>
      <point x="124" y="437"/>
      <point x="114" y="360" type="curve" smooth="yes"/>
      <point x="63" y="0" type="line"/>
      <point x="154" y="0" type="line"/>
      <point x="199" y="319" type="line"/>
      <point x="262" y="429"/>
      <point x="302" y="467"/>
      <point x="358" y="467" type="curve" smooth="yes"/>
      <point x="405" y="467"/>
      <point x="432" y="447"/>
      <point x="421" y="368" type="curve" smooth="yes"/>
      <point x="340" y="-216" type="line"/>
      <point x="429" y="-204" type="line"/>
      <point x="513" y="375" type="line" smooth="yes"/>
      <point x="528" y="475"/>
      <point x="478" y="539"/>
      <point x="380" y="539" type="curve" smooth="yes"/>
    </contour>
    <contour>
      <point x="328" y="527" type="move" name="top"/>
    </contour>
  </outline>
</glyph>
<glyph name="theta" format="1">
  <advance width="569"/>
  <unicode hex="03B8"/>
  <outline>
    <contour>
      <point x="202" y="750"/>
      <point x="104" y="608"/>
      <point x="72" y="376" type="curve" smooth="yes"/>
      <point x="66" y="333"/>
      <point x="63" y="293"/>
      <point x="63" y="256" type="curve" smooth="yes"/>
      <point x="63" y="88"/>
      <point x="126" y="-12"/>
      <point x="249" y="-12" type="curve" smooth="yes"/>
      <point x="395" y="-12"/>
      <point x="494" y="135"/>
      <point x="527" y="367" type="curve" smooth="yes"/>
      <point x="533" y="409"/>
      <point x="536" y="449"/>
      <point x="536" y="485" type="curve" smooth="yes"/>
      <point x="536" y="653"/>
      <point x="473" y="750"/>
      <point x="349" y="750" type="curve" smooth="yes"/>
    </contour>
    <contour>
      <point x="394" y="139"/>
      <point x="343" y="62"/>
      <point x="256" y="62" type="curve" smooth="yes"/>
      <point x="188" y="62"/>
      <point x="153" y="106"/>
      <point x="153" y="222" type="curve" smooth="yes"/>
      <point x="153" y="255"/>
      <point x="155" y="293"/>
      <point x="160" y="337" type="curve"/>
      <point x="428" y="337" type="line"/>
    </contour>
    <contour>
      <point x="412" y="676"/>
      <point x="446" y="629"/>
      <point x="446" y="517" type="curve" smooth="yes"/>
      <point x="446" y="486"/>
      <point x="444" y="449"/>
      <point x="438" y="407" type="curve"/>
      <point x="170" y="407" type="line"/>
      <point x="201" y="597"/>
      <point x="258" y="676"/>
      <point x="343" y="676" type="curve" smooth="yes"/>
    </contour>
  </outline>
</glyph>
<glyph name="iota" format="1">
  <advance width="271"/>
  <unicode hex="03B9"/>
  <outline>
    <contour>
      <point x="126" y="527" type="line"/>
      <point x="71" y="134" type="line" smooth="yes"/>
      <point x="60" y="52"/>
      <point x="81" y="7"/>
      <point x="160" y="-11" type="curve"/>
      <point x="198" y="55" type="line"/>
      <point x="164" y="70"/>
      <point x="155" y="86"/>
      <point x="162" y="138" type="curve" smooth="yes"/>
      <point x="217" y="527" type="line"/>
    </contour>
    <contour>
      <point x="171" y="527" type="move" name="top"/>
    </contour>
  </outline>
</glyph>
<glyph name="kappa" format="1">
  <advance width="519"/>
  <unicode hex="03BA"/>
  <outline>
    <contour>
      <point x="198" y="282" type="line"/>
      <point x="346" y="72" type="line" smooth="yes"/>
      <point x="370" y="36"/>
      <point x="397" y="4"/>
      <point x="454" y="-11" type="curve"/>
      <point x="490" y="57" type="line"/>
      <point x="453" y="75"/>
      <point x="439" y="90"/>
      <point x="411" y="130" type="curve" smooth="yes"/>
      <point x="305" y="280" type="line"/>
      <point x="520" y="494" type="line"/>
      <point x="453" y="539" type="line"/>
    </contour>
    <contour>
      <point x="112" y="529" type="line"/>
      <point x="120" y="485"/>
      <point x="124" y="437"/>
      <point x="114" y="360" type="curve" smooth="yes"/>
      <point x="63" y="0" type="line"/>
      <point x="154" y="0" type="line"/>
      <point x="201" y="336" type="line"/>
      <point x="217" y="448"/>
      <point x="206" y="501"/>
      <point x="195" y="537" type="curve"/>
    </contour>
  </outline>
</glyph>
<glyph name="lambda" format="1">
  <advance width="488"/>
  <unicode hex="03BB"/>
  <outline>
    <contour>
      <point x="128" y="681" type="line"/>
      <point x="229" y="662"/>
      <point x="256" y="622"/>
      <point x="265" y="530" type="curve"/>
      <point x="230" y="537" type="line"/>
      <point x="-17" y="10" type="line"/>
      <point x="69" y="-12" type="line"/>
      <point x="274" y="451" type="line"/>
      <point x="287" y="173"/>
      <point x="321" y="83"/>
      <point x="378" y="-11" type="curve"/>
      <point x="464" y="20" type="line"/>
      <point x="405" y="106"/>
      <point x="378" y="187"/>
      <point x="349" y="495" type="curve" smooth="yes"/>
      <point x="335" y="659"/>
      <point x="292" y="724"/>
      <point x="148" y="752" type="curve"/>
    </contour>
  </outline>
</glyph>
<glyph name="mu" format="1">
  <advance width="580.719"/>
  <unicode hex="03BC"/>
  <outline>
    <contour>
      <point x="519" y="527" type="line"/>
      <point x="428" y="527" type="line"/>
      <point x="377.885" y="163.435" type="line"/>
      <point x="331.958" y="90.1714"/>
      <point x="283" y="67"/>
      <point x="233" y="67" type="curve" smooth="yes"/>
      <point x="191" y="67"/>
      <point x="160" y="86"/>
      <point x="169" y="153" type="curve" smooth="yes"/>
      <point x="222" y="527" type="line"/>
      <point x="131" y="527" type="line"/>
      <point x="27" y="-213" type="line"/>
      <point x="119" y="-202" type="line"/>
      <point x="133" y="-99" type="line" smooth="yes"/>
      <point x="142" y="-36"/>
      <point x="144" y="-1"/>
      <point x="138" y="22" type="curve"/>
      <point x="156" y="-1"/>
      <point x="187" y="-12"/>
      <point x="221" y="-12" type="curve" smooth="yes"/>
      <point x="288" y="-12"/>
      <point x="341.336" y="36.7346"/>
      <point x="374.912" y="84.9307" type="curve"/>
      <point x="374.011" y="52.4134"/>
      <point x="374.364" y="26.8485"/>
      <point x="386" y="-10" type="curve"/>
      <point x="470" y="-2" type="line"/>
      <point x="462" y="41"/>
      <point x="459" y="98"/>
      <point x="470" y="177" type="curve" smooth="yes"/>
    </contour>
  </outline>
</glyph>
<glyph name="nu" format="1">
  <advance width="476"/>
  <unicode hex="03BD"/>
  <outline>
    <contour>
      <point x="29" y="507" type="line"/>
      <point x="87" y="430"/>
      <point x="111" y="273"/>
      <point x="141" y="2" type="curve"/>
      <point x="253" y="0" type="line"/>
      <point x="503" y="519" type="line"/>
      <point x="414" y="538" type="line"/>
      <point x="209" y="79" type="line"/>
      <point x="192" y="332"/>
      <point x="160" y="471"/>
      <point x="117" y="536" type="curve"/>
    </contour>
  </outline>
</glyph>
<glyph name="xi" format="1">
  <advance width="431"/>
  <unicode hex="03BE"/>
  <outline>
    <contour>
      <point x="214" y="750"/>
      <point x="131" y="671"/>
      <point x="131" y="570" type="curve" smooth="yes"/>
      <point x="131" y="506"/>
      <point x="172" y="462"/>
      <point x="231" y="444" type="curve"/>
      <point x="100" y="423"/>
      <point x="46" y="326"/>
      <point x="46" y="231" type="curve" smooth="yes"/>
      <point x="46" y="126"/>
      <point x="111" y="79"/>
      <point x="212" y="32" type="curve" smooth="yes"/>
      <point x="279" y="2"/>
      <point x="301" y="-10"/>
      <point x="301" y="-45" type="curve" smooth="yes"/>
      <point x="301" y="-96"/>
      <point x="251" y="-125"/>
      <point x="191" y="-155" type="curve"/>
      <point x="221" y="-216" type="line"/>
      <point x="366" y="-156"/>
      <point x="399" y="-100"/>
      <point x="399" y="-36" type="curve" smooth="yes"/>
      <point x="399" y="36"/>
      <point x="347" y="69"/>
      <point x="275" y="97" type="curve" smooth="yes"/>
      <point x="175" y="141"/>
      <point x="143" y="169"/>
      <point x="143" y="234" type="curve" smooth="yes"/>
      <point x="143" y="303"/>
      <point x="184" y="402"/>
      <point x="297" y="402" type="curve" smooth="yes"/>
      <point x="360" y="402" type="line"/>
      <point x="383" y="478" type="line"/>
      <point x="312" y="478" type="line" smooth="yes"/>
      <point x="255" y="478"/>
      <point x="224" y="510"/>
      <point x="224" y="568" type="curve" smooth="yes"/>
      <point x="224" y="614"/>
      <point x="243" y="678"/>
      <point x="340" y="678" type="curve" smooth="yes"/>
      <point x="384" y="678"/>
      <point x="416" y="666"/>
      <point x="450" y="637" type="curve"/>
      <point x="501" y="690" type="line"/>
      <point x="460" y="727"/>
      <point x="407" y="750"/>
      <point x="335" y="750" type="curve" smooth="yes"/>
    </contour>
  </outline>
</glyph>
<glyph name="omicron" format="1">
  <advance width="578"/>
  <unicode hex="03BF"/>
  <outline>
    <component base="o"/>
    <contour>
      <point x="329" y="527" type="move" name="top"/>
    </contour>
  </outline>
</glyph>
<glyph name="pi" format="1">
  <advance width="589"/>
  <unicode hex="03C0"/>
  <outline>
    <contour>
      <point x="181" y="527" type="line" smooth="yes"/>
      <point x="124" y="528"/>
      <point x="85" y="523"/>
      <point x="52" y="511" type="curve"/>
      <point x="64" y="439" type="line"/>
      <point x="91" y="446"/>
      <point x="106" y="450"/>
      <point x="140" y="452" type="curve"/>
      <point x="77" y="0" type="line"/>
      <point x="168" y="0" type="line"/>
      <point x="231" y="452" type="line"/>
      <point x="409" y="452" type="line"/>
      <point x="364" y="134" type="line" smooth="yes"/>
      <point x="353" y="52"/>
      <point x="374" y="7"/>
      <point x="453" y="-11" type="curve"/>
      <point x="491" y="55" type="line"/>
      <point x="457" y="70"/>
      <point x="448" y="86"/>
      <point x="455" y="138" type="curve" smooth="yes"/>
      <point x="500" y="452" type="line"/>
      <point x="592" y="452" type="line"/>
      <point x="603" y="527" type="line"/>
    </contour>
  </outline>
</glyph>
<glyph name="rho" format="1">
  <advance width="583"/>
  <unicode hex="03C1"/>
  <outline>
    <contour>
      <point x="199" y="539"/>
      <point x="114" y="447"/>
      <point x="90" y="274" type="curve" smooth="yes"/>
      <point x="22" y="-216" type="line"/>
      <point x="115" y="-204" type="line"/>
      <point x="148" y="36" type="line"/>
      <point x="174" y="10"/>
      <point x="224" y="-12"/>
      <point x="282" y="-12" type="curve" smooth="yes"/>
      <point x="464" y="-12"/>
      <point x="527" y="202"/>
      <point x="527" y="337" type="curve" smooth="yes"/>
      <point x="527" y="460"/>
      <point x="466" y="539"/>
      <point x="334" y="539" type="curve" smooth="yes"/>
    </contour>
    <contour>
      <point x="397" y="467"/>
      <point x="430" y="426"/>
      <point x="430" y="338" type="curve" smooth="yes"/>
      <point x="430" y="230"/>
      <point x="392" y="63"/>
      <point x="263" y="63" type="curve" smooth="yes"/>
      <point x="218" y="63"/>
      <point x="181" y="84"/>
      <point x="161" y="131" type="curve"/>
      <point x="178" y="255" type="line" smooth="yes"/>
      <point x="196" y="389"/>
      <point x="242" y="467"/>
      <point x="333" y="467" type="curve" smooth="yes"/>
    </contour>
  </outline>
</glyph>
<glyph name="sigmafinal" format="1">
  <advance width="463"/>
  <unicode hex="03C2"/>
  <outline>
    <contour>
      <point x="118" y="539"/>
      <point x="55" y="351"/>
      <point x="55" y="227" type="curve" smooth="yes"/>
      <point x="55" y="119"/>
      <point x="109" y="66"/>
      <point x="196" y="32" type="curve" smooth="yes"/>
      <point x="263" y="2"/>
      <point x="285" y="-10"/>
      <point x="285" y="-45" type="curve" smooth="yes"/>
      <point x="285" y="-96"/>
      <point x="235" y="-125"/>
      <point x="175" y="-155" type="curve"/>
      <point x="205" y="-216" type="line"/>
      <point x="350" y="-156"/>
      <point x="383" y="-100"/>
      <point x="383" y="-36" type="curve" smooth="yes"/>
      <point x="383" y="36"/>
      <point x="331" y="69"/>
      <point x="259" y="97" type="curve" smooth="yes"/>
      <point x="180" y="132"/>
      <point x="150" y="154"/>
      <point x="150" y="224" type="curve" smooth="yes"/>
      <point x="150" y="315"/>
      <point x="193" y="463"/>
      <point x="321" y="463" type="curve" smooth="yes"/>
      <point x="362" y="463"/>
      <point x="392" y="452"/>
      <point x="424" y="424" type="curve"/>
      <point x="475" y="480" type="line"/>
      <point x="432" y="521"/>
      <point x="383" y="539"/>
      <point x="320" y="539" type="curve" smooth="yes"/>
    </contour>
  </outline>
</glyph>
<glyph name="sigma" format="1">
  <advance width="582"/>
  <unicode hex="03C3"/>
  <outline>
    <contour>
      <point x="114" y="533"/>
      <point x="53" y="338"/>
      <point x="53" y="206" type="curve" smooth="yes"/>
      <point x="53" y="77"/>
      <point x="124" y="-12"/>
      <point x="255" y="-12" type="curve" smooth="yes"/>
      <point x="460" y="-12"/>
      <point x="525" y="189"/>
      <point x="525" y="306" type="curve" smooth="yes"/>
      <point x="525" y="376"/>
      <point x="500" y="430"/>
      <point x="467" y="461" type="curve"/>
      <point x="583" y="453" type="line"/>
      <point x="590" y="527" type="line"/>
      <point x="522" y="530"/>
      <point x="429" y="533"/>
      <point x="349" y="533" type="curve" smooth="yes"/>
    </contour>
    <contour>
      <point x="409" y="438"/>
      <point x="430" y="392"/>
      <point x="430" y="324" type="curve" smooth="yes"/>
      <point x="430" y="227"/>
      <point x="395" y="62"/>
      <point x="258" y="62" type="curve" smooth="yes"/>
      <point x="188" y="62"/>
      <point x="150" y="109"/>
      <point x="150" y="195" type="curve" smooth="yes"/>
      <point x="150" y="314"/>
      <point x="183" y="464"/>
      <point x="349" y="464" type="curve" smooth="yes"/>
      <point x="379" y="464" type="line"/>
    </contour>
  </outline>
</glyph>
<glyph name="tau" format="1">
  <advance width="446"/>
  <unicode hex="03C4"/>
  <outline>
    <contour>
      <point x="145" y="527" type="line" smooth="yes"/>
      <point x="88" y="528"/>
      <point x="49" y="523"/>
      <point x="16" y="511" type="curve"/>
      <point x="28" y="439" type="line"/>
      <point x="61" y="450"/>
      <point x="75" y="452"/>
      <point x="128" y="452" type="curve" smooth="yes"/>
      <point x="198" y="452" type="line"/>
      <point x="154" y="134" type="line" smooth="yes"/>
      <point x="143" y="52"/>
      <point x="164" y="7"/>
      <point x="247" y="-11" type="curve"/>
      <point x="281" y="55" type="line"/>
      <point x="247" y="70"/>
      <point x="238" y="86"/>
      <point x="245" y="138" type="curve" smooth="yes"/>
      <point x="289" y="452" type="line"/>
      <point x="469" y="452" type="line"/>
      <point x="480" y="527" type="line"/>
    </contour>
  </outline>
</glyph>
<glyph name="upsilon" format="1">
  <advance width="565"/>
  <unicode hex="03C5"/>
  <outline>
    <contour>
      <point x="409" y="527" type="line"/>
      <point x="413" y="488"/>
      <point x="414" y="449"/>
      <point x="414" y="413" type="curve" smooth="yes"/>
      <point x="414" y="262"/>
      <point x="390" y="62"/>
      <point x="238" y="62" type="curve" smooth="yes"/>
      <point x="172" y="62"/>
      <point x="161" y="111"/>
      <point x="167" y="168" type="curve" smooth="yes"/>
      <point x="217" y="527" type="line"/>
      <point x="126" y="527" type="line"/>
      <point x="76" y="169" type="line" smooth="yes"/>
      <point x="64" y="84"/>
      <point x="99" y="-12"/>
      <point x="235" y="-12" type="curve" smooth="yes"/>
      <point x="441" y="-12"/>
      <point x="505" y="184"/>
      <point x="505" y="397" type="curve" smooth="yes"/>
      <point x="505" y="441"/>
      <point x="502" y="483"/>
      <point x="497" y="527" type="curve"/>
    </contour>
    <contour>
      <point x="323" y="527" type="move" name="top"/>
    </contour>
  </outline>
</glyph>
<glyph name="phi" format="1">
  <advance width="726"/>
  <unicode hex="03C6"/>
  <outline>
    <contour>
      <point x="416" y="539"/>
      <point x="343" y="473"/>
      <point x="325" y="341" type="curve" smooth="yes"/>
      <point x="285" y="58" type="line"/>
      <point x="194" y="66"/>
      <point x="148" y="102"/>
      <point x="148" y="194" type="curve" smooth="yes"/>
      <point x="148" y="289"/>
      <point x="188" y="405"/>
      <point x="252" y="527" type="curve"/>
      <point x="160" y="527" type="line"/>
      <point x="102" y="413"/>
      <point x="58" y="296"/>
      <point x="58" y="191" type="curve" smooth="yes"/>
      <point x="58" y="69"/>
      <point x="124" y="-1"/>
      <point x="276" y="-11" type="curve"/>
      <point x="247" y="-216" type="line"/>
      <point x="336" y="-204" type="line"/>
      <point x="363" y="-11" type="line"/>
      <point x="625" y="5"/>
      <point x="672" y="184"/>
      <point x="672" y="350" type="curve"/>
      <point x="672" y="484"/>
      <point x="613" y="539"/>
      <point x="517" y="539" type="curve" smooth="yes"/>
    </contour>
    <contour>
      <point x="560" y="467"/>
      <point x="581" y="443"/>
      <point x="581" y="371" type="curve" smooth="yes"/>
      <point x="581" y="227"/>
      <point x="564" y="78"/>
      <point x="372" y="59" type="curve"/>
      <point x="410" y="331" type="line" smooth="yes"/>
      <point x="427" y="445"/>
      <point x="469" y="467"/>
      <point x="517" y="467" type="curve" smooth="yes"/>
    </contour>
  </outline>
</glyph>
<glyph name="psi" format="1">
  <advance width="748.748"/>
  <unicode hex="03C8"/>
  <outline>
    <contour>
      <point x="690" y="472"/>
      <point x="688" y="499"/>
      <point x="686" y="527" type="curve"/>
      <point x="598" y="527" type="line"/>
      <point x="599" y="503"/>
      <point x="600" y="477"/>
      <point x="600" y="446" type="curve" smooth="yes"/>
      <point x="600" y="270.73"/>
      <point x="592.581" y="83.4045"/>
      <point x="391.082" y="61.7516" type="curve"/>
      <point x="456" y="527" type="line"/>
      <point x="368" y="527" type="line"/>
      <point x="303.399" y="60.9914" type="line"/>
      <point x="183.439" y="69.7785"/>
      <point x="150.698" y="125.784"/>
      <point x="164" y="217" type="curve" smooth="yes"/>
      <point x="208" y="527" type="line"/>
      <point x="117" y="527" type="line"/>
      <point x="73" y="216" type="line" smooth="yes"/>
      <point x="54.8002" y="89.5596"/>
      <point x="119.179" y="-2.0142"/>
      <point x="293.382" y="-11.2614" type="curve"/>
      <point x="265" y="-216" type="line"/>
      <point x="354" y="-204" type="line"/>
      <point x="380.911" y="-11.1386" type="line"/>
      <point x="650.815" y="5.1052"/>
      <point x="690" y="182.979"/>
      <point x="690" y="444" type="curve" smooth="yes"/>
    </contour>
  </outline>
</glyph>
<glyph name="omega" format="1">
  <advance width="770"/>
  <unicode hex="03C9"/>
  <outline>
    <contour>
      <point x="592" y="527" type="line"/>
      <point x="610" y="453"/>
      <point x="619" y="395"/>
      <point x="619" y="336" type="curve" smooth="yes"/>
      <point x="619" y="225"/>
      <point x="593" y="62"/>
      <point x="481" y="62" type="curve" smooth="yes"/>
      <point x="440" y="62"/>
      <point x="415" y="82"/>
      <point x="415" y="140" type="curve" smooth="yes"/>
      <point x="415" y="151"/>
      <point x="416" y="164"/>
      <point x="418" y="178" type="curve"/>
      <point x="445" y="367" type="line"/>
      <point x="355" y="355" type="line"/>
      <point x="331" y="184" type="line" smooth="yes"/>
      <point x="317" y="84"/>
      <point x="275" y="62"/>
      <point x="224" y="62" type="curve" smooth="yes"/>
      <point x="175" y="62"/>
      <point x="149" y="92"/>
      <point x="149" y="170" type="curve" smooth="yes"/>
      <point x="149" y="267"/>
      <point x="175" y="372"/>
      <point x="253" y="527" type="curve"/>
      <point x="161" y="527" type="line"/>
      <point x="100" y="415"/>
      <point x="57" y="289"/>
      <point x="57" y="175" type="curve" smooth="yes"/>
      <point x="57" y="42"/>
      <point x="123" y="-12"/>
      <point x="208" y="-12" type="curve" smooth="yes"/>
      <point x="287" y="-12"/>
      <point x="336" y="25"/>
      <point x="366" y="110" type="curve"/>
      <point x="367" y="29"/>
      <point x="414" y="-12"/>
      <point x="488" y="-12" type="curve" smooth="yes"/>
      <point x="652" y="-12"/>
      <point x="709" y="165"/>
      <point x="709" y="327" type="curve" smooth="yes"/>
      <point x="709" y="407"/>
      <point x="695" y="474"/>
      <point x="682" y="527" type="curve"/>
    </contour>
    <contour>
      <point x="422" y="527" type="move" name="top"/>
    </contour>
  </outline>
</glyph>
<glyph name="uni0402" format="1">
  <advance width="709"/>
  <unicode hex="0402"/>
  <outline>
    <contour>
      <point x="419" y="452"/>
      <point x="364" y="428"/>
      <point x="319" y="386" type="curve"/>
      <point x="350" y="608" type="line"/>
      <point x="540" y="608" type="line"/>
      <point x="562" y="689" type="line"/>
      <point x="74" y="689" type="line"/>
      <point x="62" y="608" type="line"/>
      <point x="256" y="608" type="line"/>
      <point x="171" y="0" type="line"/>
      <point x="265" y="0" type="line"/>
      <point x="306" y="292" type="line"/>
      <point x="349" y="340"/>
      <point x="399" y="371"/>
      <point x="470" y="371" type="curve" smooth="yes"/>
      <point x="558" y="371"/>
      <point x="590" y="326"/>
      <point x="577" y="237" type="curve"/>
      <point x="558" y="103" type="line"/>
      <point x="546" y="11"/>
      <point x="519" y="-31"/>
      <point x="424" y="-67" type="curve"/>
      <point x="443" y="-138" type="line"/>
      <point x="556" y="-103"/>
      <point x="631" y="-51"/>
      <point x="651" y="93" type="curve"/>
      <point x="671" y="232" type="line"/>
      <point x="690" y="368"/>
      <point x="625" y="452"/>
      <point x="495" y="452" type="curve" smooth="yes"/>
    </contour>
  </outline>
</glyph>
<glyph name="uni0404" format="1">
  <advance width="560"/>
  <unicode hex="0404"/>
  <outline>
    <contour>
      <point x="155" y="701"/>
      <point x="61" y="455"/>
      <point x="61" y="268" type="curve" smooth="yes"/>
      <point x="61" y="86"/>
      <point x="159" y="-12"/>
      <point x="306" y="-12" type="curve" smooth="yes"/>
      <point x="396" y="-12"/>
      <point x="466" y="24"/>
      <point x="509" y="63" type="curve"/>
      <point x="467" y="128" type="line"/>
      <point x="425" y="99"/>
      <point x="379" y="68"/>
      <point x="312" y="68" type="curve" smooth="yes"/>
      <point x="224" y="68"/>
      <point x="159" y="123"/>
      <point x="159" y="257" type="curve" smooth="yes"/>
      <point x="159" y="280"/>
      <point x="161" y="305"/>
      <point x="165" y="332" type="curve"/>
      <point x="168" y="365" type="line"/>
      <point x="198" y="553"/>
      <point x="297" y="623"/>
      <point x="400" y="623" type="curve" smooth="yes"/>
      <point x="445" y="623"/>
      <point x="484" y="609"/>
      <point x="522" y="574" type="curve"/>
      <point x="579" y="631" type="line"/>
      <point x="530" y="675"/>
      <point x="484" y="701"/>
      <point x="395" y="701" type="curve" smooth="yes"/>
    </contour>
    <contour>
      <point x="158" y="394" type="line"/>
      <point x="145" y="316" type="line"/>
      <point x="421" y="316" type="line"/>
      <point x="432" y="394" type="line"/>
    </contour>
    <contour>
      <point x="405" y="689" type="move" name="top"/>
    </contour>
    <contour>
      <point x="307" y="0" type="move" name="bottom"/>
    </contour>
  </outline>
</glyph>
<glyph name="uni0409" format="1">
  <advance width="894"/>
  <unicode hex="0409"/>
  <outline>
    <contour>
      <point x="226" y="689" type="line"/>
      <point x="149" y="399" type="line" smooth="yes"/>
      <point x="72" y="107"/>
      <point x="56" y="89"/>
      <point x="-12" y="65" type="curve"/>
      <point x="2" y="-14" type="line"/>
      <point x="122" y="16"/>
      <point x="159" y="67"/>
      <point x="244" y="402" type="curve" smooth="yes"/>
      <point x="297" y="609" type="line"/>
      <point x="484" y="609" type="line"/>
      <point x="589" y="689" type="line"/>
    </contour>
    <contour>
      <point x="495" y="689" type="line"/>
      <point x="398" y="0" type="line"/>
      <point x="570" y="0" type="line" smooth="yes"/>
      <point x="794" y="0"/>
      <point x="867" y="123"/>
      <point x="867" y="241" type="curve" smooth="yes"/>
      <point x="867" y="372"/>
      <point x="777" y="436"/>
      <point x="631" y="436" type="curve" smooth="yes"/>
      <point x="537" y="436" type="line"/>
      <point x="527" y="362" type="line"/>
      <point x="626" y="362" type="line" smooth="yes"/>
      <point x="715" y="362"/>
      <point x="767" y="331"/>
      <point x="767" y="241" type="curve" smooth="yes"/>
      <point x="767" y="160"/>
      <point x="731" y="76"/>
      <point x="585" y="76" type="curve" smooth="yes"/>
      <point x="503" y="76" type="line"/>
      <point x="589" y="689" type="line"/>
    </contour>
  </outline>
</glyph>
<glyph name="uni040A" format="1">
  <advance width="935"/>
  <unicode hex="040A"/>
  <outline>
    <contour>
      <point x="591" y="416" type="line"/>
      <point x="629" y="689" type="line"/>
      <point x="535" y="689" type="line"/>
      <point x="497" y="416" type="line"/>
      <point x="214" y="416" type="line"/>
      <point x="253" y="689" type="line"/>
      <point x="159" y="689" type="line"/>
      <point x="62" y="0" type="line"/>
      <point x="156" y="0" type="line"/>
      <point x="204" y="342" type="line"/>
      <point x="486" y="342" type="line"/>
      <point x="438" y="0" type="line"/>
      <point x="610" y="0" type="line" smooth="yes"/>
      <point x="834" y="0"/>
      <point x="907" y="123"/>
      <point x="907" y="231" type="curve" smooth="yes"/>
      <point x="907" y="352"/>
      <point x="817" y="416"/>
      <point x="671" y="416" type="curve" smooth="yes"/>
    </contour>
    <contour>
      <point x="543" y="76" type="line"/>
      <point x="580" y="342" type="line"/>
      <point x="666" y="342" type="line" smooth="yes"/>
      <point x="755" y="342"/>
      <point x="807" y="311"/>
      <point x="807" y="231" type="curve" smooth="yes"/>
      <point x="807" y="160"/>
      <point x="771" y="76"/>
      <point x="625" y="76" type="curve" smooth="yes"/>
    </contour>
  </outline>
</glyph>
<glyph name="uni040B" format="1">
  <advance width="670"/>
  <unicode hex="040B"/>
  <outline>
    <contour>
      <point x="74" y="689" type="line"/>
      <point x="62" y="608" type="line"/>
      <point x="540" y="608" type="line"/>
      <point x="562" y="689" type="line"/>
    </contour>
    <component base="uni04BA" xOffset="70"/>
  </outline>
</glyph>
<glyph name="uni040D" format="1">
  <advance width="677"/>
  <unicode hex="040D"/>
  <outline>
    <component base="uni0418"/>
    <component base="grave.case" xOffset="194"/>
    <contour>
      <point x="342" y="689" type="move" name="top"/>
    </contour>
  </outline>
</glyph>
<glyph name="uni0411" format="1">
  <advance width="573"/>
  <unicode hex="0411"/>
  <outline>
    <contour>
      <point x="159" y="689" type="line"/>
      <point x="62" y="0" type="line"/>
      <point x="244" y="0" type="line" smooth="yes"/>
      <point x="473" y="0"/>
      <point x="540" y="127"/>
      <point x="540" y="243" type="curve" smooth="yes"/>
      <point x="540" y="368"/>
      <point x="450" y="430"/>
      <point x="304" y="430" type="curve" smooth="yes"/>
      <point x="200" y="430" type="line"/>
      <point x="190" y="356" type="line"/>
      <point x="299" y="356" type="line" smooth="yes"/>
      <point x="388" y="356"/>
      <point x="440" y="327"/>
      <point x="440" y="244" type="curve" smooth="yes"/>
      <point x="440" y="162"/>
      <point x="405" y="76"/>
      <point x="259" y="76" type="curve" smooth="yes"/>
      <point x="167" y="76" type="line"/>
      <point x="251" y="679" type="line"/>
    </contour>
    <contour>
      <point x="160" y="689" type="line"/>
      <point x="227" y="611" type="line"/>
      <point x="508" y="611" type="line"/>
      <point x="531" y="689" type="line"/>
    </contour>
  </outline>
</glyph>
<glyph name="uni0413" format="1">
  <advance width="503"/>
  <unicode hex="0413"/>
  <outline>
    <contour>
      <point x="63" y="0" type="line"/>
      <point x="157" y="0" type="line"/>
      <point x="244" y="623" type="line"/>
      <point x="159" y="689" type="line"/>
    </contour>
    <contour>
      <point x="161" y="689" type="line"/>
      <point x="227" y="607" type="line"/>
      <point x="529" y="607" type="line"/>
      <point x="554" y="689" type="line"/>
    </contour>
    <contour>
      <point x="374" y="689" type="move" name="top"/>
    </contour>
    <contour>
      <point x="167" y="0" type="move" name="bottomright"/>
    </contour>
  </outline>
</glyph>
<glyph name="uni0414" format="1">
  <advance width="603"/>
  <unicode hex="0414"/>
  <outline>
    <contour>
      <point x="219" y="689" type="line"/>
      <point x="166" y="492" type="line" smooth="yes"/>
      <point x="90" y="204"/>
      <point x="69" y="131"/>
      <point x="8" y="78" type="curve"/>
      <point x="-1" y="0" type="line"/>
      <point x="469" y="0" type="line"/>
      <point x="566" y="689" type="line"/>
    </contour>
    <contour>
      <point x="386" y="78" type="line"/>
      <point x="91" y="78" type="line"/>
      <point x="168" y="133"/>
      <point x="189" y="210"/>
      <point x="259" y="482" type="curve" smooth="yes"/>
      <point x="291" y="611" type="line"/>
      <point x="461" y="611" type="line"/>
    </contour>
    <component base="descStraight-cy.case" xOffset="403"/>
    <component base="descStraightleft-cy.case" xOffset="-67"/>
  </outline>
</glyph>
<glyph name="uni0416" format="1">
  <advance width="822"/>
  <unicode hex="0416"/>
  <outline>
    <contour>
      <point x="758" y="678"/>
      <point x="725" y="660"/>
      <point x="661" y="563" type="curve" smooth="yes"/>
      <point x="555" y="401" type="line"/>
      <point x="481" y="401" type="line"/>
      <point x="522" y="689" type="line"/>
      <point x="431" y="689" type="line"/>
      <point x="390" y="401" type="line"/>
      <point x="308" y="401" type="line"/>
      <point x="217" y="597" type="line" smooth="yes"/>
      <point x="189" y="658"/>
      <point x="159" y="680"/>
      <point x="83" y="701" type="curve"/>
      <point x="56" y="627" type="line"/>
      <point x="100" y="614"/>
      <point x="120" y="601"/>
      <point x="141" y="554" type="curve" smooth="yes"/>
      <point x="227" y="366" type="line"/>
      <point x="-23" y="0" type="line"/>
      <point x="85" y="0" type="line"/>
      <point x="301" y="323" type="line"/>
      <point x="379" y="323" type="line"/>
      <point x="334" y="0" type="line"/>
      <point x="425" y="0" type="line"/>
      <point x="470" y="323" type="line"/>
      <point x="549" y="323" type="line"/>
      <point x="682" y="0" type="line"/>
      <point x="780" y="0" type="line"/>
      <point x="629" y="361" type="line"/>
      <point x="729" y="513" type="line" smooth="yes"/>
      <point x="787" y="601"/>
      <point x="811" y="614"/>
      <point x="857" y="628" type="curve"/>
      <point x="830" y="701" type="line"/>
    </contour>
    <contour>
      <point x="477" y="689" type="move" name="top"/>
    </contour>
    <contour>
      <point x="749" y="0" type="move" name="bottomright"/>
    </contour>
  </outline>
</glyph>
<glyph name="uni0417" format="1">
  <advance width="515"/>
  <unicode hex="0417"/>
  <outline>
    <contour>
      <point x="218" y="701"/>
      <point x="145" y="673"/>
      <point x="75" y="617" type="curve"/>
      <point x="121" y="557" type="line"/>
      <point x="175" y="599"/>
      <point x="231" y="623"/>
      <point x="289" y="623" type="curve" smooth="yes"/>
      <point x="360" y="623"/>
      <point x="387" y="588"/>
      <point x="387" y="538" type="curve" smooth="yes"/>
      <point x="387" y="457"/>
      <point x="322" y="403"/>
      <point x="238" y="403" type="curve" smooth="yes"/>
      <point x="184" y="403" type="line"/>
      <point x="163" y="325" type="line"/>
      <point x="230" y="325" type="line" smooth="yes"/>
      <point x="320" y="325"/>
      <point x="364" y="286"/>
      <point x="364" y="218" type="curve" smooth="yes"/>
      <point x="364" y="161"/>
      <point x="323" y="68"/>
      <point x="191" y="68" type="curve" smooth="yes"/>
      <point x="130" y="68"/>
      <point x="79" y="91"/>
      <point x="45" y="133" type="curve"/>
      <point x="-15" y="83" type="line"/>
      <point x="32" y="20"/>
      <point x="110" y="-12"/>
      <point x="192" y="-12" type="curve" smooth="yes"/>
      <point x="342" y="-12"/>
      <point x="463" y="78"/>
      <point x="463" y="214" type="curve" smooth="yes"/>
      <point x="463" y="309"/>
      <point x="400" y="359"/>
      <point x="325" y="366" type="curve"/>
      <point x="420" y="386"/>
      <point x="486" y="446"/>
      <point x="486" y="543" type="curve" smooth="yes"/>
      <point x="486" y="633"/>
      <point x="426" y="701"/>
      <point x="299" y="701" type="curve" smooth="yes"/>
    </contour>
    <contour>
      <point x="320" y="689" type="move" name="top"/>
    </contour>
    <contour>
      <point x="193" y="0" type="move" name="bottom"/>
    </contour>
  </outline>
</glyph>
<glyph name="uni0418" format="1">
  <advance width="677"/>
  <unicode hex="0418"/>
  <outline>
    <contour>
      <point x="513" y="689" type="line"/>
      <point x="156" y="94" type="line"/>
      <point x="173" y="159"/>
      <point x="188" y="226"/>
      <point x="205" y="350" type="curve" smooth="yes"/>
      <point x="253" y="689" type="line"/>
      <point x="159" y="689" type="line"/>
      <point x="62" y="0" type="line"/>
      <point x="189" y="0" type="line"/>
      <point x="543" y="593" type="line"/>
      <point x="529" y="536"/>
      <point x="510" y="447"/>
      <point x="495" y="339" type="curve" smooth="yes"/>
      <point x="447" y="0" type="line"/>
      <point x="541" y="0" type="line"/>
      <point x="638" y="689" type="line"/>
    </contour>
    <contour>
      <point x="399" y="689" type="move" name="top"/>
    </contour>
  </outline>
</glyph>
<glyph name="uni041A" format="1">
  <advance width="583"/>
  <unicode hex="041A"/>
  <outline>
    <contour>
      <point x="524" y="678"/>
      <point x="496" y="663"/>
      <point x="430" y="569" type="curve" smooth="yes"/>
      <point x="313" y="401" type="line"/>
      <point x="212" y="401" type="line"/>
      <point x="253" y="689" type="line"/>
      <point x="159" y="689" type="line"/>
      <point x="62" y="0" type="line"/>
      <point x="156" y="0" type="line"/>
      <point x="201" y="323" type="line"/>
      <point x="307" y="323" type="line"/>
      <point x="450" y="0" type="line"/>
      <point x="548" y="0" type="line"/>
      <point x="387" y="361" type="line"/>
      <point x="499" y="519" type="line" smooth="yes"/>
      <point x="559" y="604"/>
      <point x="577" y="614"/>
      <point x="623" y="628" type="curve"/>
      <point x="596" y="701" type="line"/>
    </contour>
    <contour>
      <point x="359" y="689" type="move" name="top"/>
    </contour>
    <contour>
      <point x="524" y="0" type="move" name="bottomright"/>
    </contour>
  </outline>
</glyph>
<glyph name="uni041B" format="1">
  <advance width="652"/>
  <unicode hex="041B"/>
  <outline>
    <contour>
      <point x="226" y="689" type="line"/>
      <point x="149" y="399" type="line" smooth="yes"/>
      <point x="72" y="107"/>
      <point x="56" y="89"/>
      <point x="-12" y="65" type="curve"/>
      <point x="2" y="-14" type="line"/>
      <point x="122" y="16"/>
      <point x="159" y="67"/>
      <point x="244" y="402" type="curve" smooth="yes"/>
      <point x="297" y="609" type="line"/>
      <point x="508" y="609" type="line"/>
      <point x="422" y="0" type="line"/>
      <point x="516" y="0" type="line"/>
      <point x="613" y="689" type="line"/>
    </contour>
  </outline>
</glyph>
<glyph name="uni041F" format="1">
  <advance width="669"/>
  <unicode hex="041F"/>
  <outline>
    <contour>
      <point x="159" y="689" type="line"/>
      <point x="62" y="0" type="line"/>
      <point x="156" y="0" type="line"/>
      <point x="241" y="608" type="line"/>
      <point x="524" y="608" type="line"/>
      <point x="439" y="0" type="line"/>
      <point x="533" y="0" type="line"/>
      <point x="630" y="689" type="line"/>
    </contour>
    <contour>
      <point x="543" y="0" type="move" name="bottomright"/>
    </contour>
  </outline>
</glyph>
<glyph name="uni0423" format="1">
  <advance width="534"/>
  <unicode hex="0423"/>
  <outline>
    <contour>
      <point x="502" y="689" type="line"/>
      <point x="276" y="247" type="line"/>
      <point x="155" y="689" type="line"/>
      <point x="60" y="689" type="line"/>
      <point x="209" y="189" type="line"/>
      <point x="242" y="191" type="line"/>
      <point x="201" y="106"/>
      <point x="158" y="75"/>
      <point x="64" y="57" type="curve"/>
      <point x="72" y="-12" type="line"/>
      <point x="199" y="7"/>
      <point x="260" y="51"/>
      <point x="331" y="184" type="curve" smooth="yes"/>
      <point x="600" y="689" type="line"/>
    </contour>
    <contour>
      <point x="327" y="689" type="move" name="top"/>
    </contour>
  </outline>
</glyph>
<glyph name="uni0424" format="1">
  <advance width="814"/>
  <unicode hex="0424"/>
  <outline>
    <contour>
      <point x="485" y="582" type="line"/>
      <point x="623" y="580"/>
      <point x="693" y="520"/>
      <point x="693" y="405" type="curve" smooth="yes"/>
      <point x="693" y="283"/>
      <point x="649" y="123"/>
      <point x="414" y="114" type="curve"/>
      <point x="409" y="45" type="line"/>
      <point x="702" y="45"/>
      <point x="789" y="238"/>
      <point x="789" y="402" type="curve" smooth="yes"/>
      <point x="789" y="553"/>
      <point x="685" y="649"/>
      <point x="490" y="653" type="curve"/>
    </contour>
    <contour>
      <point x="136" y="653"/>
      <point x="49" y="462"/>
      <point x="49" y="297" type="curve" smooth="yes"/>
      <point x="49" y="148"/>
      <point x="153" y="49"/>
      <point x="348" y="45" type="curve"/>
      <point x="353" y="116" type="line"/>
      <point x="215" y="118"/>
      <point x="145" y="181"/>
      <point x="145" y="294" type="curve" smooth="yes"/>
      <point x="145" y="417"/>
      <point x="189" y="575"/>
      <point x="424" y="584" type="curve"/>
      <point x="429" y="653" type="line"/>
    </contour>
    <contour>
      <point x="426" y="723" type="line"/>
      <point x="414" y="633" type="line"/>
      <point x="410" y="595" type="line"/>
      <point x="339" y="96" type="line"/>
      <point x="332" y="58" type="line"/>
      <point x="319" y="-33" type="line"/>
      <point x="411" y="-33" type="line"/>
      <point x="423" y="58" type="line"/>
      <point x="427" y="96" type="line"/>
      <point x="498" y="595" type="line"/>
      <point x="505" y="633" type="line"/>
      <point x="518" y="723" type="line"/>
    </contour>
  </outline>
</glyph>
<glyph name="uni0427" format="1">
  <advance width="606"/>
  <unicode hex="0427"/>
  <outline>
    <contour>
      <point x="99" y="689" type="line"/>
      <point x="62" y="427" type="line" smooth="yes"/>
      <point x="44" y="300"/>
      <point x="116" y="217"/>
      <point x="236" y="217" type="curve" smooth="yes"/>
      <point x="313" y="217"/>
      <point x="364" y="238"/>
      <point x="437" y="290" type="curve"/>
      <point x="435" y="367" type="line"/>
      <point x="396" y="331"/>
      <point x="342" y="298"/>
      <point x="264" y="298" type="curve" smooth="yes"/>
      <point x="183" y="298"/>
      <point x="143" y="336"/>
      <point x="156" y="428" type="curve" smooth="yes"/>
      <point x="193" y="689" type="line"/>
    </contour>
    <contour>
      <point x="473" y="689" type="line"/>
      <point x="376" y="0" type="line"/>
      <point x="470" y="0" type="line"/>
      <point x="567" y="689" type="line"/>
    </contour>
    <contour>
      <point x="333" y="689" type="move" name="top"/>
    </contour>
    <contour>
      <point x="480" y="0" type="move" name="bottomright"/>
    </contour>
    <contour>
      <point x="356" y="0" type="move" name="bottomleft"/>
    </contour>
  </outline>
</glyph>
<glyph name="uni0428" format="1">
  <advance width="915"/>
  <unicode hex="0428"/>
  <outline>
    <contour>
      <point x="784" y="689" type="line"/>
      <point x="698" y="78" type="line"/>
      <point x="476" y="78" type="line"/>
      <point x="562" y="689" type="line"/>
      <point x="473" y="689" type="line"/>
      <point x="387" y="78" type="line"/>
      <point x="165" y="78" type="line"/>
      <point x="251" y="689" type="line"/>
      <point x="159" y="689" type="line"/>
      <point x="62" y="0" type="line"/>
      <point x="779" y="0" type="line"/>
      <point x="876" y="689" type="line"/>
    </contour>
    <contour>
      <point x="789" y="0" type="move" name="bottomright"/>
    </contour>
  </outline>
</glyph>
<glyph name="uni042B" format="1">
  <advance width="812"/>
  <unicode hex="042B"/>
  <outline>
    <contour>
      <point x="679" y="689" type="line"/>
      <point x="582" y="0" type="line"/>
      <point x="676" y="0" type="line"/>
      <point x="773" y="689" type="line"/>
    </contour>
    <contour>
      <point x="62" y="0" type="line"/>
      <point x="234" y="0" type="line" smooth="yes"/>
      <point x="458" y="0"/>
      <point x="531" y="123"/>
      <point x="531" y="241" type="curve" smooth="yes"/>
      <point x="531" y="372"/>
      <point x="441" y="436"/>
      <point x="295" y="436" type="curve" smooth="yes"/>
      <point x="201" y="436" type="line"/>
      <point x="191" y="362" type="line"/>
      <point x="290" y="362" type="line" smooth="yes"/>
      <point x="379" y="362"/>
      <point x="431" y="331"/>
      <point x="431" y="241" type="curve" smooth="yes"/>
      <point x="431" y="160"/>
      <point x="395" y="76"/>
      <point x="249" y="76" type="curve" smooth="yes"/>
      <point x="167" y="76" type="line"/>
      <point x="253" y="689" type="line"/>
      <point x="159" y="689" type="line"/>
    </contour>
    <contour>
      <point x="464" y="689" type="move" name="top"/>
    </contour>
  </outline>
</glyph>
<glyph name="uni042C" format="1">
  <advance width="568"/>
  <unicode hex="042C"/>
  <outline>
    <contour>
      <point x="62" y="0" type="line"/>
      <point x="244" y="0" type="line" smooth="yes"/>
      <point x="468" y="0"/>
      <point x="541" y="123"/>
      <point x="541" y="241" type="curve" smooth="yes"/>
      <point x="541" y="372"/>
      <point x="451" y="436"/>
      <point x="305" y="436" type="curve" smooth="yes"/>
      <point x="201" y="436" type="line"/>
      <point x="191" y="362" type="line"/>
      <point x="300" y="362" type="line" smooth="yes"/>
      <point x="389" y="362"/>
      <point x="441" y="331"/>
      <point x="441" y="241" type="curve" smooth="yes"/>
      <point x="441" y="160"/>
      <point x="405" y="76"/>
      <point x="259" y="76" type="curve" smooth="yes"/>
      <point x="167" y="76" type="line"/>
      <point x="253" y="689" type="line"/>
      <point x="159" y="689" type="line"/>
    </contour>
  </outline>
</glyph>
<glyph name="uni042D" format="1">
  <advance width="540"/>
  <unicode hex="042D"/>
  <outline>
    <contour>
      <point x="198" y="701"/>
      <point x="135" y="677"/>
      <point x="75" y="630" type="curve"/>
      <point x="118" y="569" type="line"/>
      <point x="171" y="605"/>
      <point x="210" y="623"/>
      <point x="274" y="623" type="curve" smooth="yes"/>
      <point x="353" y="623"/>
      <point x="405" y="577"/>
      <point x="405" y="452" type="curve" smooth="yes"/>
      <point x="405" y="309"/>
      <point x="362" y="68"/>
      <point x="184" y="68" type="curve" smooth="yes"/>
      <point x="121" y="68"/>
      <point x="86" y="89"/>
      <point x="52" y="122" type="curve"/>
      <point x="-1" y="64" type="line"/>
      <point x="36" y="24"/>
      <point x="95" y="-12"/>
      <point x="183" y="-12" type="curve" smooth="yes"/>
      <point x="429" y="-12"/>
      <point x="503" y="242"/>
      <point x="503" y="439" type="curve" smooth="yes"/>
      <point x="503" y="624"/>
      <point x="412" y="701"/>
      <point x="279" y="701" type="curve" smooth="yes"/>
    </contour>
    <contour>
      <point x="137" y="394" type="line"/>
      <point x="126" y="316" type="line"/>
      <point x="408" y="316" type="line"/>
      <point x="418" y="394" type="line"/>
    </contour>
    <contour>
      <point x="295" y="689" type="move" name="top"/>
    </contour>
  </outline>
</glyph>
<glyph name="uni042E" format="1">
  <advance width="890"/>
  <unicode hex="042E"/>
  <outline>
    <contour>
      <point x="367" y="701"/>
      <point x="286" y="439"/>
      <point x="286" y="265" type="curve" smooth="yes"/>
      <point x="286" y="87"/>
      <point x="374" y="-12"/>
      <point x="522" y="-12" type="curve" smooth="yes"/>
      <point x="771" y="-12"/>
      <point x="852" y="242"/>
      <point x="852" y="425" type="curve" smooth="yes"/>
      <point x="852" y="604"/>
      <point x="762" y="701"/>
      <point x="614" y="701" type="curve" smooth="yes"/>
    </contour>
    <contour>
      <point x="159" y="689" type="line"/>
      <point x="62" y="0" type="line"/>
      <point x="156" y="0" type="line"/>
      <point x="201" y="318" type="line"/>
      <point x="329" y="318" type="line"/>
      <point x="340" y="396" type="line"/>
      <point x="212" y="396" type="line"/>
      <point x="253" y="689" type="line"/>
    </contour>
    <contour>
      <point x="702" y="623"/>
      <point x="754" y="570"/>
      <point x="754" y="442" type="curve" smooth="yes"/>
      <point x="754" y="291"/>
      <point x="706" y="66"/>
      <point x="525" y="66" type="curve" smooth="yes"/>
      <point x="439" y="66"/>
      <point x="383" y="119"/>
      <point x="383" y="249" type="curve" smooth="yes"/>
      <point x="383" y="394"/>
      <point x="433" y="623"/>
      <point x="612" y="623" type="curve" smooth="yes"/>
    </contour>
  </outline>
</glyph>
<glyph name="uni042F" format="1">
  <advance width="591"/>
  <unicode hex="042F"/>
  <outline>
    <contour>
      <point x="174" y="308" type="line"/>
      <point x="-17" y="0" type="line"/>
      <point x="91" y="0" type="line"/>
      <point x="262" y="287" type="line"/>
    </contour>
    <contour>
      <point x="226" y="273" type="line"/>
      <point x="414" y="271" type="line"/>
      <point x="425" y="346" type="line"/>
      <point x="285" y="346" type="line" smooth="yes"/>
      <point x="213" y="346"/>
      <point x="165" y="382"/>
      <point x="165" y="447" type="curve" smooth="yes"/>
      <point x="165" y="520"/>
      <point x="195" y="615"/>
      <point x="353" y="615" type="curve" smooth="yes"/>
      <point x="447" y="615" type="line"/>
      <point x="361" y="0" type="line"/>
      <point x="455" y="0" type="line"/>
      <point x="552" y="689" type="line"/>
      <point x="358" y="689" type="line" smooth="yes"/>
      <point x="124" y="689"/>
      <point x="66" y="550"/>
      <point x="66" y="448" type="curve" smooth="yes"/>
      <point x="66" y="378"/>
      <point x="104" y="316"/>
      <point x="174" y="289" type="curve"/>
    </contour>
  </outline>
</glyph>
<glyph name="uni0431" format="1">
  <advance width="581"/>
  <unicode hex="0431"/>
  <outline>
    <contour>
      <point x="274" y="500"/>
      <point x="203" y="452"/>
      <point x="159" y="388" type="curve"/>
      <point x="190" y="548"/>
      <point x="258" y="592"/>
      <point x="349" y="614" type="curve" smooth="yes"/>
      <point x="436" y="635"/>
      <point x="471" y="652"/>
      <point x="513" y="681" type="curve"/>
      <point x="480" y="752" type="line"/>
      <point x="425" y="713"/>
      <point x="398" y="704"/>
      <point x="320" y="685" type="curve" smooth="yes"/>
      <point x="98" y="631"/>
      <point x="61" y="400"/>
      <point x="61" y="231" type="curve" smooth="yes"/>
      <point x="61" y="66"/>
      <point x="146" y="-12"/>
      <point x="263" y="-12" type="curve" smooth="yes"/>
      <point x="457" y="-12"/>
      <point x="526" y="178"/>
      <point x="526" y="305" type="curve" smooth="yes"/>
      <point x="526" y="430"/>
      <point x="457" y="500"/>
      <point x="353" y="500" type="curve" smooth="yes"/>
    </contour>
    <contour>
      <point x="193" y="62"/>
      <point x="148" y="123"/>
      <point x="148" y="233" type="curve" smooth="yes"/>
      <point x="148" y="247"/>
      <point x="148" y="265"/>
      <point x="150" y="286" type="curve"/>
      <point x="197" y="377"/>
      <point x="270" y="426"/>
      <point x="338" y="426" type="curve" smooth="yes"/>
      <point x="395" y="426"/>
      <point x="429" y="395"/>
      <point x="429" y="305" type="curve" smooth="yes"/>
      <point x="429" y="204"/>
      <point x="391" y="62"/>
      <point x="262" y="62" type="curve" smooth="yes"/>
    </contour>
  </outline>
</glyph>
<glyph name="uni0432" format="1">
  <advance width="535.991"/>
  <unicode hex="0432"/>
  <outline>
    <contour>
      <point x="138" y="539"/>
      <point x="52" y="357"/>
      <point x="52" y="211" type="curve" smooth="yes"/>
      <point x="52" y="65"/>
      <point x="147" y="-12"/>
      <point x="276" y="-12" type="curve" smooth="yes"/>
      <point x="382" y="-12"/>
      <point x="487" y="48"/>
      <point x="487" y="168" type="curve" smooth="yes"/>
      <point x="487" y="222.83"/>
      <point x="449.744" y="265.031"/>
      <point x="393.798" y="283.564" type="curve"/>
      <point x="458.998" y="315.856"/>
      <point x="493" y="360.935"/>
      <point x="493" y="416" type="curve" smooth="yes"/>
      <point x="493" y="495"/>
      <point x="427" y="539"/>
      <point x="338" y="539" type="curve" smooth="yes"/>
    </contour>
    <contour>
      <point x="361.369" y="242.683"/>
      <point x="391" y="217.386"/>
      <point x="391" y="169" type="curve" smooth="yes"/>
      <point x="391" y="101"/>
      <point x="349" y="59.9999"/>
      <point x="272" y="59.9999" type="curve" smooth="yes"/>
      <point x="175" y="59.9999"/>
      <point x="148" y="141"/>
      <point x="148" y="213" type="curve" smooth="yes"/>
      <point x="148" y="219"/>
      <point x="148" y="224"/>
      <point x="148.197" y="229.751" type="curve"/>
      <point x="218.598" y="234.129"/>
      <point x="278.851" y="243.907"/>
      <point x="328.366" y="258.498" type="curve"/>
    </contour>
    <contour>
      <point x="375" y="470"/>
      <point x="404" y="452"/>
      <point x="404" y="407" type="curve" smooth="yes"/>
      <point x="404" y="336.248"/>
      <point x="300" y="305"/>
      <point x="155" y="295" type="curve"/>
      <point x="175" y="391"/>
      <point x="233.861" y="470"/>
      <point x="329" y="470" type="curve" smooth="yes"/>
    </contour>
  </outline>
</glyph>
<glyph name="uni0433" format="1">
  <advance width="461"/>
  <unicode hex="0433"/>
  <outline>
    <contour>
      <point x="194" y="539"/>
      <point x="132" y="519"/>
      <point x="75" y="478" type="curve"/>
      <point x="116" y="417" type="line"/>
      <point x="162" y="449"/>
      <point x="205" y="466"/>
      <point x="255" y="466" type="curve" smooth="yes"/>
      <point x="300" y="466"/>
      <point x="332" y="446"/>
      <point x="332" y="409" type="curve" smooth="yes"/>
      <point x="332" y="376"/>
      <point x="320" y="338"/>
      <point x="212" y="310" type="curve" smooth="yes"/>
      <point x="60" y="268"/>
      <point x="15" y="208"/>
      <point x="15" y="133" type="curve" smooth="yes"/>
      <point x="15" y="41"/>
      <point x="100" y="-12"/>
      <point x="200" y="-12" type="curve" smooth="yes"/>
      <point x="282" y="-12"/>
      <point x="358" y="15"/>
      <point x="410" y="55" type="curve"/>
      <point x="364" y="119" type="line"/>
      <point x="320" y="85"/>
      <point x="263" y="64"/>
      <point x="205" y="64" type="curve" smooth="yes"/>
      <point x="144" y="64"/>
      <point x="114" y="95"/>
      <point x="114" y="133" type="curve" smooth="yes"/>
      <point x="114" y="172"/>
      <point x="122" y="205"/>
      <point x="257" y="241" type="curve" smooth="yes"/>
      <point x="403" y="280"/>
      <point x="429" y="349"/>
      <point x="429" y="409" type="curve" smooth="yes"/>
      <point x="429" y="484"/>
      <point x="365" y="539"/>
      <point x="261" y="539" type="curve" smooth="yes"/>
    </contour>
    <contour>
      <point x="279" y="527" type="move" name="top"/>
    </contour>
    <contour>
      <point x="195" y="0" type="move" name="bottom"/>
    </contour>
  </outline>
</glyph>
